# Blender 4.0.2
# www.blender.org
mtllib asmundarsafnid.mtl
o v_hlid
v 2.750000 0.000000 2.000000
v 4.139461 4.000000 1.236724
v 2.750000 0.000000 -2.000000
v 4.139461 4.000000 -1.236724
v 10.250000 0.000000 2.000000
v 8.860538 4.000000 1.236724
v 10.250000 0.000000 -2.000000
v 8.860538 4.000000 -1.236724
vn -0.9446 0.3281 -0.0000
vn -0.0000 0.1874 -0.9823
vn 0.9446 0.3281 -0.0000
vn -0.0000 0.1874 0.9823
vn -0.0000 -1.0000 -0.0000
vn -0.0000 1.0000 -0.0000
vt 0.375000 0.000000
vt 0.625000 0.000000
vt 0.625000 0.250000
vt 0.375000 0.250000
vt 0.625000 0.500000
vt 0.375000 0.500000
vt 0.625000 0.750000
vt 0.375000 0.750000
vt 0.625000 1.000000
vt 0.375000 1.000000
vt 0.125000 0.500000
vt 0.125000 0.750000
vt 0.875000 0.500000
vt 0.875000 0.750000
s 0
usemtl Material.003
f 1/1/1 2/2/1 4/3/1 3/4/1
f 3/4/2 4/3/2 8/5/2 7/6/2
f 7/6/3 8/5/3 6/7/3 5/8/3
f 5/8/4 6/7/4 2/9/4 1/10/4
f 3/11/5 7/6/5 5/8/5 1/12/5
f 8/5/6 4/13/6 2/14/6 6/7/6
o adaldyr
v -4.000000 0.000000 1.300000
v -4.000000 2.900000 1.300000
v -4.000000 0.000000 -1.300000
v -4.000000 2.900000 -1.300000
v 4.000000 0.000000 1.300000
v 4.000000 2.900000 1.300000
v 4.000000 0.000000 -1.300000
v 4.000000 2.900000 -1.300000
v 1.389393 1.796256 0.880154
v 1.019795 1.796256 0.880154
v 1.389393 2.271376 0.880154
v 1.019795 2.271376 0.880154
v -4.000000 2.900000 -1.300000
v -4.000000 0.000000 -1.300000
v 4.000000 0.000000 -1.300000
v 4.000000 2.900000 -1.300000
v -4.000000 2.900000 -1.300000
v -4.000000 0.000000 -1.300000
v 4.000000 0.000000 -1.300000
v 4.000000 2.900000 -1.300000
v -4.000000 1.450000 -1.300000
v 0.000000 0.000000 -1.300000
v 0.000000 2.900000 -1.300000
v 4.000000 1.450000 -1.300000
v -2.000000 0.000000 -1.300000
v 2.000000 0.000000 -1.300000
v -3.000000 0.000000 -1.300000
v 1.000000 0.000000 -1.300000
v -1.000000 0.000000 -1.300000
v 3.000000 0.000000 -1.300000
v -3.500000 0.000000 -1.300000
v 0.500000 0.000000 -1.300000
v -1.500000 0.000000 -1.300000
v 2.500000 0.000000 -1.300000
v -2.500000 0.000000 -1.300000
v 1.500000 0.000000 -1.300000
v -0.500000 0.000000 -1.300000
v 3.500000 0.000000 -1.300000
v 2.000000 2.900000 -1.300000
v -2.000000 2.900000 -1.300000
v 3.000000 2.900000 -1.300000
v -1.000000 2.900000 -1.300000
v 1.000000 2.900000 -1.300000
v -3.000000 2.900000 -1.300000
v 3.500000 2.900000 -1.300000
v -0.500000 2.900000 -1.300000
v 1.500000 2.900000 -1.300000
v -2.500000 2.900000 -1.300000
v 2.500000 2.900000 -1.300000
v -1.500000 2.900000 -1.300000
v 0.500000 2.900000 -1.300000
v -3.500000 2.900000 -1.300000
vn -1.0000 -0.0000 -0.0000
vn -0.0000 -0.0000 -1.0000
vn 1.0000 -0.0000 -0.0000
vn -0.0000 -0.0000 1.0000
vn -0.0000 -1.0000 -0.0000
vn -0.0000 1.0000 -0.0000
vt 0.375000 0.000000
vt 0.625000 0.000000
vt 0.625000 0.250000
vt 0.375000 0.250000
vt 0.625000 0.500000
vt 0.375000 0.500000
vt 0.625000 0.750000
vt 0.375000 0.750000
vt 0.625000 1.000000
vt 0.375000 1.000000
vt 0.125000 0.500000
vt 0.125000 0.750000
vt 0.875000 0.500000
vt 0.875000 0.750000
vt 0.000000 0.000000
vt 0.375000 0.265625
vt 0.375000 0.281250
vt 0.375000 0.296875
vt 0.375000 0.312500
vt 0.375000 0.328125
vt 0.375000 0.343750
vt 0.375000 0.359375
vt 0.375000 0.375000
vt 0.375000 0.390625
vt 0.375000 0.406250
vt 0.375000 0.421875
vt 0.375000 0.437500
vt 0.375000 0.453125
vt 0.375000 0.468750
vt 0.375000 0.484375
vt 0.625000 0.484375
vt 0.625000 0.468750
vt 0.625000 0.453125
vt 0.625000 0.437500
vt 0.625000 0.421875
vt 0.625000 0.406250
vt 0.625000 0.390625
vt 0.625000 0.375000
vt 0.625000 0.359375
vt 0.625000 0.343750
vt 0.625000 0.328125
vt 0.625000 0.312500
vt 0.625000 0.296875
vt 0.625000 0.281250
vt 0.625000 0.265625
vt 0.500000 0.250000
vt 0.500000 0.500000
s 0
usemtl Material.004
f 9/15/7 10/16/7 21/17/7 22/18/7
f 11/18/8 12/17/8 16/19/8 15/20/8
f 23/20/9 24/19/9 14/21/9 13/22/9
f 13/22/10 14/21/10 10/23/10 9/24/10
f 22/25/11 23/20/11 13/22/11 9/26/11
f 24/19/12 21/27/12 10/28/12 14/21/12
f 20/19/10 18/27/10 17/28/10 19/21/10
f 25/29/12 29/29/12 26/29/12 22/29/12 21/29/12
f 26/18/12 39/30/12 35/31/12 43/32/12 33/33/12 41/34/12 37/35/12 45/36/12 30/37/12 40/38/12 36/39/12 44/40/12 34/41/12 42/42/12 38/43/12 46/44/12 27/20/12 23/20/12 22/18/12
f 28/19/12 53/45/12 49/46/12 57/47/12 47/48/12 55/49/12 51/50/12 59/51/12 31/52/12 54/53/12 50/54/12 58/55/12 48/56/12 56/57/12 52/58/12 60/59/12 25/17/12 21/17/12 24/19/12
f 27/29/12 32/29/12 28/29/12 24/29/12 23/29/12
f 12/17/12 11/18/12 26/18/12 29/60/12 25/17/12
f 11/18/12 15/20/12 27/20/12 46/44/12 38/43/12 42/42/12 34/41/12 44/40/12 36/39/12 40/38/12 30/37/12 45/36/12 37/35/12 41/34/12 33/33/12 43/32/12 35/31/12 39/30/12 26/18/12
f 16/19/12 12/17/12 25/17/12 60/59/12 52/58/12 56/57/12 48/56/12 58/55/12 50/54/12 54/53/12 31/52/12 59/51/12 51/50/12 55/49/12 47/48/12 57/47/12 49/46/12 53/45/12 28/19/12
f 15/20/12 16/19/12 28/19/12 32/61/12 27/20/12
o h_hlid
v -10.250000 0.000000 2.000000
v -8.860538 4.000000 1.236724
v -10.250000 0.000000 -2.000000
v -8.860538 4.000000 -1.236724
v -2.750000 0.000000 2.000000
v -4.139461 4.000000 1.236724
v -2.750000 0.000000 -2.000000
v -4.139461 4.000000 -1.236724
vn -0.9446 0.3281 -0.0000
vn -0.0000 0.1874 -0.9823
vn 0.9446 0.3281 -0.0000
vn -0.0000 0.1874 0.9823
vn -0.0000 -1.0000 -0.0000
vn -0.0000 1.0000 -0.0000
vt 0.375000 0.000000
vt 0.625000 0.000000
vt 0.625000 0.250000
vt 0.375000 0.250000
vt 0.625000 0.500000
vt 0.375000 0.500000
vt 0.625000 0.750000
vt 0.375000 0.750000
vt 0.625000 1.000000
vt 0.375000 1.000000
vt 0.125000 0.500000
vt 0.125000 0.750000
vt 0.875000 0.500000
vt 0.875000 0.750000
s 0
usemtl Material.002
f 61/62/13 62/63/13 64/64/13 63/65/13
f 63/65/14 64/64/14 68/66/14 67/67/14
f 67/67/15 68/66/15 66/68/15 65/69/15
f 65/69/16 66/68/16 62/70/16 61/71/16
f 63/72/17 67/67/17 65/69/17 61/73/17
f 68/66/18 64/74/18 62/75/18 66/68/18
o innanhus
v -4.080000 -0.009000 9.530798
v -4.080000 2.949000 9.530798
v -4.080000 -0.009000 1.289198
v -4.080000 2.949000 1.289198
v 4.080000 -0.009000 9.530798
v 4.080000 2.949000 9.530798
v 4.080000 -0.009000 1.289198
v 4.080000 2.949000 1.289198
vn -1.0000 -0.0000 -0.0000
vn -0.0000 -0.0000 -1.0000
vn 1.0000 -0.0000 -0.0000
vn -0.0000 -0.0000 1.0000
vn -0.0000 -1.0000 -0.0000
vn -0.0000 1.0000 -0.0000
vt 0.375000 0.000000
vt 0.625000 0.000000
vt 0.625000 0.250000
vt 0.375000 0.250000
vt 0.625000 0.500000
vt 0.375000 0.500000
vt 0.625000 0.750000
vt 0.375000 0.750000
vt 0.625000 1.000000
vt 0.375000 1.000000
vt 0.125000 0.500000
vt 0.125000 0.750000
vt 0.875000 0.500000
vt 0.875000 0.750000
s 0
usemtl Material.012
f 69/76/19 70/77/19 72/78/19 71/79/19
f 71/79/20 72/78/20 76/80/20 75/81/20
f 75/81/21 76/80/21 74/82/21 73/83/21
f 73/83/22 74/82/22 70/84/22 69/85/22
f 71/86/23 75/81/23 73/83/23 69/87/23
f 76/80/24 72/88/24 70/89/24 74/82/24
o kulan
v 0.027335 6.218484 3.382767
v 0.000000 5.122281 2.174122
v 0.000000 3.680361 1.576859
v 0.000000 2.900000 1.500000
v 0.154130 6.823123 4.737895
v 0.295946 6.593807 4.008107
v 0.419344 6.222498 3.324364
v 0.551799 5.728427 2.725920
v 0.648847 5.122281 2.238028
v 0.720960 4.430734 1.875490
v 0.765367 3.680361 1.652241
v 0.780361 2.900000 1.576859
v 0.298849 6.823139 4.779416
v 0.585786 6.595518 4.085786
v 0.850430 6.225879 3.446880
v 1.082392 5.728427 2.886874
v 1.272758 5.122281 2.427289
v 1.414213 4.430734 2.085787
v 1.501321 3.680361 1.875490
v 1.530734 2.900000 1.804482
v 0.433545 6.823141 4.851153
v 0.850430 6.595518 4.227242
v 1.234633 6.225879 3.652241
v 1.571390 5.728427 3.148249
v 1.847759 5.122281 2.734634
v 2.053120 4.430734 2.427289
v 2.179580 3.680361 2.238028
v 2.222281 2.900000 2.174122
v 0.551799 6.823141 4.948201
v 1.082392 6.595518 4.417608
v 1.571390 6.225879 3.928610
v 2.000000 5.728427 3.500000
v 2.351751 5.122281 3.148249
v 2.613126 4.430734 2.886874
v 2.774080 3.680361 2.725921
v 2.828427 2.900000 2.671574
v 0.648847 6.823141 5.066454
v 1.272759 6.595518 4.649570
v 1.847759 6.225879 4.265367
v 2.351751 5.728427 3.928610
v 2.765367 5.122281 3.652241
v 3.072711 4.430734 3.446880
v 3.261972 3.680361 3.320420
v 3.325878 2.900000 3.277720
v 0.000000 6.900000 5.500000
v 0.720960 6.823141 5.201369
v 1.414213 6.595518 4.914214
v 2.053120 6.225879 4.649570
v 2.613126 5.728427 4.417608
v 3.072711 5.122281 4.227242
v 3.414213 4.430734 4.085786
v 3.624509 3.680361 3.998679
v 3.695518 2.900000 3.969267
v 0.765367 6.823141 5.347759
v 1.501321 6.595518 5.201369
v 2.179580 6.225879 5.066455
v 2.774080 5.728427 4.948201
v 3.261972 5.122281 4.851154
v 3.624509 4.430734 4.779040
v 3.847759 3.680361 4.734633
v 3.923140 2.900000 4.719639
v 0.780361 6.823141 5.500000
v 1.530734 6.595518 5.500000
v 2.222281 6.225879 5.500000
v 2.828427 5.728427 5.500000
v 3.325878 5.122281 5.500000
v 3.695518 4.430734 5.500000
v 3.923141 3.680361 5.500000
v 3.999999 2.900000 5.500000
v 0.765367 6.823141 5.652241
v 1.501321 6.595518 5.798631
v 2.179580 6.225879 5.933546
v 2.774079 5.728427 6.051799
v 3.261972 5.122281 6.148847
v 3.624509 4.430734 6.220960
v 3.847758 3.680361 6.265367
v 3.923140 2.900000 6.280362
v 0.720960 6.823141 5.798631
v 1.414213 6.595518 6.085786
v 2.053119 6.225879 6.350430
v 2.613126 5.728427 6.582392
v 3.082584 5.129426 6.776820
v 3.442864 4.443479 6.926081
v 3.624509 3.680361 7.001321
v 3.695516 2.900000 7.030734
v 0.648846 6.823141 5.933545
v 1.272758 6.595518 6.350430
v 1.853482 6.236266 6.738438
v 2.357851 5.736718 7.074418
v 2.765366 5.122281 7.347759
v 3.072769 4.430729 7.553038
v 3.261972 3.680361 7.679580
v 3.325876 2.900000 7.722281
v 0.551798 6.823141 6.051798
v 1.082392 6.595518 6.582392
v 1.573056 6.228904 7.072498
v 1.977486 5.760432 7.477744
v 2.343151 5.114218 7.843150
v 2.610067 4.428925 8.110060
v 2.779127 3.644701 8.278952
v 2.828425 2.900000 8.328426
v 0.433545 6.823141 6.148847
v 0.850430 6.595518 6.772758
v 1.234632 6.225879 7.347759
v 1.575373 5.739678 7.860062
v 1.835918 5.119846 8.277163
v 2.032922 4.430213 8.586607
v 2.179579 3.680361 8.761972
v 2.222279 2.900000 8.825877
v 0.298631 6.823141 6.220960
v 0.585786 6.595518 6.914213
v 0.850429 6.225879 7.553119
v 1.082392 5.728427 8.113126
v 1.272758 5.122281 8.572710
v 1.417037 4.433791 8.921032
v 1.501320 3.680361 9.124509
v 1.530732 2.900000 9.195517
v 0.152241 6.823141 6.265367
v 0.298631 6.595518 7.001321
v 0.433545 6.225879 7.679580
v 0.551799 5.728427 8.274079
v 0.648846 5.122281 8.761971
v 0.720960 4.430734 9.124509
v 0.765366 3.680361 9.347757
v 0.780360 2.900000 9.423140
v -0.000000 6.823141 6.280361
v -0.000000 6.595518 7.030733
v -0.000000 6.225879 7.722280
v -0.000000 5.728427 8.328426
v -0.000000 5.122281 8.825877
v 0.000000 4.430734 9.195517
v -0.000001 3.680361 9.423140
v -0.000001 2.900000 9.499997
v -0.152241 6.823141 6.265367
v -0.298631 6.595518 7.001321
v -0.433546 6.225879 7.679579
v -0.551799 5.728427 8.274079
v -0.648847 5.122281 8.761971
v -0.720959 4.430734 9.124509
v -0.765367 3.680361 9.347757
v -0.780362 2.900000 9.423138
v -0.298631 6.823141 6.220959
v -0.585786 6.595518 6.914213
v -0.850430 6.225879 7.553119
v -1.082392 5.728427 8.113125
v -1.272758 5.122281 8.572710
v -1.414213 4.430734 8.914212
v -1.501321 3.680361 9.124508
v -1.530734 2.900000 9.195515
v -0.433545 6.823141 6.148846
v -0.850430 6.595518 6.772758
v -1.234633 6.225879 7.347757
v -1.571390 5.728427 7.851750
v -1.847759 5.122281 8.265366
v -2.053119 4.430734 8.572710
v -2.179580 3.680361 8.761971
v -2.222281 2.900000 8.825875
v -0.551798 6.823141 6.051798
v -1.082392 6.595518 6.582392
v -1.571389 6.225879 7.071388
v -2.000000 5.728427 7.500000
v -2.351750 5.122281 7.851749
v -2.613125 4.430734 8.113125
v -2.774079 3.680361 8.274078
v -2.828426 2.900000 8.328424
v -0.648846 6.823141 5.933545
v -1.272758 6.595518 6.350430
v -1.847758 6.225879 6.734632
v -2.351751 5.728427 7.071389
v -2.765366 5.122281 7.347758
v -3.072710 4.430734 7.553119
v -3.261972 3.680361 7.679579
v -3.325876 2.900000 7.722278
v -0.720959 6.823141 5.798631
v -1.414213 6.595518 6.085786
v -2.053118 6.225879 6.350429
v -2.613125 5.728427 6.582392
v -3.072710 5.122281 6.772758
v -3.414212 4.430734 6.914213
v -3.624509 3.680361 7.001319
v -3.695515 2.900000 7.030731
v -0.765366 6.823141 5.652241
v -1.501332 6.595539 5.798627
v -2.180009 6.226573 5.933489
v -2.773995 5.728406 6.051742
v -3.261971 5.122281 6.148846
v -3.624508 4.430734 6.220960
v -3.847758 3.680361 6.265366
v -3.923138 2.900000 6.280359
v -0.780361 6.823141 5.500000
v -1.572640 6.572253 5.503924
v -2.237071 6.241016 5.470050
v -2.828255 5.728351 5.500004
v -3.325877 5.122281 5.500000
v -3.695517 4.430734 5.500000
v -3.923139 3.680361 5.499999
v -3.999996 2.900000 5.499998
v -0.765366 6.823141 5.347759
v -1.504651 6.593624 5.200583
v -2.179805 6.226274 5.066442
v -2.774079 5.728427 4.948201
v -3.261971 5.122281 4.851153
v -3.624508 4.430734 4.779040
v -3.847757 3.680361 4.734632
v -3.923137 2.900000 4.719638
v -0.720959 6.823141 5.201369
v -1.414213 6.595518 4.914214
v -2.053118 6.225879 4.649570
v -2.613125 5.728427 4.417608
v -3.072709 5.122281 4.227242
v -3.414212 4.430734 4.085787
v -3.624507 3.680361 3.998679
v -3.695514 2.900000 3.969266
v -0.648846 6.823141 5.066455
v -1.272758 6.595518 4.649570
v -1.847757 6.225879 4.265368
v -2.351750 5.728427 3.928610
v -2.765365 5.122281 3.652241
v -3.072710 4.430734 3.446881
v -3.261970 3.680361 3.320420
v -3.325874 2.900000 3.277720
v -0.551798 6.823141 4.948202
v -1.082392 6.595518 4.417608
v -1.571388 6.225879 3.928611
v -1.999999 5.728427 3.500000
v -2.351749 5.122281 3.148250
v -2.613125 4.430734 2.886875
v -2.774077 3.680361 2.725921
v -2.828423 2.900000 2.671575
v -0.433545 6.823141 4.851154
v -0.851204 6.595353 4.227298
v -1.234631 6.225879 3.652242
v -1.571389 5.728427 3.148249
v -1.847757 5.122281 2.734635
v -2.053119 4.430734 2.427290
v -2.179578 3.680361 2.238029
v -2.222277 2.900000 2.174124
v -0.302017 6.822642 4.777493
v -0.594790 6.593603 4.086436
v -0.850428 6.225879 3.446882
v -1.082392 5.728427 2.886875
v -1.272757 5.122281 2.427291
v -1.414213 4.430734 2.085788
v -1.501319 3.680361 1.875492
v -1.530730 2.900000 1.804486
v -0.152484 6.822971 4.735609
v -0.298631 6.595518 3.998680
v -0.403803 6.228892 3.345109
v -0.551798 5.728427 2.725921
v -0.648845 5.122281 2.238030
v -0.720959 4.430734 1.875492
v -0.765365 3.680361 1.652243
v -0.780358 2.900000 1.576863
v 0.002460 6.823118 4.723889
v -0.003671 6.593282 3.981331
v 0.000000 5.728427 2.671574
v 0.000000 4.430734 1.804484
v -0.360480 4.430734 9.160013
v -0.382684 3.680361 9.385448
v 0.360480 4.430734 9.160013
v 0.743163 4.055548 9.236134
v 0.382683 3.680361 9.385448
v -0.743163 4.055548 9.236134
v -0.000000 4.055548 9.309328
v -0.743162 4.055548 1.763868
v -0.360480 4.430734 1.839988
v 0.000000 4.055548 1.690671
v -0.382683 3.680361 1.614551
v 0.743163 4.055548 1.763866
v 0.382683 3.680361 1.614550
v 0.360480 4.430734 1.839987
v 0.000000 4.776507 1.989303
v -1.067586 4.430734 1.980640
v -0.180240 4.430734 1.822236
v -0.185790 4.055548 1.708971
v -0.191341 3.680361 1.595705
v 0.191342 3.680361 1.595705
v 0.185791 4.055548 1.708970
v 0.180240 4.430734 1.822236
v 0.754265 3.867954 1.708054
v 0.574025 3.680361 1.633396
v 0.557373 4.055548 1.745567
v 0.565699 3.867954 1.689481
v 0.540720 4.430734 1.857739
v 0.000000 3.878273 1.636895
v 0.188490 3.873116 1.653895
v -0.188490 3.873116 1.653896
v -0.574024 3.680361 1.633397
v -0.540719 4.430734 1.857740
v -0.557372 4.055548 1.745569
v 0.684903 4.776507 2.056759
v -0.684902 4.776507 2.056761
v 0.492672 5.977153 3.023170
v 0.702932 4.603621 1.966125
v 0.000000 4.603621 1.896893
v 0.351466 4.603621 1.931509
v 0.486635 5.122281 2.222051
v -0.162211 5.122281 2.190099
v -0.486634 5.122281 2.222053
v 0.162212 5.122281 2.190098
v 0.171226 4.776507 2.006167
v 0.175733 4.603621 1.914201
v 0.513677 4.776507 2.039895
v 0.527199 4.603621 1.948817
v -0.171226 4.776507 2.006167
v -0.513677 4.776507 2.039896
v -0.702931 4.603621 1.966126
v -0.527198 4.603621 1.948818
v -0.351465 4.603621 1.931510
v -0.175733 4.603621 1.914202
v -0.413849 5.728427 2.712334
v 0.137950 5.728427 2.685160
v -0.137949 5.728427 2.685160
v 0.413849 5.728427 2.712334
v 0.600323 5.425354 2.481974
v 0.624585 5.273818 2.360001
v 0.576061 5.576890 2.603947
v 0.000000 5.425354 2.422848
v 0.000000 5.273818 2.298485
v 0.000000 5.576890 2.547211
v -0.600322 5.425354 2.481975
v -0.624584 5.273818 2.360003
v -0.576060 5.576890 2.603948
v -0.468438 5.273818 2.344623
v -0.312292 5.273818 2.329243
v -0.156146 5.273818 2.313864
v 0.156146 5.273818 2.313864
v 0.312292 5.273818 2.329243
v 0.468439 5.273818 2.344622
v 0.000000 5.977153 2.974646
v 0.150081 5.425354 2.437629
v 0.300161 5.425354 2.452411
v 0.450242 5.425354 2.467192
v -0.450241 5.425354 2.467193
v -0.300161 5.425354 2.452411
v -0.150080 5.425354 2.437629
v 0.522235 5.852790 2.874545
v 0.391677 5.852790 2.861686
v 0.123168 5.977153 2.986777
v 0.369504 5.977153 3.011039
v 0.246336 5.977153 2.998908
v -0.492671 5.977153 3.023171
v -0.369503 5.977153 3.011040
v -0.123168 5.977153 2.986778
v -0.180240 4.430734 9.177765
v 0.180240 4.430734 9.177765
v -0.191342 3.680361 9.404294
v 0.191341 3.680361 9.404295
v -0.185791 4.055548 9.291030
v 0.185791 4.055548 9.291030
v -0.574026 3.680361 9.366603
v -0.540720 4.430734 9.142261
v -0.557373 4.055548 9.254432
v 0.574024 3.680361 9.366604
v 0.557372 4.055548 9.254433
v 0.540720 4.430734 9.142262
v -0.486635 5.122281 8.777948
v -0.162212 5.122281 8.809900
v -0.684903 4.776507 8.943240
v -0.702931 4.603621 9.033875
v -0.666875 4.949394 8.852606
v -0.000000 4.776507 9.010697
v -0.000000 4.603621 9.103107
v -0.000000 4.949394 8.918287
v 0.684903 4.776507 8.943240
v 0.702931 4.603621 9.033875
v 0.666875 4.949394 8.852606
v 0.486634 5.122281 8.777948
v 0.162211 5.122281 8.809900
v -0.175733 4.603621 9.085798
v -0.527198 4.603621 9.051183
v 0.175733 4.603621 9.085798
v 0.527198 4.603621 9.051183
v -0.000000 5.425354 8.577152
v -0.000000 5.273818 8.701514
v -0.000000 5.576890 8.452789
v -0.600323 5.425354 8.518025
v -0.624585 5.273818 8.639998
v -0.576061 5.576890 8.396052
v 0.600322 5.425354 8.518025
v 0.624584 5.273818 8.639998
v 0.576061 5.576890 8.396052
v 0.312292 5.273818 8.670756
v 0.156146 5.273818 8.686135
v -0.468439 5.273818 8.655377
v 0.468438 5.273818 8.655377
v -0.156146 5.273818 8.686135
v -0.450242 5.425354 8.532806
v -0.150081 5.425354 8.562370
v -0.137950 5.728427 8.314840
v -0.413849 5.728427 8.287666
v 2.525354 5.977153 5.500000
v 0.150080 5.425354 8.562370
v 0.450242 5.425354 8.532806
v 0.413849 5.728427 8.287666
v 0.137950 5.728427 8.314840
v -0.492672 5.977153 7.976829
v -0.432046 5.576890 8.410236
v -0.144015 5.576890 8.438605
v -0.000000 5.977153 8.025353
v -0.246336 5.977153 8.001091
v -0.369504 5.977153 7.988960
v -0.123168 5.977153 8.013222
v 0.492672 5.977153 7.976830
v 0.522235 5.852790 8.125454
v 0.463108 6.101516 7.828205
v 0.246336 5.977153 8.001091
v 0.123168 5.977153 8.013222
v 0.369504 5.977153 7.988960
v 0.144015 5.576890 8.438605
v 0.432045 5.576890 8.410236
v 3.077152 5.425354 5.500000
v 3.510698 4.776507 5.500000
v 3.809329 4.055548 5.500000
v 2.676890 5.852790 5.500000
v 3.201515 5.273818 5.500000
v 3.603108 4.603621 5.500000
v 3.866235 3.867954 5.500000
v 2.373817 6.101516 5.500000
v 2.952790 5.576890 5.500000
v 3.418288 4.949394 5.500000
v 3.752423 4.243141 5.500000
v 2.476830 5.977153 5.007328
v 3.018026 5.425354 4.899677
v 3.443241 4.776507 4.815097
v 3.736134 4.055548 4.756837
v 2.625455 5.852790 4.977765
v 3.139999 5.273818 4.875416
v 3.533875 4.603621 4.797069
v 3.791946 3.867954 4.745735
v 2.328205 6.101516 5.036891
v 2.896053 5.576890 4.923939
v 3.352606 4.949394 4.833125
v 3.680322 4.243141 4.767939
v 2.476830 5.977153 5.992672
v 3.018025 5.425354 6.100323
v 3.443241 4.776507 6.184903
v 3.736134 4.055548 6.243163
v 2.625454 5.852790 6.022235
v 3.139998 5.273818 6.124585
v 3.533875 4.603621 6.202931
v 3.791946 3.867954 6.254265
v 2.328205 6.101516 5.963109
v 2.896052 5.576890 6.076061
v 3.352606 4.949394 6.166875
v 3.680322 4.243141 6.232061
v 3.885449 3.680361 5.117317
v 3.885449 3.680361 5.882684
v 3.866604 3.680361 4.925975
v 3.904295 3.680361 5.691342
v 3.904295 3.680361 5.308659
v 3.866604 3.680361 6.074025
v 3.660014 4.430734 5.139520
v 3.660014 4.430734 5.860480
v 3.677766 4.430734 5.319760
v 3.677766 4.430734 5.680240
v 3.642262 4.430734 4.959280
v 3.642262 4.430734 6.040720
v 3.754433 4.055548 6.057373
v 3.791030 4.055548 5.685791
v 3.791030 4.055548 5.314209
v 3.754433 4.055548 4.942627
v 3.170757 5.273818 5.187708
v 3.170757 5.273818 5.812293
v 3.186136 5.273818 5.343854
v 3.155378 5.273818 5.968439
v 3.155378 5.273818 5.031562
v 3.186136 5.273818 5.656147
v 3.568491 4.603621 5.148534
v 3.568491 4.603621 5.851466
v 3.585800 4.603621 5.324267
v 3.551183 4.603621 6.027199
v 3.551183 4.603621 4.972801
v 3.585800 4.603621 5.675733
v 3.277948 5.122281 5.013365
v 3.309901 5.122281 5.662212
v 3.309901 5.122281 5.337789
v 3.277948 5.122281 5.986635
v 3.047589 5.425354 5.800161
v 3.047589 5.425354 5.199839
v 3.032807 5.425354 5.950242
v 3.062371 5.425354 5.349919
v 3.062371 5.425354 5.650081
v 3.032807 5.425354 5.049758
v 2.787666 5.728427 5.086151
v 2.814840 5.728427 5.637949
v 2.814840 5.728427 5.362050
v 2.787666 5.728427 5.913849
v 2.501091 5.977153 5.746336
v 2.501092 5.977153 5.253664
v 2.488961 5.977153 5.869504
v 2.513223 5.977153 5.376832
v 2.513223 5.977153 5.623168
v 2.488961 5.977153 5.130496
v -2.476759 5.977243 5.992621
v -3.018025 5.425354 6.100322
v -3.443240 4.776507 6.184903
v -3.736133 4.055548 6.243163
v -2.523633 5.977559 5.501328
v -3.077152 5.425354 5.500000
v -3.510697 4.776507 5.500000
v -3.809328 4.055548 5.500000
v -3.660012 4.430734 5.860480
v -3.885448 3.680361 5.882682
v -2.476555 5.976936 5.007340
v -3.018025 5.425354 4.899677
v -3.443239 4.776507 4.815097
v -3.736133 4.055548 4.756836
v -3.885448 3.680361 5.117316
v -3.660012 4.430734 5.139520
v -3.047588 5.425354 5.199838
v -2.501091 5.977153 5.253664
v -3.047588 5.425354 5.800161
v -2.501091 5.977153 5.746336
v -2.624656 5.852005 6.022102
v -3.139998 5.273818 6.124584
v -3.533874 4.603621 6.202931
v -3.791945 3.867954 6.254264
v -2.676613 5.852618 5.499981
v -3.201514 5.273818 5.500000
v -3.603106 4.603621 5.500000
v -3.866234 3.867954 5.499999
v -2.787266 5.728078 5.913759
v -3.277947 5.122281 5.986634
v -3.642261 4.430734 6.040720
v -3.866603 3.680361 6.074024
v -2.625413 5.852831 4.977740
v -3.139997 5.273818 4.875415
v -3.533874 4.603621 4.797069
v -3.791945 3.867954 4.745734
v -3.866602 3.680361 4.925974
v -2.814902 5.728559 5.362057
v -3.309900 5.122281 5.337788
v -3.677764 4.430734 5.319760
v -2.328457 6.102015 5.963025
v -2.896052 5.576890 6.076060
v -3.352605 4.949394 6.166874
v -3.680321 4.243141 6.232061
v -2.373816 6.101516 5.500000
v -2.952789 5.576890 5.500000
v -3.418287 4.949394 5.500000
v -3.752422 4.243141 5.500000
v -2.814633 5.728380 5.637936
v -3.309900 5.122281 5.662211
v -3.677764 4.430734 5.680240
v -3.904294 3.680361 5.691340
v -2.328087 6.101507 5.036996
v -2.896052 5.576890 4.923939
v -3.352605 4.949394 4.833125
v -3.680320 4.243141 4.767939
v -3.904294 3.680361 5.308657
v -2.787632 5.728419 5.086147
v -3.277947 5.122281 5.013365
v -3.642260 4.430734 4.959280
v -3.754431 4.055548 4.942627
v -3.791029 4.055548 5.314209
v -3.460104 4.776507 4.986322
v -3.493832 4.776507 5.328774
v -3.568490 4.603621 5.148534
v -3.032806 5.425354 5.049758
v -3.062370 5.425354 5.349919
v -3.170756 5.273818 5.187707
v -2.488934 5.977164 5.130515
v -2.513053 5.978425 5.377537
v -3.791029 4.055548 5.685790
v -3.754432 4.055548 6.057372
v -3.493833 4.776507 5.671226
v -3.460104 4.776507 6.013677
v -3.568491 4.603621 5.851465
v -3.062370 5.425354 5.650080
v -3.032807 5.425354 5.950242
v -3.170756 5.273818 5.812292
v -2.513991 5.979112 5.623501
v -2.488921 5.977234 5.869418
v -2.637352 5.851779 5.891543
v -2.662906 5.851656 5.630514
v -2.910236 5.576890 5.932045
v -3.155377 5.273818 5.968438
v -3.186135 5.273818 5.656146
v -3.369026 4.949394 6.000155
v -3.551182 4.603621 6.027198
v -3.585799 4.603621 5.675733
v -3.698346 4.243141 6.049046
v -3.810518 3.867954 6.065698
v -3.847662 3.867954 5.688565
v -2.663366 5.852119 5.369432
v -2.637861 5.852293 5.108334
v -2.938605 5.576890 5.355985
v -3.186135 5.273818 5.343853
v -3.155377 5.273818 5.031561
v -3.401866 4.949394 5.333281
v -3.585798 4.603621 5.324267
v -3.551182 4.603621 4.972801
v -3.734397 4.243141 5.316984
v -3.847661 3.867954 5.311433
v -3.810517 3.867954 4.934300
v -3.698346 4.243141 4.950953
v -3.369025 4.949394 4.999844
v -2.910236 5.576890 5.067954
v -3.734397 4.243141 5.683015
v -3.401866 4.949394 5.666718
v -2.938605 5.576890 5.644015
vn 0.0865 0.4696 -0.8786
vn 0.0815 0.5552 -0.8277
vn 0.1626 0.5528 -0.8173
vn 0.0938 0.2890 -0.9527
vn 0.0893 0.4115 -0.9070
vn 0.0748 0.4691 -0.8800
vn -0.0000 0.0980 -0.9952
vn -0.0000 0.1939 -0.9810
vn 0.0967 0.1624 -0.9820
vn 0.0975 0.0975 -0.9904
vn 0.1035 0.0976 -0.9898
vn 0.1942 0.0980 -0.9761
vn 0.0032 0.9792 -0.2028
vn -0.0000 1.0000 -0.0001
vn 0.0351 0.9792 -0.2000
vn 0.0029 0.9126 -0.4089
vn 0.0483 0.9180 -0.3935
vn -0.0658 0.8394 -0.5394
vn -0.0497 0.9167 -0.3964
vn -0.0023 0.8453 -0.5343
vn 0.0759 0.6326 -0.7708
vn 0.0693 0.7070 -0.7038
vn 0.1374 0.7048 -0.6960
vn 0.1508 0.6344 -0.7582
vn 0.2707 0.7049 -0.6557
vn 0.3189 0.5528 -0.7699
vn 0.4267 0.4691 -0.7732
vn 0.4639 0.0976 -0.8805
vn 0.3808 0.0980 -0.9194
vn 0.0738 0.9794 -0.1877
vn 0.1418 0.9214 -0.3619
vn 0.0665 0.8380 -0.5417
vn 0.2092 0.8293 -0.5181
vn 0.1214 0.7744 -0.6210
vn 0.1045 0.7882 -0.6064
vn 0.1116 0.9796 -0.1672
vn 0.2155 0.9217 -0.3225
vn 0.3110 0.8286 -0.4654
vn 0.3945 0.7041 -0.5905
vn 0.4630 0.5528 -0.6929
vn 0.5138 0.3805 -0.7689
vn 0.5450 0.1939 -0.8157
vn 0.5529 0.0980 -0.8275
vn 0.5021 0.7041 -0.5021
vn 0.5893 0.5528 -0.5893
vn 0.6539 0.3805 -0.6539
vn 0.6937 0.1939 -0.6937
vn 0.7037 0.0980 -0.7037
vn 0.1421 0.9796 -0.1421
vn 0.2743 0.9217 -0.2743
vn 0.3958 0.8286 -0.3958
vn 0.1671 0.9796 -0.1117
vn 0.3225 0.9217 -0.2155
vn 0.4654 0.8286 -0.3110
vn 0.5905 0.7041 -0.3945
vn 0.6929 0.5528 -0.4630
vn 0.7689 0.3805 -0.5138
vn 0.8157 0.1939 -0.5450
vn 0.8275 0.0980 -0.5529
vn 0.7699 0.5528 -0.3189
vn 0.8544 0.3805 -0.3539
vn 0.9063 0.1939 -0.3754
vn 0.9194 0.0980 -0.3808
vn 0.1857 0.9796 -0.0769
vn 0.3584 0.9217 -0.1484
vn 0.5172 0.8286 -0.2142
vn 0.6561 0.7041 -0.2718
vn 0.3804 0.9217 -0.0757
vn 0.5490 0.8286 -0.1092
vn 0.6088 0.7715 -0.1847
vn 0.6222 0.7730 -0.1238
vn 0.6965 0.7041 -0.1385
vn 0.7582 0.6344 -0.1508
vn 0.8173 0.5528 -0.1626
vn 0.8650 0.4714 -0.1721
vn 0.9070 0.3805 -0.1804
vn 0.9386 0.2903 -0.1867
vn 0.9622 0.1939 -0.1914
vn 0.9761 0.0980 -0.1942
vn 0.1971 0.9796 -0.0392
vn 0.9070 0.4115 -0.0893
vn 0.9527 0.2890 -0.0938
vn 0.9820 0.1624 -0.0967
vn 0.9904 0.0975 -0.0975
vn 0.9810 0.1939 -0.0000
vn 0.9952 0.0980 -0.0000
vn 0.2010 0.9796 -0.0000
vn 0.3879 0.9217 -0.0000
vn 0.6344 0.7730 -0.0000
vn 0.5598 0.8286 -0.0000
vn 0.5490 0.8286 0.1092
vn 0.6222 0.7730 0.1238
vn 0.7708 0.6326 -0.0759
vn 0.7038 0.7070 -0.0693
vn 0.7101 0.7041 -0.0000
vn 0.7730 0.6344 -0.0000
vn 0.8786 0.4696 -0.0865
vn 0.8277 0.5552 -0.0815
vn 0.8333 0.5528 -0.0000
vn 0.8819 0.4714 -0.0000
vn 0.3804 0.9217 0.0757
vn 0.7708 0.6326 0.0759
vn 0.7038 0.7070 0.0693
vn 0.6957 0.7054 0.1354
vn 0.7569 0.6373 0.1449
vn 0.8786 0.4696 0.0865
vn 0.8277 0.5552 0.0815
vn 0.8169 0.5567 0.1508
vn 0.8655 0.4764 0.1549
vn 0.9070 0.4115 0.0893
vn 0.9527 0.2890 0.0938
vn 0.9569 0.2903 -0.0000
vn 0.9248 0.3805 -0.0000
vn 0.9820 0.1624 0.0967
vn 0.9904 0.0975 0.0976
vn 0.9642 0.1887 0.1863
vn 0.9761 0.0980 0.1942
vn 0.1971 0.9796 0.0392
vn 0.9436 0.2798 0.1767
vn 0.9106 0.3779 0.1671
vn 0.8556 0.3774 0.3544
vn 0.9081 0.1839 0.3762
vn 0.9194 0.0980 0.3808
vn 0.1857 0.9796 0.0769
vn 0.3587 0.9223 0.1436
vn 0.5205 0.8290 0.2045
vn 0.6088 0.7715 0.1847
vn 0.6577 0.7055 0.2641
vn 0.7655 0.5611 0.3149
vn 0.4637 0.8316 0.3058
vn 0.6080 0.6626 0.4374
vn 0.6831 0.5127 0.5201
vn 0.7247 0.4182 0.5477
vn 0.7936 0.2352 0.5612
vn 0.8282 0.0969 0.5520
vn 0.1671 0.9796 0.1117
vn 0.3191 0.9238 0.2116
vn 0.6802 0.2716 0.6808
vn 0.7039 0.0958 0.7039
vn 0.1421 0.9796 0.1421
vn 0.2690 0.9229 0.2755
vn 0.3885 0.8314 0.3974
vn -0.5450 0.1939 -0.8157
vn -0.6937 0.1939 -0.6937
vn -0.6539 0.3805 -0.6539
vn -0.5138 0.3805 -0.7689
vn 0.5459 0.6323 0.5497
vn -0.0967 0.1624 0.9820
vn -0.0938 0.2890 0.9527
vn -0.1867 0.2903 0.9386
vn -0.1914 0.1939 0.9622
vn 0.5576 0.2398 0.7947
vn 0.5520 0.0969 0.8282
vn 0.1117 0.9796 0.1671
vn 0.2141 0.9219 0.3229
vn 0.3053 0.8320 0.4633
vn 0.3753 0.1912 0.9070
vn 0.3808 0.0980 0.9194
vn 0.0769 0.9796 0.1857
vn 0.1484 0.9217 0.3584
vn 0.2098 0.8298 0.5171
vn 0.2653 0.7038 0.6590
vn 0.4335 0.6640 0.6092
vn 0.3148 0.5534 0.7711
vn 0.5103 0.5098 0.6926
vn 0.3527 0.3801 0.8550
vn 0.5356 0.4198 0.7327
vn 0.1385 0.7041 0.6965
vn 0.1508 0.6344 0.7582
vn 0.1609 0.5538 0.8170
vn 0.1689 0.4735 0.8644
vn 0.1777 0.3804 0.9076
vn 0.1843 0.2878 0.9398
vn 0.1902 0.1927 0.9627
vn 0.1942 0.0980 0.9761
vn 0.0392 0.9796 0.1971
vn 0.0757 0.9217 0.3804
vn 0.1092 0.8286 0.5490
vn 0.1238 0.7730 0.6222
vn -0.0000 0.9796 0.2010
vn -0.0000 0.9217 0.3879
vn -0.0000 0.8286 0.5598
vn -0.0000 0.7730 0.6344
vn 0.0624 0.7715 0.6332
vn 0.0693 0.7070 0.7038
vn 0.0759 0.6326 0.7708
vn 0.0865 0.4696 0.8786
vn 0.0815 0.5552 0.8277
vn -0.0000 0.5528 0.8333
vn -0.0000 0.4714 0.8819
vn 0.0938 0.2890 0.9527
vn 0.0893 0.4115 0.9070
vn -0.0000 0.3805 0.9248
vn -0.0000 0.2903 0.9569
vn 0.0967 0.1624 0.9820
vn 0.0975 0.0975 0.9904
vn -0.0000 0.1939 0.9810
vn -0.0000 0.0980 0.9952
vn -0.0865 0.4696 0.8786
vn -0.0815 0.5552 0.8277
vn -0.1626 0.5528 0.8173
vn -0.1721 0.4714 0.8650
vn -0.1720 0.4714 0.8650
vn -0.0893 0.4115 0.9070
vn -0.1804 0.3805 0.9070
vn -0.0976 0.0975 0.9904
vn -0.1942 0.0980 0.9761
vn -0.0392 0.9796 0.1971
vn -0.0757 0.9217 0.3804
vn -0.1092 0.8286 0.5490
vn -0.1238 0.7730 0.6222
vn -0.0624 0.7715 0.6332
vn -0.0759 0.6326 0.7708
vn -0.0693 0.7070 0.7038
vn -0.1385 0.7041 0.6965
vn -0.1508 0.6344 0.7582
vn -0.0769 0.9796 0.1857
vn -0.1484 0.9217 0.3584
vn -0.2142 0.8286 0.5172
vn -0.2718 0.7041 0.6561
vn -0.3189 0.5528 0.7699
vn -0.3539 0.3805 0.8544
vn -0.3754 0.1939 0.9063
vn -0.3808 0.0980 0.9194
vn -0.4630 0.5528 0.6929
vn -0.5138 0.3805 0.7689
vn -0.5450 0.1939 0.8157
vn -0.5529 0.0980 0.8275
vn -0.1117 0.9796 0.1671
vn -0.2155 0.9217 0.3225
vn -0.3110 0.8286 0.4654
vn -0.3945 0.7041 0.5905
vn -0.2743 0.9217 0.2743
vn -0.3958 0.8286 0.3958
vn -0.5021 0.7041 0.5021
vn -0.5893 0.5528 0.5893
vn -0.6539 0.3805 0.6539
vn -0.6937 0.1939 0.6937
vn -0.7037 0.0980 0.7037
vn -0.1421 0.9796 0.1421
vn -0.8157 0.1939 0.5450
vn -0.8275 0.0980 0.5529
vn -0.1671 0.9796 0.1117
vn -0.3225 0.9217 0.2155
vn -0.4654 0.8286 0.3110
vn -0.7699 0.5528 0.3189
vn -0.6929 0.5528 0.4630
vn -0.5905 0.7041 0.3945
vn -0.6562 0.7040 0.2718
vn -0.8544 0.3805 0.3539
vn -0.7689 0.3805 0.5138
vn -0.9063 0.1939 0.3754
vn -0.9194 0.0980 0.3808
vn -0.1857 0.9796 0.0769
vn -0.3581 0.9217 0.1487
vn -0.9070 0.3805 0.1804
vn -0.9386 0.2903 0.1867
vn -0.9622 0.1939 0.1914
vn -0.9761 0.0980 0.1942
vn -0.1993 0.9794 0.0337
vn -0.3744 0.9242 0.0750
vn -0.5171 0.8286 0.2144
vn -0.5506 0.8261 0.1197
vn -0.6092 0.7712 0.1847
vn -0.6279 0.7677 0.1284
vn -0.6228 0.7727 0.1227
vn -0.6957 0.7051 0.1374
vn -0.8173 0.5528 0.1626
vn -0.7580 0.6347 0.1504
vn -0.7581 0.6344 0.1508
vn -0.8650 0.4714 0.1721
vn -0.7705 0.6329 0.0759
vn -0.7019 0.7087 0.0716
vn -0.7087 0.7055 0.0011
vn -0.7729 0.6346 0.0003
vn -0.8786 0.4696 0.0865
vn -0.8277 0.5552 0.0815
vn -0.8333 0.5528 -0.0000
vn -0.8819 0.4714 -0.0000
vn -0.9527 0.2890 0.0938
vn -0.9070 0.4115 0.0893
vn -0.9248 0.3805 -0.0000
vn -0.9569 0.2903 -0.0000
vn -0.9820 0.1624 0.0967
vn -0.9904 0.0975 0.0975
vn -0.9810 0.1939 -0.0000
vn -0.9952 0.0980 -0.0000
vn -0.2053 0.9787 -0.0005
vn -0.3909 0.9204 -0.0006
vn -0.0016 0.7991 -0.6011
vn -0.1031 0.7908 -0.6033
vn -0.9820 0.1624 -0.0967
vn -0.9904 0.0975 -0.0976
vn -0.9622 0.1939 -0.1914
vn -0.9761 0.0980 -0.1942
vn -0.1996 0.9793 -0.0337
vn -0.3748 0.9240 -0.0765
vn -0.5658 0.8245 -0.0062
vn -0.5507 0.8256 -0.1225
vn -0.7708 0.6326 -0.0759
vn -0.7034 0.7075 -0.0679
vn -0.6964 0.7043 -0.1379
vn -0.7582 0.6344 -0.1508
vn -0.8786 0.4696 -0.0865
vn -0.8277 0.5552 -0.0815
vn -0.8173 0.5528 -0.1626
vn -0.8650 0.4714 -0.1720
vn -0.9527 0.2890 -0.0938
vn -0.9070 0.4115 -0.0893
vn -0.9070 0.3805 -0.1804
vn -0.9386 0.2903 -0.1867
vn -0.6561 0.7040 -0.2717
vn -0.7699 0.5528 -0.3189
vn -0.8544 0.3805 -0.3539
vn -0.9063 0.1939 -0.3754
vn -0.9194 0.0980 -0.3808
vn -0.1859 0.9796 -0.0765
vn -0.3581 0.9219 -0.1481
vn -0.5171 0.8286 -0.2143
vn -0.6223 0.7731 -0.1227
vn -0.6277 0.7676 -0.1297
vn -0.6090 0.7714 -0.1846
vn -0.1671 0.9796 -0.1117
vn -0.3225 0.9217 -0.2155
vn -0.4654 0.8286 -0.3110
vn -0.5905 0.7041 -0.3945
vn -0.6929 0.5528 -0.4630
vn -0.7689 0.3805 -0.5138
vn -0.8157 0.1939 -0.5450
vn -0.8275 0.0980 -0.5529
vn -0.5021 0.7041 -0.5021
vn -0.5893 0.5528 -0.5893
vn -0.3945 0.7041 -0.5905
vn -0.4630 0.5528 -0.6929
vn -0.7037 0.0980 -0.7037
vn -0.1421 0.9796 -0.1421
vn -0.2743 0.9217 -0.2742
vn -0.3958 0.8286 -0.3958
vn -0.1110 0.9797 -0.1670
vn -0.2153 0.9218 -0.3224
vn -0.3110 0.8286 -0.4654
vn -0.5529 0.0980 -0.8275
vn -0.3189 0.5528 -0.7699
vn -0.3539 0.3805 -0.8544
vn -0.3754 0.1939 -0.9063
vn -0.3808 0.0980 -0.9194
vn -0.0774 0.9792 -0.1874
vn -0.1457 0.9207 -0.3621
vn -0.2085 0.8285 -0.5197
vn -0.2692 0.7060 -0.6551
vn -0.0354 0.9795 -0.1985
vn -0.1359 0.7058 -0.6953
vn -0.1508 0.6344 -0.7582
vn -0.1626 0.5528 -0.8173
vn -0.1721 0.4714 -0.8650
vn -0.1804 0.3805 -0.9070
vn -0.2563 0.4696 -0.8448
vn -0.1914 0.1939 -0.9622
vn -0.1942 0.0980 -0.9761
vn -0.0865 0.4696 -0.8786
vn -0.0815 0.5552 -0.8277
vn -0.0000 0.5528 -0.8333
vn -0.0000 0.4714 -0.8819
vn -0.0938 0.2890 -0.9527
vn -0.0893 0.4115 -0.9070
vn -0.0000 0.3805 -0.9248
vn -0.0000 0.2903 -0.9569
vn -0.0967 0.1624 -0.9820
vn -0.0976 0.0975 -0.9904
vn -0.0759 0.6326 -0.7708
vn -0.0693 0.7070 -0.7038
vn -0.0000 0.7041 -0.7101
vn -0.0000 0.6344 -0.7730
vn -0.0216 0.9755 -0.2189
vn 0.0624 0.7715 -0.6332
vn -0.0280 -0.5688 -0.8220
vn -0.0000 0.6344 0.7730
vn -0.0000 0.7041 0.7101
vn 0.6332 0.7715 0.0624
vn 0.6332 0.7715 -0.0624
vn -0.6331 0.7717 -0.0604
vn -0.6340 0.7709 -0.0611
vn -0.7708 0.6326 0.0759
vn -0.7730 0.6344 -0.0000
vn -0.6349 0.7701 0.0619
vn -0.6397 0.7665 0.0573
vn -0.6467 0.7627 0.0004
vn -0.6350 0.7725 0.0005
vn -0.6342 0.7708 0.0606
vn -0.7018 0.7092 0.0669
vn -0.6383 0.7673 0.0618
vn -0.7704 0.6332 0.0751
vn -0.6333 0.7715 -0.0608
vn -0.7027 0.7081 -0.0693
vn -0.6358 0.7697 -0.0585
vn -0.7708 0.6326 -0.0754
vn -0.0560 -0.8956 -0.4413
vt 0.726562 0.656250
vt 0.726562 0.687500
vt 0.718750 0.687500
vt 0.718750 0.656250
vt 0.726562 0.593750
vt 0.726562 0.625000
vt 0.718750 0.625000
vt 0.718750 0.593750
vt 0.750000 0.500000
vt 0.750000 0.562500
vt 0.742188 0.562500
vt 0.734375 0.562500
vt 0.726562 0.562500
vt 0.718750 0.562500
vt 0.718750 0.500000
vt 0.750000 0.937500
vt 0.734375 1.000000
vt 0.718750 0.937500
vt 0.750000 0.875000
vt 0.718750 0.875000
vt 0.781250 0.812500
vt 0.781250 0.875000
vt 0.000000 0.000000
vt 0.726562 0.718750
vt 0.726562 0.750000
vt 0.718750 0.750000
vt 0.718750 0.734375
vt 0.718750 0.718750
vt 0.718750 0.703125
vt 0.687500 0.750000
vt 0.687500 0.687500
vt 0.687500 0.562500
vt 0.687500 0.500000
vt 0.703125 1.000000
vt 0.687500 0.937500
vt 0.687500 0.875000
vt 0.718750 0.812500
vt 0.687500 0.812500
vt 0.718750 0.765625
vt 0.718750 0.781250
vt 0.671875 1.000000
vt 0.656250 0.937500
vt 0.656250 0.875000
vt 0.656250 0.812500
vt 0.656250 0.750000
vt 0.656250 0.687500
vt 0.687500 0.625000
vt 0.656250 0.625000
vt 0.656250 0.562500
vt 0.656250 0.500000
vt 0.625000 0.750000
vt 0.625000 0.687500
vt 0.625000 0.625000
vt 0.625000 0.562500
vt 0.625000 0.500000
vt 0.640625 1.000000
vt 0.625000 0.937500
vt 0.625000 0.875000
vt 0.625000 0.812500
vt 0.593750 0.937500
vt 0.593750 0.875000
vt 0.593750 0.812500
vt 0.593750 0.750000
vt 0.593750 0.687500
vt 0.593750 0.625000
vt 0.593750 0.562500
vt 0.593750 0.500000
vt 0.609375 1.000000
vt 0.562500 0.687500
vt 0.562500 0.625000
vt 0.562500 0.562500
vt 0.562500 0.500000
vt 0.578125 1.000000
vt 0.562500 0.937500
vt 0.562500 0.875000
vt 0.562500 0.812500
vt 0.562500 0.750000
vt 0.531250 0.875000
vt 0.531250 0.812500
vt 0.531250 0.796875
vt 0.531250 0.781250
vt 0.531250 0.765625
vt 0.531250 0.750000
vt 0.531250 0.734375
vt 0.531250 0.718750
vt 0.531250 0.703125
vt 0.531250 0.687500
vt 0.531250 0.671875
vt 0.531250 0.656250
vt 0.531250 0.640625
vt 0.531250 0.625000
vt 0.531250 0.609375
vt 0.531250 0.593750
vt 0.531250 0.578125
vt 0.531250 0.562500
vt 0.531250 0.500000
vt 0.546875 1.000000
vt 0.531250 0.937500
vt 0.523438 0.625000
vt 0.523438 0.593750
vt 0.523438 0.562500
vt 0.515625 0.562500
vt 0.507812 0.562500
vt 0.500000 0.562500
vt 0.500000 0.500000
vt 0.515625 1.000000
vt 0.500000 0.937500
vt 0.500000 0.875000
vt 0.468750 0.812500
vt 0.507812 0.718750
vt 0.507812 0.750000
vt 0.500000 0.750000
vt 0.500000 0.734375
vt 0.500000 0.718750
vt 0.507812 0.640625
vt 0.507812 0.687500
vt 0.500000 0.687500
vt 0.500000 0.671875
vt 0.500000 0.656250
vt 0.500000 0.640625
vt 0.500000 0.812500
vt 0.468750 0.875000
vt 0.476562 0.718750
vt 0.476562 0.750000
vt 0.468750 0.750000
vt 0.468750 0.734375
vt 0.468750 0.718750
vt 0.476562 0.640625
vt 0.476562 0.687500
vt 0.468750 0.687500
vt 0.468750 0.671875
vt 0.468750 0.656250
vt 0.468750 0.640625
vt 0.492188 0.625000
vt 0.492188 0.593750
vt 0.500000 0.593750
vt 0.500000 0.609375
vt 0.500000 0.625000
vt 0.492188 0.562500
vt 0.484375 0.562500
vt 0.476562 0.562500
vt 0.468750 0.562500
vt 0.468750 0.500000
vt 0.484375 1.000000
vt 0.468750 0.937500
vt 0.468750 0.578125
vt 0.468750 0.593750
vt 0.468750 0.609375
vt 0.468750 0.625000
vt 0.437500 0.625000
vt 0.437500 0.562500
vt 0.437500 0.500000
vt 0.453125 1.000000
vt 0.437500 0.937500
vt 0.437500 0.875000
vt 0.437500 0.812500
vt 0.468750 0.765625
vt 0.468750 0.781250
vt 0.468750 0.796875
vt 0.437500 0.750000
vt 0.468750 0.703125
vt 0.437500 0.687500
vt 0.406250 0.812500
vt 0.406250 0.750000
vt 0.406250 0.687500
vt 0.406250 0.562500
vt 0.406250 0.500000
vt 0.421875 1.000000
vt 0.406250 0.937500
vt 0.406250 0.875000
vt 0.375000 0.562500
vt 0.375000 0.500000
vt 0.390625 1.000000
vt 0.375000 0.937500
vt 0.375000 0.875000
vt 0.843750 0.562500
vt 0.843750 0.625000
vt 0.226562 0.562500
vt 0.226562 0.593750
vt 0.218750 0.593750
vt 0.218750 0.562500
vt 0.343750 0.562500
vt 0.343750 0.500000
vt 0.359375 1.000000
vt 0.343750 0.937500
vt 0.343750 0.875000
vt 0.312500 0.562500
vt 0.312500 0.500000
vt 0.328125 1.000000
vt 0.312500 0.937500
vt 0.312500 0.875000
vt 0.343750 0.812500
vt 0.312500 0.812500
vt 0.312500 0.750000
vt 0.343750 0.750000
vt 0.312500 0.687500
vt 0.312500 0.625000
vt 0.343750 0.625000
vt 0.281250 0.750000
vt 0.281250 0.734375
vt 0.281250 0.718750
vt 0.281250 0.703125
vt 0.281250 0.687500
vt 0.281250 0.671875
vt 0.281250 0.656250
vt 0.281250 0.640625
vt 0.281250 0.625000
vt 0.281250 0.593750
vt 0.281250 0.562500
vt 0.281250 0.500000
vt 0.296875 1.000000
vt 0.281250 0.937500
vt 0.281250 0.875000
vt 0.281250 0.812500
vt 0.281250 0.796875
vt 0.281250 0.781250
vt 0.281250 0.765625
vt 0.250000 0.937500
vt 0.250000 0.875000
vt 0.250000 0.812500
vt 0.250000 0.781250
vt 0.257812 0.781250
vt 0.265625 0.781250
vt 0.273438 0.781250
vt 0.273438 0.750000
vt 0.273438 0.734375
vt 0.257812 0.640625
vt 0.257812 0.687500
vt 0.250000 0.687500
vt 0.250000 0.671875
vt 0.250000 0.656250
vt 0.250000 0.640625
vt 0.257812 0.593750
vt 0.257812 0.625000
vt 0.250000 0.625000
vt 0.250000 0.593750
vt 0.273438 0.562500
vt 0.265625 0.562500
vt 0.257812 0.562500
vt 0.250000 0.562500
vt 0.250000 0.500000
vt 0.265625 1.000000
vt 0.226562 0.640625
vt 0.226562 0.687500
vt 0.218750 0.687500
vt 0.218750 0.671875
vt 0.218750 0.656250
vt 0.218750 0.640625
vt 0.226562 0.625000
vt 0.218750 0.625000
vt 0.242187 0.562500
vt 0.234375 0.562500
vt 0.218750 0.500000
vt 0.234375 1.000000
vt 0.218750 0.937500
vt 0.218750 0.875000
vt 0.218750 0.812500
vt 0.218750 0.781250
vt 0.226562 0.781250
vt 0.234375 0.781250
vt 0.242188 0.781250
vt 0.226562 0.734375
vt 0.226562 0.750000
vt 0.218750 0.750000
vt 0.218750 0.734375
vt 0.187500 0.937500
vt 0.187500 0.875000
vt 0.187500 0.812500
vt 0.187500 0.750000
vt 0.218750 0.703125
vt 0.218750 0.718750
vt 0.187500 0.687500
vt 0.187500 0.625000
vt 0.187500 0.562500
vt 0.187500 0.500000
vt 0.203125 1.000000
vt 0.156250 0.687500
vt 0.156250 0.625000
vt 0.156250 0.562500
vt 0.156250 0.500000
vt 0.171875 1.000000
vt 0.156250 0.937500
vt 0.156250 0.875000
vt 0.156250 0.812500
vt 0.156250 0.750000
vt 0.125000 0.875000
vt 0.125000 0.812500
vt 0.125000 0.750000
vt 0.125000 0.687500
vt 0.125000 0.562500
vt 0.125000 0.500000
vt 0.140625 1.000000
vt 0.125000 0.937500
vt 0.093750 0.562500
vt 0.093750 0.500000
vt 0.109375 1.000000
vt 0.093750 0.937500
vt 0.093750 0.875000
vt 0.093750 0.812500
vt 0.062500 0.750000
vt 0.062500 0.562500
vt 0.062500 0.500000
vt 0.078125 1.000000
vt 0.062500 0.937500
vt 0.062500 0.875000
vt 0.062500 0.625000
vt 0.031250 0.625000
vt 0.031250 0.609375
vt 0.031250 0.593750
vt 0.031250 0.578125
vt 0.031250 0.562500
vt 0.031250 0.500000
vt 0.046875 1.000000
vt 0.031250 0.937500
vt 0.031250 0.875000
vt 0.062500 0.812500
vt 0.031250 0.812500
vt 0.031250 0.796875
vt 0.031250 0.781250
vt 0.031250 0.765625
vt 0.031250 0.750000
vt 0.031250 0.687500
vt 0.062500 0.687500
vt 0.031250 0.734375
vt 0.031250 0.718750
vt 0.031250 0.703125
vt 0.031250 0.671875
vt 0.031250 0.656250
vt 0.031250 0.640625
vt 0.007812 0.734375
vt 0.007812 0.750000
vt 0.000000 0.750000
vt 0.000000 0.734375
vt 0.007812 0.671875
vt 0.007812 0.687500
vt 0.000000 0.687500
vt 0.000000 0.671875
vt 0.007812 0.609375
vt 0.007812 0.625000
vt 0.000000 0.625000
vt 0.000000 0.609375
vt 0.023437 0.562500
vt 0.015625 0.562500
vt 0.007812 0.562500
vt 0.000000 0.562500
vt 0.000000 0.500000
vt 0.015625 1.000000
vt 0.000000 0.937500
vt 0.000000 0.875000
vt 0.750000 0.781250
vt 0.781250 0.781250
vt 1.000000 0.500000
vt 1.000000 0.562500
vt 0.992188 0.562500
vt 0.984375 0.562500
vt 0.976562 0.562500
vt 0.968750 0.562500
vt 0.968750 0.500000
vt 1.000000 0.937500
vt 0.984375 1.000000
vt 0.968750 0.937500
vt 1.000000 0.875000
vt 0.968750 0.875000
vt 0.976562 0.734375
vt 0.976562 0.750000
vt 0.968750 0.750000
vt 0.968750 0.734375
vt 0.976562 0.671875
vt 0.976562 0.687500
vt 0.968750 0.687500
vt 0.968750 0.671875
vt 0.976562 0.609375
vt 0.976562 0.625000
vt 0.968750 0.625000
vt 0.968750 0.609375
vt 0.968750 0.703125
vt 0.968750 0.718750
vt 0.937500 0.750000
vt 0.937500 0.687500
vt 0.968750 0.640625
vt 0.968750 0.656250
vt 0.937500 0.625000
vt 0.968750 0.578125
vt 0.968750 0.593750
vt 0.937500 0.562500
vt 0.937500 0.500000
vt 0.953125 1.000000
vt 0.937500 0.937500
vt 0.937500 0.875000
vt 0.968750 0.812500
vt 0.937500 0.812500
vt 0.968750 0.765625
vt 0.968750 0.781250
vt 0.968750 0.796875
vt 0.921875 1.000000
vt 0.906250 0.937500
vt 0.906250 0.875000
vt 0.906250 0.812500
vt 0.906250 0.750000
vt 0.906250 0.687500
vt 0.906250 0.625000
vt 0.906250 0.562500
vt 0.906250 0.500000
vt 0.875000 0.750000
vt 0.843750 0.750000
vt 0.843750 0.687500
vt 0.242188 0.640625
vt 0.242188 0.625000
vt 0.875000 0.562500
vt 0.875000 0.500000
vt 0.890625 1.000000
vt 0.875000 0.937500
vt 0.875000 0.875000
vt 0.875000 0.812500
vt 0.843750 0.937500
vt 0.843750 0.875000
vt 0.843750 0.812500
vt 0.242187 0.687500
vt 0.843750 0.500000
vt 0.859375 1.000000
vt 0.812500 0.687500
vt 0.812500 0.562500
vt 0.812500 0.500000
vt 0.828125 1.000000
vt 0.812500 0.937500
vt 0.812500 0.875000
vt 0.812500 0.812500
vt 0.812500 0.750000
vt 0.781250 0.937500
vt 0.781250 0.750000
vt 0.781250 0.734375
vt 0.781250 0.718750
vt 0.781250 0.703125
vt 0.781250 0.687500
vt 0.812500 0.625000
vt 0.781250 0.656250
vt 0.781250 0.640625
vt 0.781250 0.625000
vt 0.796875 0.625000
vt 0.781250 0.562500
vt 0.781250 0.500000
vt 0.796875 1.000000
vt 0.757812 0.656250
vt 0.757812 0.687500
vt 0.750000 0.687500
vt 0.750000 0.656250
vt 0.757812 0.593750
vt 0.757812 0.625000
vt 0.750000 0.625000
vt 0.750000 0.593750
vt 0.773438 0.562500
vt 0.765625 0.562500
vt 0.757812 0.562500
vt 0.765625 1.000000
vt 0.757812 0.718750
vt 0.757812 0.750000
vt 0.750000 0.750000
vt 0.750000 0.734375
vt 0.750000 0.718750
vt 0.273438 0.625000
vt 0.273438 0.640625
vt 0.265625 0.625000
vt 0.757809 0.578555
vt 0.750000 0.578984
vt 0.726562 0.578125
vt 0.718750 0.578125
vt 0.742188 0.593750
vt 0.742188 0.578555
vt 0.742188 0.625000
vt 0.781250 0.593750
vt 0.773438 0.625000
vt 0.773438 0.593750
vt 0.726562 0.640625
vt 0.718750 0.640625
vt 0.757812 0.640625
vt 0.750000 0.640625
vt 0.742188 0.640625
vt 0.734375 0.640625
vt 0.734375 0.625000
vt 0.742188 0.656250
vt 0.742188 0.687500
vt 0.773438 0.687500
vt 0.773438 0.656250
vt 0.773438 0.640625
vt 0.765625 0.625000
vt 0.765625 0.640625
vt 0.773438 0.750000
vt 0.773438 0.718750
vt 0.742188 0.750000
vt 0.742188 0.718750
vt 0.773438 0.703125
vt 0.757812 0.703125
vt 0.750000 0.703125
vt 0.742188 0.703125
vt 0.726562 0.703125
vt 0.734375 0.703125
vt 0.734375 0.718750
vt 0.765625 0.703125
vt 0.765625 0.718750
vt 0.757812 0.781250
vt 0.773438 0.781250
vt 0.726562 0.765625
vt 0.742188 0.781250
vt 0.726562 0.781250
vt 0.273438 0.593750
vt 0.234375 0.625000
vt 0.242188 0.593750
vt 0.273438 0.687500
vt 0.257812 0.703125
vt 0.250000 0.703125
vt 0.226562 0.703125
vt 0.273438 0.703125
vt 0.242187 0.703125
vt 0.226562 0.718750
vt 0.250000 0.718750
vt 0.242188 0.718750
vt 0.257812 0.718750
vt 0.257812 0.734375
vt 0.250000 0.734375
vt 0.242188 0.734375
vt 0.250000 0.750000
vt 0.242188 0.750000
vt 0.257812 0.750000
vt 0.273438 0.718750
vt 0.476562 0.593750
vt 0.507812 0.593750
vt 0.500000 0.578125
vt 0.476562 0.625000
vt 0.507812 0.625000
vt 0.523438 0.640625
vt 0.515625 0.640625
vt 0.515625 0.625000
vt 0.492188 0.640625
vt 0.484375 0.640625
vt 0.484375 0.625000
vt 0.507812 0.703125
vt 0.500000 0.703125
vt 0.476562 0.703125
vt 0.492187 0.687500
vt 0.492188 0.703125
vt 0.523438 0.687500
vt 0.523438 0.703125
vt 0.492188 0.718750
vt 0.484375 0.718750
vt 0.484375 0.703125
vt 0.523438 0.718750
vt 0.515625 0.718750
vt 0.515625 0.703125
vt 0.476562 0.781250
vt 0.507812 0.781250
vt 0.500000 0.781250
vt 0.500000 0.765625
vt 0.492188 0.750000
vt 0.492188 0.781250
vt 0.523438 0.750000
vt 0.523438 0.781250
vt 0.976562 0.578125
vt 0.976562 0.593750
vt 0.976562 0.640625
vt 0.976562 0.656250
vt 0.976562 0.703125
vt 0.976562 0.718750
vt 0.992188 0.703125
vt 0.992188 0.718750
vt 0.984375 0.718750
vt 0.984375 0.703125
vt 0.976562 0.765625
vt 0.976562 0.781250
vt 0.007812 0.578125
vt 0.007812 0.593750
vt 0.000000 0.593750
vt 0.000000 0.578125
vt 0.007812 0.640625
vt 0.007812 0.656250
vt 0.000000 0.656250
vt 0.000000 0.640625
vt 0.007812 0.703125
vt 0.007812 0.718750
vt 0.000000 0.718750
vt 0.000000 0.703125
vt 0.023437 0.703125
vt 0.023437 0.718750
vt 0.015625 0.718750
vt 0.015625 0.703125
vt 0.007812 0.765625
vt 0.007812 0.781250
vt 0.000000 0.781250
vt 0.000000 0.765625
vt 0.023437 0.765625
vt 0.023438 0.750000
vt 0.023437 0.781250
vt 0.023437 0.734375
vt 0.023437 0.687500
vt 0.023437 0.671875
vt 0.023437 0.656250
vt 0.023438 0.625000
vt 0.023437 0.640625
vt 0.015625 0.640625
vt 0.015625 0.625000
vt 0.023437 0.609375
vt 0.023437 0.593750
vt 0.023437 0.578125
vt 1.000000 0.750000
vt 1.000000 0.765625
vt 0.992188 0.765625
vt 0.992188 0.750000
vt 1.000000 0.781250
vt 0.992188 0.781250
vt 1.000000 0.718750
vt 1.000000 0.734375
vt 0.992188 0.734375
vt 1.000000 0.687500
vt 1.000000 0.703125
vt 0.992188 0.687500
vt 1.000000 0.656250
vt 1.000000 0.671875
vt 0.992188 0.671875
vt 0.992188 0.656250
vt 0.992188 0.625000
vt 0.992188 0.640625
vt 0.984375 0.640625
vt 0.984375 0.625000
vt 1.000000 0.625000
vt 1.000000 0.640625
vt 1.000000 0.593750
vt 1.000000 0.609375
vt 0.992188 0.609375
vt 0.992188 0.593750
vt 1.000000 0.578125
vt 0.992188 0.578125
s 1
usemtl Material.011
f 379/90/25 373/91/26 85/92/27 367/93/25
f 358/94/28 360/95/29 86/96/30 345/97/28
f 80/98/31 79/99/32 353/100/33 346/101/34 357/102/33 87/103/35 88/104/36
f 330/105/37 121/106/38 81/107/39
f 331/108/40 330/105/37 81/107/39 82/109/41
f 324/110/42 323/111/43 331/108/40 77/112/44
f 409/113/45 390/114/46 84/115/47 393/116/48 391/117/48
f 85/92/27 392/118/48 391/117/48 393/116/48 84/115/47 92/119/49 93/120/50
f 94/112/51 86/112/30 85/92/27 93/120/50
f 87/112/35 95/112/52 94/112/51 86/112/30
f 88/104/36 87/112/35 95/121/52 96/122/53
f 81/107/39 121/123/38 89/124/54
f 82/109/41 81/107/39 89/124/54 90/125/55
f 83/126/56 82/109/41 90/125/55 91/127/57
f 84/115/47 413/128/58 369/129/59 83/126/56 91/127/57 92/119/49
f 89/124/54 121/130/38 97/131/60
f 90/125/55 89/124/54 97/131/60 98/132/61
f 91/127/57 90/125/55 98/132/61 99/133/62
f 92/119/49 91/127/57 99/133/62 100/134/63
f 93/120/50 92/119/49 100/134/63 101/135/64
f 94/136/51 93/120/50 101/135/64 102/137/65
f 102/137/65 103/138/66 95/112/52 94/136/51
f 96/122/53 95/121/52 103/138/66 104/139/67
f 101/135/64 100/134/63 108/140/68 109/141/69
f 102/137/65 101/135/64 109/141/69 110/142/70
f 103/138/66 102/137/65 110/142/70 111/143/71
f 104/139/67 103/138/66 111/143/71 112/144/72
f 97/131/60 121/145/38 105/146/73
f 98/132/61 97/131/60 105/146/73 106/147/74
f 99/133/62 98/132/61 106/147/74 107/148/75
f 100/134/63 99/133/62 107/148/75 108/140/68
f 106/147/74 105/146/73 113/149/76 114/150/77
f 107/148/75 106/147/74 114/150/77 115/151/78
f 108/140/68 107/148/75 115/151/78 116/152/79
f 109/141/69 108/140/68 116/152/79 117/153/80
f 110/142/70 109/141/69 117/153/80 118/154/81
f 111/143/71 110/142/70 118/154/81 119/155/82
f 112/144/72 111/143/71 119/155/82 120/156/83
f 105/146/73 121/157/38 113/149/76
f 118/154/81 117/153/80 126/158/84 127/159/85
f 119/155/82 118/154/81 127/159/85 128/160/86
f 120/156/83 119/155/82 128/160/86 129/161/87
f 113/149/76 121/162/38 122/163/88
f 114/150/77 113/149/76 122/163/88 123/164/89
f 115/151/78 114/150/77 123/164/89 124/165/90
f 116/152/79 115/151/78 124/165/90 125/166/91
f 117/153/80 116/152/79 125/166/91 126/158/84
f 124/165/90 123/164/89 131/167/92 132/168/93
f 125/166/91 124/165/90 132/168/93 507/169/94 499/170/95 503/171/95 133/172/96
f 126/158/84 125/166/91 133/172/96 508/173/97 500/174/97 504/175/97 134/176/98
f 127/159/85 126/158/84 134/176/98 509/177/99 501/178/99 505/179/99 135/180/100
f 128/160/86 127/159/85 135/180/100 510/181/101 502/182/101 506/183/101 136/184/102
f 129/161/87 128/160/86 136/184/102 137/185/103
f 122/163/88 121/186/38 130/187/104
f 123/164/89 122/163/88 130/187/104 131/167/92
f 533/188/105 538/189/106 502/182/101 510/181/101 135/180/100
f 137/185/103 136/184/102 525/190/107 523/191/108 527/192/107 144/193/109 145/194/110
f 130/187/104 121/195/38 138/196/111
f 131/167/92 130/187/104 138/196/111 139/197/112
f 468/112/113 499/112/95 132/112/93 140/112/114
f 140/112/114 148/198/115 511/112/116 468/112/113
f 558/199/117 563/200/118 141/201/119 496/202/120 488/203/120
f 547/204/121 553/205/122 142/206/123 497/207/124 489/208/124 493/209/124
f 140/210/114 139/197/112 147/211/125 148/198/115
f 132/112/93 131/167/92 139/197/112 140/112/114
f 557/212/126 564/213/127 149/214/128 520/215/129 512/216/129
f 548/217/130 554/218/131 150/219/132 521/220/133 513/221/133 517/222/133
f 532/223/134 536/224/135 490/225/136 498/226/136 143/227/137
f 145/194/110 144/193/109 526/228/138 524/229/139 528/230/138 152/231/140 153/232/141
f 138/196/111 121/233/38 146/234/142
f 139/197/112 138/196/111 146/234/142 147/211/125
f 152/231/140 518/235/143 514/236/143 522/237/143 151/238/144 159/239/145 160/240/146
f 153/232/141 152/231/140 160/240/146 161/241/147
f 146/234/142 121/242/38 154/243/148
f 147/211/125 146/234/142 154/243/148 155/244/149
f 148/198/115 147/211/125 155/244/149 156/245/150
f 149/214/128 515/246/116 511/247/116 519/248/151 148/198/115 156/245/150 157/249/152
f 150/219/132 516/250/129 512/216/129 520/215/129 149/214/128 157/249/152 158/251/153
f 151/238/144 517/222/133 513/221/133 521/220/133 150/219/132 158/251/153 159/239/145
f 156/245/150 164/252/154 165/112/155 157/249/152
f 158/251/153 157/249/152 165/253/155 166/254/156
f 158/251/153 166/254/156 167/112/157 159/239/145
f 160/240/146 159/239/145 167/112/157 168/255/158
f 161/241/147 160/240/146 168/255/158 169/256/159
f 154/243/148 121/257/38 162/258/160
f 155/244/149 154/243/148 162/258/160 163/259/161
f 156/245/150 155/244/149 163/259/161 164/252/154
f 169/256/159 168/112/158 176/260/162 177/261/163
f 162/258/160 121/262/38 170/263/164
f 163/259/161 162/258/160 170/263/164 171/264/165
f 164/112/154 163/259/161 171/264/165 172/112/166
f 312/265/167 304/112/168 303/112/169 311/266/170
f 173/112/171 165/112/155 164/112/154 172/112/166
f 427/267/172 429/268/173 339/269/174 216/270/175
f 177/261/163 176/112/162 184/271/176 185/272/177
f 170/263/164 121/273/38 178/274/178
f 171/264/165 170/263/164 178/274/178 179/275/179
f 172/112/166 171/264/165 179/275/179 180/112/180
f 185/272/177 184/271/176 192/276/181 193/277/182
f 178/274/178 121/278/38 186/279/183
f 179/275/179 178/274/178 186/279/183 187/280/184
f 180/281/180 179/275/179 187/280/184 188/282/185
f 189/283/186 181/284/187 180/112/180 188/282/185
f 189/283/186 190/285/188 182/112/189 181/284/187
f 191/286/190 192/276/181 184/112/176 183/287/191
f 190/285/188 189/283/186 197/288/192 458/289/193 456/290/193 457/291/193 198/292/194
f 191/286/190 190/285/188 198/292/194 443/293/195 441/294/195 442/295/195 199/296/196
f 192/276/181 191/286/190 199/296/196 337/297/197 200/298/198
f 193/277/182 192/276/181 200/298/198 201/299/199
f 186/279/183 121/300/38 194/301/200
f 187/280/184 186/279/183 194/301/200 195/302/201
f 188/282/185 187/280/184 195/302/201 196/303/202
f 189/283/186 188/282/185 196/303/202 482/304/203 480/305/203 481/306/203 197/288/192
f 195/302/201 194/301/200 202/307/204 203/308/205
f 196/303/202 195/302/201 203/308/205 204/309/206
f 476/310/207 484/311/208 483/312/208 485/313/208 480/305/203 482/304/203 196/303/202 204/309/206
f 471/314/209 487/315/210 458/289/193 197/288/192
f 448/316/211 445/317/212 206/318/213 440/319/214 438/320/214 439/321/214
f 426/322/215 422/323/216 207/324/217 340/325/218
f 201/299/199 200/298/198 430/326/219 338/327/220 424/328/219 208/329/221 209/330/222
f 194/301/200 121/331/38 202/307/204
f 447/332/223 433/333/224 214/334/225 437/335/226 435/336/226 436/337/227
f 429/268/173 428/338/228 215/339/229 339/269/174
f 209/330/222 208/329/221 423/340/172 335/341/230 427/267/172 216/270/175 217/342/231
f 202/307/204 121/343/38 210/344/232
f 203/308/205 202/307/204 210/344/232 211/345/233
f 204/309/206 203/308/205 211/345/233 212/346/234
f 476/310/207 204/309/206 212/346/234 473/347/235 478/348/236 477/349/236 479/350/236
f 474/351/237 467/352/238 213/353/239 455/354/240
f 211/345/233 210/344/232 218/355/241 219/356/242
f 212/346/234 211/345/233 219/356/242 220/357/243
f 213/353/239 473/347/235 212/346/234 220/357/243 221/358/244
f 214/334/225 454/359/240 453/360/240 455/354/240 213/353/239 221/358/244 222/361/245
f 215/339/229 436/337/227 435/336/226 437/335/226 214/334/225 222/361/245 223/362/246
f 216/270/175 339/269/174 215/339/229 223/362/246 224/363/247
f 217/342/231 216/270/175 224/363/247 225/364/248
f 210/344/232 121/365/38 218/355/241
f 223/362/246 222/361/245 230/366/249 231/367/250
f 224/363/247 223/362/246 231/367/250 232/368/251
f 225/364/248 224/363/247 232/368/251 233/369/252
f 218/355/241 121/370/38 226/371/253
f 219/356/242 218/355/241 226/371/253 227/372/254
f 220/357/243 219/356/242 227/372/254 228/373/255
f 221/358/244 220/357/243 228/373/255 229/374/256
f 222/361/245 221/358/244 229/374/256 230/366/249
f 228/373/255 227/372/254 235/375/257 236/376/258
f 229/374/256 228/373/255 236/376/258 237/377/259
f 230/366/249 229/374/256 237/377/259 238/378/260
f 230/366/249 238/378/260 239/112/261 231/367/250
f 231/367/250 239/112/261 240/112/262 232/368/251
f 233/369/252 232/368/251 240/379/262 241/380/263
f 226/371/253 121/381/38 234/382/264
f 227/372/254 226/371/253 234/382/264 235/375/257
f 241/380/263 240/112/262 248/383/265 249/384/266
f 234/382/264 121/385/38 242/386/267
f 235/375/257 234/382/264 242/386/267 243/387/268
f 236/376/258 235/375/257 243/387/268 244/388/269
f 254/112/270 246/112/271 245/112/272 253/389/273
f 237/377/259 245/112/272 246/112/271 238/378/260
f 255/112/274 247/112/275 246/112/271 254/112/270
f 249/384/266 248/112/265 256/390/276 257/391/277
f 242/386/267 121/392/38 250/393/278
f 243/387/268 242/386/267 250/393/278 251/394/279
f 256/390/276 255/395/274 263/396/280 614/397/281 574/398/281 594/399/281 264/400/282
f 257/391/277 256/390/276 264/400/282 265/401/283
f 250/393/278 121/402/38 258/403/284
f 251/394/279 250/393/278 258/403/284 259/404/285
f 252/405/286 251/394/279 259/404/285 260/406/287
f 253/389/273 252/405/286 260/406/287 611/407/288 571/408/289 591/409/290 261/410/291
f 262/411/292 254/412/270 253/389/273 261/410/291 612/413/293 572/414/294 592/415/294
f 263/396/280 255/395/274 254/112/270 262/411/292 613/416/295 573/417/295 593/418/295
f 678/419/296 619/420/297 269/421/298 616/422/299
f 677/423/300 620/424/301 270/425/302 617/426/303
f 676/427/304 621/428/305 271/429/306 618/430/307
f 265/401/283 264/400/282 602/431/308 580/432/309 622/433/308 272/434/310 273/435/311
f 258/403/284 121/436/38 266/437/312
f 259/404/285 258/403/284 266/437/312 267/438/313
f 406/439/314 418/440/315 324/110/42 77/112/44
f 273/441/311 272/442/310 627/443/316 585/444/317 607/445/316 280/446/318 281/447/319
f 266/448/312 121/449/38 274/450/320
f 267/451/313 266/448/312 274/450/320 275/452/321
f 268/112/322 267/451/313 275/452/321 276/112/323
f 675/453/324 628/454/325 277/455/326 624/456/327
f 674/457/328 629/458/329 278/459/330 625/460/331
f 673/461/332 630/462/333 279/463/334 626/464/335
f 278/459/330 604/465/327 582/466/327 624/456/327 277/455/326 285/467/336 286/468/337
f 279/463/334 605/469/331 583/470/331 625/460/331 278/459/330 286/468/337 287/471/338
f 280/446/318 606/472/335 584/473/335 626/464/335 279/463/334 287/471/338 288/474/339
f 281/447/319 280/446/318 288/474/339 289/475/340
f 274/450/320 121/476/38 282/477/341
f 275/452/321 274/450/320 282/477/341 283/478/342
f 276/479/323 275/452/321 283/478/342 284/480/343
f 277/455/326 603/481/344 581/482/345 623/483/346 276/479/323 284/480/343 285/467/336
f 282/477/341 121/484/38 290/485/347
f 283/478/342 282/477/341 290/485/347 291/486/348
f 284/480/343 283/478/342 291/486/348 292/487/349
f 285/467/336 284/480/343 292/487/349 293/488/350
f 286/468/337 285/467/336 293/488/350 294/489/351
f 287/471/338 286/468/337 294/489/351 295/490/352
f 288/474/339 287/471/338 295/490/352 296/491/353
f 289/475/340 288/474/339 296/491/353 297/492/354
f 294/489/351 293/488/350 301/493/355 302/112/356
f 302/112/356 301/493/355 309/494/357 310/495/358
f 207/324/217 439/321/214 446/496/223 421/497/228
f 297/492/354 296/491/353 304/498/168 305/499/359
f 290/485/347 121/500/38 298/501/360
f 291/486/348 290/485/347 298/501/360 299/502/361
f 292/487/349 291/486/348 299/502/361 300/503/362
f 293/488/350 292/487/349 300/503/362 301/493/355
f 299/502/361 298/501/360 306/504/363 307/505/364
f 300/503/362 299/502/361 307/505/364 308/506/365
f 301/493/355 300/503/362 308/506/365 309/494/357
f 302/112/356 310/495/358 311/266/170 303/112/169
f 439/321/214 438/320/214 440/319/214 206/318/213 434/507/224 446/496/223
f 424/328/219 426/322/215 340/325/218 208/329/221
f 305/499/359 304/112/168 312/265/167 313/508/366
f 298/501/360 121/509/38 306/504/363
f 318/510/367 319/112/368 311/266/170 310/495/358
f 311/266/170 319/112/368 320/511/369 312/265/167
f 313/508/366 312/265/167 320/511/369 321/512/370
f 306/504/363 121/513/38 314/514/371
f 307/505/364 306/504/363 314/514/371 315/515/372
f 308/506/365 307/505/364 315/515/372 316/516/373
f 309/494/357 308/506/365 316/516/373 317/517/374
f 310/495/358 309/494/357 317/517/374 318/510/367
f 315/515/372 314/514/371 322/518/375 323/111/43
f 316/516/373 315/515/372 323/111/43 324/110/42
f 317/517/374 316/516/373 324/110/42 418/440/315 325/519/376
f 318/510/367 317/517/374 325/519/376 399/520/377 397/521/377 398/522/377 326/523/378
f 319/524/368 318/510/367 326/523/378 368/525/379 383/526/379 327/527/380 349/528/381
f 321/512/370 320/511/369 328/529/382 329/530/383
f 314/514/371 121/531/38 322/518/375
f 381/532/384 374/533/385 78/534/386 348/535/387
f 351/536/388 350/537/389 333/538/390 343/539/391
f 329/530/383 328/529/382 364/540/392 344/541/393 352/542/392 79/99/32 80/98/31
f 322/518/375 121/543/38 330/105/37
f 323/111/43 322/518/375 330/105/37 331/108/40
f 412/544/394 389/545/395 332/546/396 396/547/397 394/548/397
f 191/286/190 183/287/191 182/112/189 190/285/188
f 432/549/216 449/550/211 448/316/211 422/323/216 336/551/211
f 303/112/169 304/112/168 296/491/353 295/490/352
f 303/112/169 295/490/352 294/489/351 302/112/356
f 181/112/187 173/112/171 172/112/166 180/112/180
f 256/112/276 248/112/265 247/112/275 255/112/274
f 246/112/271 247/112/275 239/112/261 238/378/260
f 240/112/262 239/112/261 247/112/275 248/112/265
f 363/552/388 351/536/388 343/539/391 361/553/391
f 359/554/28 358/94/28 345/97/28 356/555/28
f 328/529/382 320/511/369 319/112/368 327/112/380
f 357/102/33 359/554/28 356/555/28 87/103/35
f 361/553/391 343/539/391 354/556/28 362/557/28
f 343/539/391 333/538/390 355/558/29 354/556/28
f 79/99/32 361/553/391 362/557/28 353/100/33
f 352/542/392 363/552/388 361/553/391 79/99/32
f 341/559/388 327/527/380 365/560/389 366/561/388
f 328/529/382 341/559/388 366/561/388 364/540/392
f 380/562/25 379/90/25 367/93/25 370/563/25
f 386/564/384 381/532/384 348/535/387 371/565/387
f 355/558/29 378/566/25 372/567/25 347/568/25
f 360/95/29 380/562/25 370/563/25 86/96/30
f 371/565/387 348/535/387 377/569/25 378/566/25
f 348/535/387 78/534/386 376/570/26 377/569/25
f 333/538/390 371/565/387 378/566/25 355/558/29
f 347/568/25 372/567/25 380/562/25 360/95/29
f 368/525/379 326/523/378 375/571/385 382/572/384
f 383/526/379 368/525/379 382/572/384 384/573/384
f 342/574/384 385/575/384 386/564/384 350/537/389
f 365/560/389 384/573/384 385/575/384 342/574/384
f 327/527/380 383/526/379 384/573/384 365/560/389
f 350/537/389 386/564/384 371/565/387 333/538/390
f 397/521/377 399/520/377 325/519/376 387/576/395 410/577/394
f 394/548/397 396/547/397 332/546/396 388/578/46 407/579/45
f 326/523/378 398/522/377 400/580/394 375/571/385
f 374/533/385 402/581/394 395/582/397 78/534/386
f 78/534/386 395/582/397 403/583/45 376/570/26
f 373/91/26 405/584/45 392/118/48 85/92/27
f 404/585/45 408/586/45 409/113/45 405/584/45
f 403/583/45 407/579/45 408/586/45 404/585/45
f 395/582/397 394/548/397 407/579/45 403/583/45
f 405/584/45 409/113/45 391/117/48 392/118/48
f 401/587/394 411/588/394 412/544/394 402/581/394
f 400/580/394 410/577/394 411/588/394 401/587/394
f 398/522/377 397/521/377 410/577/394 400/580/394
f 402/581/394 412/544/394 394/548/397 395/582/397
f 406/439/314 420/589/398 419/590/398 418/440/315
f 390/114/46 414/591/399 413/128/58 84/115/47
f 388/578/46 332/546/396 406/439/314 415/592/400
f 414/591/399 416/593/400 369/129/59 413/128/58
f 332/546/396 389/545/395 420/589/398 406/439/314
f 325/519/376 418/440/315 419/590/398 387/576/395
f 244/388/269 243/387/268 251/394/279 252/405/286
f 245/112/272 244/388/269 252/405/286 253/389/273
f 245/112/272 237/377/259 236/376/258 244/388/269
f 165/112/155 173/112/171 181/112/187 182/112/189 183/287/191 184/112/176 176/112/162 168/112/158 167/112/157 166/254/156
f 337/297/197 199/296/196 432/549/216 431/594/215
f 200/298/198 337/297/197 431/594/215 430/326/219
f 421/497/228 446/496/223 447/332/223 428/338/228 334/595/223
f 208/329/221 340/325/218 425/596/173 423/340/172
f 340/325/218 207/324/217 421/497/228 425/596/173
f 428/338/228 447/332/223 436/337/227 215/339/229
f 422/323/216 448/316/211 439/321/214 207/324/217
f 442/295/195 441/294/195 443/293/195 198/292/194 444/597/212 449/550/211
f 199/296/196 442/295/195 449/550/211 432/549/216
f 445/317/212 460/598/210 451/599/401 206/318/213
f 433/333/224 461/600/237 454/359/240 214/334/225
f 198/292/194 457/291/193 462/601/210 444/597/212
f 206/318/213 451/599/401 463/602/237 434/507/224
f 461/600/237 464/603/237 453/360/240 454/359/240
f 451/599/401 450/604/401 465/605/237 463/602/237
f 461/600/237 463/602/237 465/605/237 464/603/237
f 464/603/237 474/351/237 455/354/240 453/360/240
f 469/606/210 486/607/210 452/608/401 450/604/401
f 470/112/210 462/112/210 460/112/210 469/112/210
f 450/604/401 452/608/401 475/609/237 465/605/237
f 452/608/401 205/610/402 466/611/238 475/609/237
f 467/352/238 478/348/236 473/347/235 213/353/239
f 205/610/402 476/310/207 479/350/236 466/611/238
f 472/612/209 484/311/208 476/310/207 205/610/402
f 456/290/193 458/289/193 487/315/210 470/613/210
f 197/288/192 481/306/203 480/305/203 485/313/208 471/314/209
f 452/608/401 486/607/210 472/612/209 205/610/402
f 450/604/401 451/599/401 460/112/210 469/606/210
f 456/290/193 470/613/210 462/112/210 457/291/193
f 528/230/138 535/614/135 514/236/143 518/235/143 152/231/140
f 527/192/107 537/615/106 490/225/136 494/616/136 144/193/109
f 514/236/143 535/614/135 534/617/134 151/238/144 522/237/143
f 136/184/102 506/183/101 502/182/101 538/189/106 525/190/107
f 490/225/136 537/615/106 531/618/105 143/227/137 498/226/136
f 144/193/109 494/616/136 490/225/136 536/224/135 526/228/138
f 135/180/100 505/179/99 549/619/121 545/620/121 547/204/121 493/209/124 143/227/137 531/618/105 529/621/121 533/188/105
f 143/227/137 493/209/124 550/622/130 546/623/130 548/217/130 517/222/133 151/238/144 534/617/134 530/624/130 532/223/134
f 553/205/122 541/625/117 492/626/120 142/206/123
f 554/218/131 542/627/126 516/250/129 150/219/132
f 493/209/124 489/208/124 497/207/124 142/206/123 552/628/131 550/622/130
f 142/206/123 492/626/120 544/629/126 552/628/131
f 505/179/99 501/178/99 509/177/99 134/176/98 551/630/122 549/619/121
f 134/176/98 504/175/97 543/631/117 551/630/122
f 492/626/120 488/203/120 559/632/126 555/633/126 557/212/126 512/216/129 516/250/129 542/627/126 540/634/126 544/629/126
f 504/175/97 500/174/97 560/635/117 556/636/117 558/199/117 488/203/120 492/626/120 541/625/117 539/637/117 543/631/117
f 564/213/127 567/638/403 511/247/116 515/246/116 149/214/128
f 563/200/118 568/639/404 468/640/113 491/641/113 141/201/119
f 488/203/120 496/202/120 141/201/119 562/642/127 559/632/126
f 141/201/119 491/641/113 468/640/113 569/643/403 562/642/127
f 500/174/97 508/173/97 133/172/96 561/644/118 560/635/117
f 133/172/96 503/171/95 499/170/95 570/645/404 561/644/118
f 672/646/332 631/647/332 584/473/335 606/472/335
f 669/648/328 633/649/328 583/470/331 605/469/331
f 666/650/324 636/651/324 582/466/327 604/465/327
f 665/652/324 637/653/324 587/654/324 638/655/324
f 663/656/405 639/657/406 581/482/345 603/481/344
f 661/658/304 641/659/304 578/660/307 598/661/307
f 658/662/300 643/663/300 577/664/303 597/665/303
f 655/666/407 646/667/407 576/668/408 596/669/408
f 654/670/407 647/671/407 589/672/407 648/673/407
f 652/674/409 649/675/410 575/676/411 595/677/412
f 261/410/291 591/409/290 651/678/413 599/679/414
f 591/409/290 571/408/289 650/680/415 651/678/413
f 619/420/297 652/674/409 595/677/412 269/421/298
f 572/414/294 612/413/293 653/681/416 647/671/407
f 612/413/293 261/410/291 599/679/414 653/681/416
f 262/411/292 592/415/294 654/670/407 600/682/301
f 592/415/294 572/414/294 647/671/407 654/670/407
f 620/424/301 655/666/407 596/669/408 270/425/302
f 648/673/407 589/672/407 646/667/407 655/666/407
f 573/417/295 613/416/295 656/683/300 644/684/300
f 613/416/295 262/411/292 600/682/301 656/683/300
f 601/685/305 657/686/300 645/687/300 579/688/300
f 263/396/280 593/418/295 657/686/300 601/685/305
f 593/418/295 573/417/295 644/684/300 657/686/300
f 621/428/305 658/662/300 597/665/303 271/429/306
f 579/688/300 645/687/300 658/662/300 621/428/305
f 574/398/281 614/397/281 659/689/304 642/690/304
f 614/397/281 263/396/280 601/685/305 659/689/304
f 264/400/282 594/399/281 660/691/304 602/431/308
f 594/399/281 574/398/281 642/690/304 660/691/304
f 622/433/308 661/658/304 598/661/307 272/434/310
f 575/112/411 571/112/289 260/112/287 268/112/322
f 269/692/298 595/693/412 662/694/417 608/695/418
f 595/693/412 575/696/411 640/697/419 662/694/417
f 628/454/325 663/656/405 603/481/344 277/455/326
f 576/698/408 616/699/299 664/700/420 637/653/324
f 616/699/299 269/692/298 608/695/418 664/700/420
f 270/701/302 596/702/408 665/652/324 609/703/329
f 596/702/408 576/698/408 637/653/324 665/652/324
f 629/458/329 666/650/324 604/465/327 278/459/330
f 638/655/324 587/654/324 636/651/324 666/650/324
f 577/704/303 617/705/303 667/706/328 634/707/328
f 617/705/303 270/701/302 609/703/329 667/706/328
f 610/708/333 668/709/328 635/710/328 586/711/328
f 271/712/306 597/713/303 668/709/328 610/708/333
f 597/713/303 577/704/303 634/707/328 668/709/328
f 630/462/333 669/648/328 605/469/331 279/463/334
f 586/711/328 635/710/328 669/648/328 630/462/333
f 578/714/307 618/715/307 670/716/332 632/717/332
f 618/715/307 271/712/306 610/708/333 670/716/332
f 272/442/310 598/718/307 671/719/332 627/443/316
f 598/718/307 578/714/307 632/717/332 671/719/332
f 607/445/316 672/646/332 606/472/335 280/446/318
f 631/647/332 673/461/332 626/464/335 584/473/335
f 633/649/328 674/457/328 625/460/331 583/470/331
f 636/651/324 675/453/324 624/456/327 582/466/327
f 641/659/304 676/427/304 618/430/307 578/660/307
f 643/663/300 677/423/300 617/426/303 577/664/303
f 646/667/407 678/419/296 616/422/299 576/668/408
f 581/112/345 575/112/411 268/112/322 276/112/323
f 260/112/287 259/404/285 267/438/313 268/112/322
f 331/112/40 82/112/41 83/112/56 77/112/44
f 406/439/314 77/112/44 83/126/56 369/129/59
f 369/129/59 416/593/400 417/112/421 415/592/400 406/439/314
l 175 174
l 174 173
l 183 175
l 182 174
l 175 167
l 175 176
l 174 166
l 462 459
l 459 460
l 495 468
l 140 495
l 569 565
l 570 566
l 565 567
l 566 568
l 615 575
l 640 588
l 650 590
l 268 615
l 588 639
l 590 649
o syningarsalur
v 0.000000 -0.020000 8.000000
v 12.010433 -0.020000 12.974885
v 12.010433 0.980000 12.974885
v 10.809105 -0.020000 15.222413
v 10.809105 0.980000 15.222413
v 9.192388 -0.020000 17.192387
v 9.192388 0.980000 17.192387
v 7.222413 -0.020000 18.809105
v 7.222413 0.980000 18.809105
v 4.974885 -0.020000 20.010433
v 4.974885 0.980000 20.010433
v 2.536174 -0.020000 20.750208
v 2.536174 0.980000 20.750208
v 0.000000 -0.020000 21.000000
v 0.000000 0.980000 21.000000
v -2.536174 -0.020000 20.750208
v -2.536174 0.980000 20.750208
v -4.974885 -0.020000 20.010433
v -4.974885 0.980000 20.010433
v -7.222413 -0.020000 18.809105
v -7.222413 0.980000 18.809105
v -9.192388 -0.020000 17.192387
v -9.192388 0.980000 17.192387
v -10.809105 -0.020000 15.222413
v -10.809105 0.980000 15.222413
v -12.010433 -0.020000 12.974885
v -12.010433 0.980000 12.974885
v 0.000000 0.980000 8.000000
vn 0.8819 -0.0000 0.4714
vn 0.7730 -0.0000 0.6344
vn 0.6344 -0.0000 0.7730
vn 0.4714 -0.0000 0.8819
vn 0.2903 -0.0000 0.9569
vn 0.0980 -0.0000 0.9952
vn -0.0980 -0.0000 0.9952
vn -0.2903 -0.0000 0.9569
vn -0.4714 -0.0000 0.8819
vn -0.6344 -0.0000 0.7730
vn -0.7730 -0.0000 0.6344
vn -0.8819 -0.0000 0.4714
vn -0.3827 -0.0000 -0.9239
vn 0.3827 -0.0000 -0.9239
vn -0.0000 1.0000 -0.0000
vn -0.0000 -1.0000 -0.0000
vt 0.687500 0.500000
vt 0.687500 1.000000
vt 0.656250 1.000000
vt 0.656250 0.500000
vt 0.625000 1.000000
vt 0.625000 0.500000
vt 0.593750 1.000000
vt 0.593750 0.500000
vt 0.562500 1.000000
vt 0.562500 0.500000
vt 0.531250 1.000000
vt 0.531250 0.500000
vt 0.500000 1.000000
vt 0.500000 0.500000
vt 0.468750 1.000000
vt 0.468750 0.500000
vt 0.437500 1.000000
vt 0.437500 0.500000
vt 0.406250 1.000000
vt 0.406250 0.500000
vt 0.375000 1.000000
vt 0.375000 0.500000
vt 0.343750 1.000000
vt 0.343750 0.500000
vt 0.312500 1.000000
vt 0.312500 0.500000
vt 0.000000 0.000000
s 0
usemtl Material.013
f 680/720/422 681/721/422 683/722/422 682/723/422
f 682/723/423 683/722/423 685/724/423 684/725/423
f 684/725/424 685/724/424 687/726/424 686/727/424
f 686/727/425 687/726/425 689/728/425 688/729/425
f 688/729/426 689/728/426 691/730/426 690/731/426
f 690/731/427 691/730/427 693/732/427 692/733/427
f 692/733/428 693/732/428 695/734/428 694/735/428
f 694/735/429 695/734/429 697/736/429 696/737/429
f 696/737/430 697/736/430 699/738/430 698/739/430
f 698/739/431 699/738/431 701/740/431 700/741/431
f 700/741/432 701/740/432 703/742/432 702/743/432
f 702/743/433 703/742/433 705/744/433 704/745/433
f 705/744/434 706/746/434 679/746/434 704/745/434
f 681/721/435 680/720/435 679/746/435 706/746/435
f 683/722/436 681/721/436 706/746/436 693/732/436 691/730/436 689/728/436 687/726/436 685/724/436
f 693/732/436 706/746/436 705/744/436 703/742/436 701/740/436 699/738/436 697/736/436 695/734/436
f 680/720/437 682/723/437 684/725/437 686/727/437 688/729/437 690/731/437 692/733/437 694/735/437 696/737/437 698/739/437 700/741/437 702/743/437 704/745/437 679/746/437
o dyr
v -0.481908 1.425380 -1.425713
v -0.481908 1.425380 -1.299999
v 0.582861 -0.001031 -1.425713
v 0.582861 -0.001031 -1.299999
v -0.481908 -0.001031 -1.425713
v -0.481908 -0.001031 -1.299999
v 0.582861 1.425380 -1.425713
v 0.582861 1.425380 -1.299999
v 0.050477 -0.001031 -1.425713
v -0.481908 0.712174 -1.425713
v 0.050477 1.425380 -1.425713
v 0.582861 0.712174 -1.425713
v 0.050477 0.712174 -1.425713
vn -0.0000 -0.0000 -1.0000
vn -0.0000 -0.0000 1.0000
vn -1.0000 -0.0000 -0.0000
vn -0.0000 1.0000 -0.0000
vn 1.0000 -0.0000 -0.0000
vn -0.0000 -1.0000 -0.0000
vt 0.500000 0.125000
vt 0.625000 0.125000
vt 0.625000 0.250000
vt 0.500000 0.250000
vt 0.375000 0.250000
vt 0.625000 0.500000
vt 0.375000 0.500000
vt 0.625000 0.625000
vt 0.625000 0.750000
vt 0.375000 0.750000
vt 0.125000 0.750000
vt 0.375000 0.125000
vt 0.125000 0.500000
vt 0.375000 0.625000
vt 0.875000 0.500000
vt 0.875000 0.625000
vt 0.875000 0.750000
vt 0.375000 0.000000
vt 0.500000 0.000000
vt 0.625000 0.000000
s 0
usemtl Material.001
f 719/747/438 715/748/438 711/749/438 716/750/438
f 710/751/439 714/749/439 708/752/439 712/753/439
f 708/753/440 707/752/440 716/754/440 711/755/440 712/756/440
f 714/757/441 713/756/441 717/758/441 707/751/441 708/753/441
f 710/759/442 709/753/442 718/760/442 713/756/442 714/757/442
f 712/752/443 711/761/443 715/762/443 709/763/443 710/755/443
f 717/758/438 719/747/438 716/750/438 707/751/438
f 713/764/438 718/765/438 719/747/438 717/758/438
f 718/765/438 709/766/438 715/748/438 719/747/438
o gluggi_1
v 1.826531 1.589419 -1.261336
v 1.826531 1.589419 -1.338664
v 2.173469 1.589419 -1.261336
v 2.173469 1.589419 -1.338664
v 1.826531 2.010581 -1.261336
v 1.826531 2.010581 -1.338664
v 2.173469 2.010581 -1.261336
v 2.173469 2.010581 -1.338664
vn -0.0000 -1.0000 -0.0000
vn 1.0000 -0.0000 -0.0000
vn -0.0000 1.0000 -0.0000
vn -1.0000 -0.0000 -0.0000
vn -0.0000 -0.0000 1.0000
vn -0.0000 -0.0000 -1.0000
vt 0.375000 0.000000
vt 0.625000 0.000000
vt 0.625000 0.250000
vt 0.375000 0.250000
vt 0.625000 0.500000
vt 0.375000 0.500000
vt 0.625000 0.750000
vt 0.375000 0.750000
vt 0.625000 1.000000
vt 0.375000 1.000000
vt 0.125000 0.500000
vt 0.125000 0.750000
vt 0.875000 0.500000
vt 0.875000 0.750000
s 0
usemtl Material.005
f 720/767/444 721/768/444 723/769/444 722/770/444
f 722/770/445 723/769/445 727/771/445 726/772/445
f 726/772/446 727/771/446 725/773/446 724/774/446
f 724/774/447 725/773/447 721/775/447 720/776/447
f 722/777/448 726/772/448 724/774/448 720/778/448
f 727/771/449 723/779/449 721/780/449 725/773/449
o gluggi_2
v 1.326531 1.589419 -1.261336
v 1.326531 1.589419 -1.338664
v 1.673469 1.589419 -1.261336
v 1.673469 1.589419 -1.338664
v 1.326531 2.010581 -1.261336
v 1.326531 2.010581 -1.338664
v 1.673469 2.010581 -1.261336
v 1.673469 2.010581 -1.338664
vn -0.0000 -1.0000 -0.0000
vn 1.0000 -0.0000 -0.0000
vn -0.0000 1.0000 -0.0000
vn -1.0000 -0.0000 -0.0000
vn -0.0000 -0.0000 1.0000
vn -0.0000 -0.0000 -1.0000
vt 0.375000 0.000000
vt 0.625000 0.000000
vt 0.625000 0.250000
vt 0.375000 0.250000
vt 0.625000 0.500000
vt 0.375000 0.500000
vt 0.625000 0.750000
vt 0.375000 0.750000
vt 0.625000 1.000000
vt 0.375000 1.000000
vt 0.125000 0.500000
vt 0.125000 0.750000
vt 0.875000 0.500000
vt 0.875000 0.750000
s 0
usemtl Material.006
f 728/781/450 729/782/450 731/783/450 730/784/450
f 730/784/451 731/783/451 735/785/451 734/786/451
f 734/786/452 735/785/452 733/787/452 732/788/452
f 732/788/453 733/787/453 729/789/453 728/790/453
f 730/791/454 734/786/454 732/788/454 728/792/454
f 735/785/455 731/793/455 729/794/455 733/787/455
o gluggi_3
v 0.826531 1.589419 -1.261336
v 0.826531 1.589419 -1.338664
v 1.173469 1.589419 -1.261336
v 1.173469 1.589419 -1.338664
v 0.826531 2.010581 -1.261336
v 0.826531 2.010581 -1.338664
v 1.173469 2.010581 -1.261336
v 1.173469 2.010581 -1.338664
vn -0.0000 -1.0000 -0.0000
vn 1.0000 -0.0000 -0.0000
vn -0.0000 1.0000 -0.0000
vn -1.0000 -0.0000 -0.0000
vn -0.0000 -0.0000 1.0000
vn -0.0000 -0.0000 -1.0000
vt 0.375000 0.000000
vt 0.625000 0.000000
vt 0.625000 0.250000
vt 0.375000 0.250000
vt 0.625000 0.500000
vt 0.375000 0.500000
vt 0.625000 0.750000
vt 0.375000 0.750000
vt 0.625000 1.000000
vt 0.375000 1.000000
vt 0.125000 0.500000
vt 0.125000 0.750000
vt 0.875000 0.500000
vt 0.875000 0.750000
s 0
usemtl Material.007
f 736/795/456 737/796/456 739/797/456 738/798/456
f 738/798/457 739/797/457 743/799/457 742/800/457
f 742/800/458 743/799/458 741/801/458 740/802/458
f 740/802/459 741/801/459 737/803/459 736/804/459
f 738/805/460 742/800/460 740/802/460 736/806/460
f 743/799/461 739/807/461 737/808/461 741/801/461
o gluggi_4
v -1.173469 1.589419 -1.261336
v -1.173469 1.589419 -1.338664
v -0.826531 1.589419 -1.261336
v -0.826531 1.589419 -1.338664
v -1.173469 2.010581 -1.261336
v -1.173469 2.010581 -1.338664
v -0.826531 2.010581 -1.261336
v -0.826531 2.010581 -1.338664
vn -0.0000 -1.0000 -0.0000
vn 1.0000 -0.0000 -0.0000
vn -0.0000 1.0000 -0.0000
vn -1.0000 -0.0000 -0.0000
vn -0.0000 -0.0000 1.0000
vn -0.0000 -0.0000 -1.0000
vt 0.375000 0.000000
vt 0.625000 0.000000
vt 0.625000 0.250000
vt 0.375000 0.250000
vt 0.625000 0.500000
vt 0.375000 0.500000
vt 0.625000 0.750000
vt 0.375000 0.750000
vt 0.625000 1.000000
vt 0.375000 1.000000
vt 0.125000 0.500000
vt 0.125000 0.750000
vt 0.875000 0.500000
vt 0.875000 0.750000
s 0
usemtl Material.008
f 744/809/462 745/810/462 747/811/462 746/812/462
f 746/812/463 747/811/463 751/813/463 750/814/463
f 750/814/464 751/813/464 749/815/464 748/816/464
f 748/816/465 749/815/465 745/817/465 744/818/465
f 746/819/466 750/814/466 748/816/466 744/820/466
f 751/813/467 747/821/467 745/822/467 749/815/467
o gluggi_5
v -1.673469 1.589419 -1.261336
v -1.673469 1.589419 -1.338664
v -1.326531 1.589419 -1.261336
v -1.326531 1.589419 -1.338664
v -1.673469 2.010581 -1.261336
v -1.673469 2.010581 -1.338664
v -1.326531 2.010581 -1.261336
v -1.326531 2.010581 -1.338664
vn -0.0000 -1.0000 -0.0000
vn 1.0000 -0.0000 -0.0000
vn -0.0000 1.0000 -0.0000
vn -1.0000 -0.0000 -0.0000
vn -0.0000 -0.0000 1.0000
vn -0.0000 -0.0000 -1.0000
vt 0.375000 0.000000
vt 0.625000 0.000000
vt 0.625000 0.250000
vt 0.375000 0.250000
vt 0.625000 0.500000
vt 0.375000 0.500000
vt 0.625000 0.750000
vt 0.375000 0.750000
vt 0.625000 1.000000
vt 0.375000 1.000000
vt 0.125000 0.500000
vt 0.125000 0.750000
vt 0.875000 0.500000
vt 0.875000 0.750000
s 0
usemtl Material.009
f 752/823/468 753/824/468 755/825/468 754/826/468
f 754/826/469 755/825/469 759/827/469 758/828/469
f 758/828/470 759/827/470 757/829/470 756/830/470
f 756/830/471 757/829/471 753/831/471 752/832/471
f 754/833/472 758/828/472 756/830/472 752/834/472
f 759/827/473 755/835/473 753/836/473 757/829/473
o gluggi_6
v -2.173469 1.589419 -1.261336
v -2.173469 1.589419 -1.338664
v -1.826531 1.589419 -1.261336
v -1.826531 1.589419 -1.338664
v -2.173469 2.010581 -1.261336
v -2.173469 2.010581 -1.338664
v -1.826531 2.010581 -1.261336
v -1.826531 2.010581 -1.338664
vn -0.0000 -1.0000 -0.0000
vn 1.0000 -0.0000 -0.0000
vn -0.0000 1.0000 -0.0000
vn -1.0000 -0.0000 -0.0000
vn -0.0000 -0.0000 1.0000
vn -0.0000 -0.0000 -1.0000
vt 0.375000 0.000000
vt 0.625000 0.000000
vt 0.625000 0.250000
vt 0.375000 0.250000
vt 0.625000 0.500000
vt 0.375000 0.500000
vt 0.625000 0.750000
vt 0.375000 0.750000
vt 0.625000 1.000000
vt 0.375000 1.000000
vt 0.125000 0.500000
vt 0.125000 0.750000
vt 0.875000 0.500000
vt 0.875000 0.750000
s 0
usemtl Material.010
f 760/837/474 761/838/474 763/839/474 762/840/474
f 762/840/475 763/839/475 767/841/475 766/842/475
f 766/842/476 767/841/476 765/843/476 764/844/476
f 764/844/477 765/843/477 761/845/477 760/846/477
f 762/847/478 766/842/478 764/844/478 760/848/478
f 767/841/479 763/849/479 761/850/479 765/843/479
