# Blender 4.0.2
# www.blender.org
mtllib asmundarsafn.mtl
o v_hlid
v 2.750000 0.000000 2.000000
v 4.139461 4.000000 1.236724
v 2.750000 0.000000 -2.000000
v 4.139461 4.000000 -1.236724
v 10.250000 0.000000 2.000000
v 8.860538 4.000000 1.236724
v 10.250000 0.000000 -2.000000
v 8.860538 4.000000 -1.236724
vn -0.9446 0.3281 -0.0000
vn -0.0000 0.1874 -0.9823
vn 0.9446 0.3281 -0.0000
vn -0.0000 0.1874 0.9823
vn -0.0000 -1.0000 -0.0000
vn -0.0000 1.0000 -0.0000
vt 0.375000 0.000000
vt 0.625000 0.000000
vt 0.625000 0.250000
vt 0.375000 0.250000
vt 0.625000 0.500000
vt 0.375000 0.500000
vt 0.625000 0.750000
vt 0.375000 0.750000
vt 0.625000 1.000000
vt 0.375000 1.000000
vt 0.125000 0.500000
vt 0.125000 0.750000
vt 0.875000 0.500000
vt 0.875000 0.750000
s 0
usemtl Material.003
f 1/1/1 2/2/1 4/3/1 3/4/1
f 3/4/2 4/3/2 8/5/2 7/6/2
f 7/6/3 8/5/3 6/7/3 5/8/3
f 5/8/4 6/7/4 2/9/4 1/10/4
f 3/11/5 7/6/5 5/8/5 1/12/5
f 8/5/6 4/13/6 2/14/6 6/7/6
o adaldyr
v -4.000000 0.000000 1.300000
v -4.000000 2.900000 1.300000
v -4.000000 0.000000 -1.300000
v -4.000000 2.900000 -1.300000
v 4.000000 0.000000 1.300000
v 4.000000 2.900000 1.300000
v 4.000000 0.000000 -1.300000
v 4.000000 2.900000 -1.300000
v 1.389393 1.796256 0.880154
v 1.019795 1.796256 0.880154
v 1.389393 2.271376 0.880154
v 1.019795 2.271376 0.880154
v -4.000000 2.900000 -1.300000
v -4.000000 0.000000 -1.300000
v 4.000000 0.000000 -1.300000
v 4.000000 2.900000 -1.300000
v -4.000000 2.900000 -1.300000
v -4.000000 0.000000 -1.300000
v 4.000000 0.000000 -1.300000
v 4.000000 2.900000 -1.300000
v -4.000000 1.450000 -1.300000
v 0.000000 0.000000 -1.300000
v 0.000000 2.900000 -1.300000
v 4.000000 1.450000 -1.300000
v -2.000000 0.000000 -1.300000
v 2.000000 0.000000 -1.300000
v -3.000000 0.000000 -1.300000
v 1.000000 0.000000 -1.300000
v -1.000000 0.000000 -1.300000
v 3.000000 0.000000 -1.300000
v -3.500000 0.000000 -1.300000
v 0.500000 0.000000 -1.300000
v -1.500000 0.000000 -1.300000
v 2.500000 0.000000 -1.300000
v -2.500000 0.000000 -1.300000
v 1.500000 0.000000 -1.300000
v -0.500000 0.000000 -1.300000
v 3.500000 0.000000 -1.300000
v 2.000000 2.900000 -1.300000
v -2.000000 2.900000 -1.300000
v 3.000000 2.900000 -1.300000
v -1.000000 2.900000 -1.300000
v 1.000000 2.900000 -1.300000
v -3.000000 2.900000 -1.300000
v 3.500000 2.900000 -1.300000
v -0.500000 2.900000 -1.300000
v 1.500000 2.900000 -1.300000
v -2.500000 2.900000 -1.300000
v 2.500000 2.900000 -1.300000
v -1.500000 2.900000 -1.300000
v 0.500000 2.900000 -1.300000
v -3.500000 2.900000 -1.300000
vn -1.0000 -0.0000 -0.0000
vn -0.0000 -0.0000 -1.0000
vn 1.0000 -0.0000 -0.0000
vn -0.0000 -0.0000 1.0000
vn -0.0000 -1.0000 -0.0000
vn -0.0000 1.0000 -0.0000
vt 0.375000 0.000000
vt 0.625000 0.000000
vt 0.625000 0.250000
vt 0.375000 0.250000
vt 0.625000 0.500000
vt 0.375000 0.500000
vt 0.625000 0.750000
vt 0.375000 0.750000
vt 0.625000 1.000000
vt 0.375000 1.000000
vt 0.125000 0.500000
vt 0.125000 0.750000
vt 0.875000 0.500000
vt 0.875000 0.750000
vt 0.000000 0.000000
vt 0.375000 0.265625
vt 0.375000 0.281250
vt 0.375000 0.296875
vt 0.375000 0.312500
vt 0.375000 0.328125
vt 0.375000 0.343750
vt 0.375000 0.359375
vt 0.375000 0.375000
vt 0.375000 0.390625
vt 0.375000 0.406250
vt 0.375000 0.421875
vt 0.375000 0.437500
vt 0.375000 0.453125
vt 0.375000 0.468750
vt 0.375000 0.484375
vt 0.625000 0.484375
vt 0.625000 0.468750
vt 0.625000 0.453125
vt 0.625000 0.437500
vt 0.625000 0.421875
vt 0.625000 0.406250
vt 0.625000 0.390625
vt 0.625000 0.375000
vt 0.625000 0.359375
vt 0.625000 0.343750
vt 0.625000 0.328125
vt 0.625000 0.312500
vt 0.625000 0.296875
vt 0.625000 0.281250
vt 0.625000 0.265625
vt 0.500000 0.250000
vt 0.500000 0.500000
s 0
usemtl Material.004
f 9/15/7 10/16/7 21/17/7 22/18/7
f 11/18/8 12/17/8 16/19/8 15/20/8
f 23/20/9 24/19/9 14/21/9 13/22/9
f 13/22/10 14/21/10 10/23/10 9/24/10
f 22/25/11 23/20/11 13/22/11 9/26/11
f 24/19/12 21/27/12 10/28/12 14/21/12
f 20/19/10 18/27/10 17/28/10 19/21/10
f 25/29/12 29/29/12 26/29/12 22/29/12 21/29/12
f 26/18/12 39/30/12 35/31/12 43/32/12 33/33/12 41/34/12 37/35/12 45/36/12 30/37/12 40/38/12 36/39/12 44/40/12 34/41/12 42/42/12 38/43/12 46/44/12 27/20/12 23/20/12 22/18/12
f 28/19/12 53/45/12 49/46/12 57/47/12 47/48/12 55/49/12 51/50/12 59/51/12 31/52/12 54/53/12 50/54/12 58/55/12 48/56/12 56/57/12 52/58/12 60/59/12 25/17/12 21/17/12 24/19/12
f 27/29/12 32/29/12 28/29/12 24/29/12 23/29/12
f 12/17/12 11/18/12 26/18/12 29/60/12 25/17/12
f 11/18/12 15/20/12 27/20/12 46/44/12 38/43/12 42/42/12 34/41/12 44/40/12 36/39/12 40/38/12 30/37/12 45/36/12 37/35/12 41/34/12 33/33/12 43/32/12 35/31/12 39/30/12 26/18/12
f 16/19/12 12/17/12 25/17/12 60/59/12 52/58/12 56/57/12 48/56/12 58/55/12 50/54/12 54/53/12 31/52/12 59/51/12 51/50/12 55/49/12 47/48/12 57/47/12 49/46/12 53/45/12 28/19/12
f 15/20/12 16/19/12 28/19/12 32/61/12 27/20/12
o h_hlid
v -10.250000 0.000000 2.000000
v -8.860538 4.000000 1.236724
v -10.250000 0.000000 -2.000000
v -8.860538 4.000000 -1.236724
v -2.750000 0.000000 2.000000
v -4.139461 4.000000 1.236724
v -2.750000 0.000000 -2.000000
v -4.139461 4.000000 -1.236724
vn -0.9446 0.3281 -0.0000
vn -0.0000 0.1874 -0.9823
vn 0.9446 0.3281 -0.0000
vn -0.0000 0.1874 0.9823
vn -0.0000 -1.0000 -0.0000
vn -0.0000 1.0000 -0.0000
vt 0.375000 0.000000
vt 0.625000 0.000000
vt 0.625000 0.250000
vt 0.375000 0.250000
vt 0.625000 0.500000
vt 0.375000 0.500000
vt 0.625000 0.750000
vt 0.375000 0.750000
vt 0.625000 1.000000
vt 0.375000 1.000000
vt 0.125000 0.500000
vt 0.125000 0.750000
vt 0.875000 0.500000
vt 0.875000 0.750000
s 0
usemtl Material.002
f 61/62/13 62/63/13 64/64/13 63/65/13
f 63/65/14 64/64/14 68/66/14 67/67/14
f 67/67/15 68/66/15 66/68/15 65/69/15
f 65/69/16 66/68/16 62/70/16 61/71/16
f 63/72/17 67/67/17 65/69/17 61/73/17
f 68/66/18 64/74/18 62/75/18 66/68/18
o innanhus
v -4.080000 -0.009000 9.530798
v -4.080000 2.949000 9.530798
v -4.080000 -0.009000 1.289198
v -4.080000 2.949000 1.289198
v 4.080000 -0.009000 9.530798
v 4.080000 2.949000 9.530798
v 4.080000 -0.009000 1.289198
v 4.080000 2.949000 1.289198
vn -1.0000 -0.0000 -0.0000
vn -0.0000 -0.0000 -1.0000
vn 1.0000 -0.0000 -0.0000
vn -0.0000 -0.0000 1.0000
vn -0.0000 -1.0000 -0.0000
vn -0.0000 1.0000 -0.0000
vt 0.375000 0.000000
vt 0.625000 0.000000
vt 0.625000 0.250000
vt 0.375000 0.250000
vt 0.625000 0.500000
vt 0.375000 0.500000
vt 0.625000 0.750000
vt 0.375000 0.750000
vt 0.625000 1.000000
vt 0.375000 1.000000
vt 0.125000 0.500000
vt 0.125000 0.750000
vt 0.875000 0.500000
vt 0.875000 0.750000
s 0
usemtl Material.012
f 69/76/19 70/77/19 72/78/19 71/79/19
f 71/79/20 72/78/20 76/80/20 75/81/20
f 75/81/21 76/80/21 74/82/21 73/83/21
f 73/83/22 74/82/22 70/84/22 69/85/22
f 71/86/23 75/81/23 73/83/23 69/87/23
f 76/80/24 72/88/24 70/89/24 74/82/24
o kulan
v 0.000000 6.225879 3.277719
v 0.000000 5.122281 2.174122
v 0.000000 3.680361 1.576859
v 0.000000 2.900000 1.500000
v 0.152241 6.823141 4.734633
v 0.298631 6.595518 3.998679
v 0.433546 6.225879 3.320420
v 0.551799 5.728427 2.725920
v 0.648847 5.122281 2.238028
v 0.720960 4.430734 1.875490
v 0.765367 3.680361 1.652241
v 0.780361 2.900000 1.576859
v 0.298631 6.823141 4.779040
v 0.585786 6.595518 4.085786
v 0.850430 6.225879 3.446880
v 1.082392 5.728427 2.886874
v 1.272758 5.122281 2.427289
v 1.414213 4.430734 2.085787
v 1.501321 3.680361 1.875490
v 1.530734 2.900000 1.804482
v 0.433545 6.823141 4.851153
v 0.850430 6.595518 4.227242
v 1.234633 6.225879 3.652241
v 1.571390 5.728427 3.148249
v 1.847759 5.122281 2.734634
v 2.053120 4.430734 2.427289
v 2.179580 3.680361 2.238028
v 2.222281 2.900000 2.174122
v 0.551799 6.823141 4.948201
v 1.082392 6.595518 4.417608
v 1.571390 6.225879 3.928610
v 2.000000 5.728427 3.500000
v 2.351751 5.122281 3.148249
v 2.613126 4.430734 2.886874
v 2.774080 3.680361 2.725921
v 2.828427 2.900000 2.671574
v 0.648847 6.823141 5.066454
v 1.272759 6.595518 4.649570
v 1.847759 6.225879 4.265367
v 2.351751 5.728427 3.928610
v 2.765367 5.122281 3.652241
v 3.072711 4.430734 3.446880
v 3.261972 3.680361 3.320420
v 3.325878 2.900000 3.277720
v 0.000000 6.900000 5.500000
v 0.720960 6.823141 5.201369
v 1.414213 6.595518 4.914214
v 2.053120 6.225879 4.649570
v 2.613126 5.728427 4.417608
v 3.072711 5.122281 4.227242
v 3.414213 4.430734 4.085786
v 3.624509 3.680361 3.998679
v 3.695518 2.900000 3.969267
v 0.765367 6.823141 5.347759
v 1.501321 6.595518 5.201369
v 2.179580 6.225879 5.066455
v 2.774080 5.728427 4.948201
v 3.261972 5.122281 4.851154
v 3.624509 4.430734 4.779040
v 3.847759 3.680361 4.734633
v 3.923140 2.900000 4.719639
v 0.780361 6.823141 5.500000
v 1.530734 6.595518 5.500000
v 2.222281 6.225879 5.500000
v 2.828427 5.728427 5.500000
v 3.325878 5.122281 5.500000
v 3.695518 4.430734 5.500000
v 3.923141 3.680361 5.500000
v 3.999999 2.900000 5.500000
v 0.765367 6.823141 5.652241
v 1.501321 6.595518 5.798631
v 2.179580 6.225879 5.933546
v 2.774079 5.728427 6.051799
v 3.261972 5.122281 6.148847
v 3.624509 4.430734 6.220960
v 3.847758 3.680361 6.265367
v 3.923140 2.900000 6.280362
v 0.720960 6.823141 5.798631
v 1.414213 6.595518 6.085786
v 2.053119 6.225879 6.350430
v 2.613126 5.728427 6.582392
v 3.072710 5.122281 6.772758
v 3.414213 4.430734 6.914213
v 3.624509 3.680361 7.001321
v 3.695516 2.900000 7.030734
v 0.648846 6.823141 5.933545
v 1.272758 6.595518 6.350430
v 1.847758 6.225879 6.734633
v 2.351751 5.728427 7.071390
v 2.765366 5.122281 7.347759
v 3.072711 4.430734 7.553120
v 3.261972 3.680361 7.679580
v 3.325876 2.900000 7.722281
v 0.551798 6.823141 6.051798
v 1.082392 6.595518 6.582392
v 1.571389 6.225879 7.071390
v 2.000000 5.728427 7.500000
v 2.351750 5.122281 7.851750
v 2.613126 4.430734 8.113125
v 2.774079 3.680361 8.274079
v 2.828425 2.900000 8.328426
v 0.433545 6.823141 6.148847
v 0.850430 6.595518 6.772758
v 1.234632 6.225879 7.347759
v 1.571390 5.728427 7.851751
v 1.847758 5.122281 8.265366
v 2.053120 4.430734 8.572710
v 2.179579 3.680361 8.761972
v 2.222279 2.900000 8.825877
v 0.298631 6.823141 6.220960
v 0.585786 6.595518 6.914213
v 0.850429 6.225879 7.553119
v 1.082392 5.728427 8.113126
v 1.272758 5.122281 8.572710
v 1.414213 4.430734 8.914213
v 1.501320 3.680361 9.124509
v 1.530732 2.900000 9.195517
v 0.152241 6.823141 6.265367
v 0.298631 6.595518 7.001321
v 0.433545 6.225879 7.679580
v 0.551799 5.728427 8.274079
v 0.648846 5.122281 8.761971
v 0.720960 4.430734 9.124509
v 0.765366 3.680361 9.347757
v 0.780360 2.900000 9.423140
v -0.000000 6.823141 6.280361
v -0.000000 6.595518 7.030733
v -0.000000 6.225879 7.722280
v -0.000000 5.728427 8.328426
v -0.000000 5.122281 8.825877
v 0.000000 4.430734 9.195517
v -0.000001 3.680361 9.423140
v -0.000001 2.900000 9.499997
v -0.152241 6.823141 6.265367
v -0.298631 6.595518 7.001321
v -0.433546 6.225879 7.679579
v -0.551799 5.728427 8.274079
v -0.648847 5.122281 8.761971
v -0.720959 4.430734 9.124509
v -0.765367 3.680361 9.347757
v -0.780362 2.900000 9.423138
v -0.298631 6.823141 6.220959
v -0.585786 6.595518 6.914213
v -0.850430 6.225879 7.553119
v -1.082392 5.728427 8.113125
v -1.272758 5.122281 8.572710
v -1.414213 4.430734 8.914212
v -1.501321 3.680361 9.124508
v -1.530734 2.900000 9.195515
v -0.433545 6.823141 6.148846
v -0.850430 6.595518 6.772758
v -1.234633 6.225879 7.347757
v -1.571390 5.728427 7.851750
v -1.847759 5.122281 8.265366
v -2.053119 4.430734 8.572710
v -2.179580 3.680361 8.761971
v -2.222281 2.900000 8.825875
v -0.551798 6.823141 6.051798
v -1.082392 6.595518 6.582392
v -1.571389 6.225879 7.071388
v -2.000000 5.728427 7.500000
v -2.351750 5.122281 7.851749
v -2.613125 4.430734 8.113125
v -2.774079 3.680361 8.274078
v -2.828426 2.900000 8.328424
v -0.648846 6.823141 5.933545
v -1.272758 6.595518 6.350430
v -1.847758 6.225879 6.734632
v -2.351751 5.728427 7.071389
v -2.765366 5.122281 7.347758
v -3.072710 4.430734 7.553119
v -3.261972 3.680361 7.679579
v -3.325876 2.900000 7.722278
v -0.720959 6.823141 5.798631
v -1.414213 6.595518 6.085786
v -2.053118 6.225879 6.350429
v -2.613125 5.728427 6.582392
v -3.072710 5.122281 6.772758
v -3.414212 4.430734 6.914213
v -3.624509 3.680361 7.001319
v -3.695515 2.900000 7.030731
v -0.765366 6.823141 5.652241
v -1.501320 6.595518 5.798631
v -2.179579 6.225879 5.933545
v -2.774079 5.728427 6.051798
v -3.261971 5.122281 6.148846
v -3.624508 4.430734 6.220960
v -3.847758 3.680361 6.265366
v -3.923138 2.900000 6.280359
v -0.780361 6.823141 5.500000
v -1.530733 6.595518 5.500000
v -2.222279 6.225879 5.500000
v -2.828426 5.728427 5.500000
v -3.325877 5.122281 5.500000
v -3.695517 4.430734 5.500000
v -3.923139 3.680361 5.499999
v -3.999996 2.900000 5.499998
v -0.765366 6.823141 5.347759
v -1.501320 6.595518 5.201369
v -2.179579 6.225879 5.066454
v -2.774079 5.728427 4.948201
v -3.261971 5.122281 4.851153
v -3.624508 4.430734 4.779040
v -3.847757 3.680361 4.734632
v -3.923137 2.900000 4.719638
v -0.720959 6.823141 5.201369
v -1.414213 6.595518 4.914214
v -2.053118 6.225879 4.649570
v -2.613125 5.728427 4.417608
v -3.072709 5.122281 4.227242
v -3.414212 4.430734 4.085787
v -3.624507 3.680361 3.998679
v -3.695514 2.900000 3.969266
v -0.648846 6.823141 5.066455
v -1.272758 6.595518 4.649570
v -1.847757 6.225879 4.265368
v -2.351750 5.728427 3.928610
v -2.765365 5.122281 3.652241
v -3.072710 4.430734 3.446881
v -3.261970 3.680361 3.320420
v -3.325874 2.900000 3.277720
v -0.551798 6.823141 4.948202
v -1.082392 6.595518 4.417608
v -1.571388 6.225879 3.928611
v -1.999999 5.728427 3.500000
v -2.351749 5.122281 3.148250
v -2.613125 4.430734 2.886875
v -2.774077 3.680361 2.725921
v -2.828423 2.900000 2.671575
v -0.433545 6.823141 4.851154
v -0.850429 6.595518 4.227242
v -1.234631 6.225879 3.652242
v -1.571389 5.728427 3.148249
v -1.847757 5.122281 2.734635
v -2.053119 4.430734 2.427290
v -2.179578 3.680361 2.238029
v -2.222277 2.900000 2.174124
v -0.298631 6.823141 4.779041
v -0.585786 6.595518 4.085787
v -0.850428 6.225879 3.446882
v -1.082392 5.728427 2.886875
v -1.272757 5.122281 2.427291
v -1.414213 4.430734 2.085788
v -1.501319 3.680361 1.875492
v -1.530730 2.900000 1.804486
v -0.152241 6.823141 4.734634
v -0.298631 6.595518 3.998680
v -0.433544 6.225879 3.320422
v -0.551798 5.728427 2.725921
v -0.648845 5.122281 2.238030
v -0.720959 4.430734 1.875492
v -0.765365 3.680361 1.652243
v -0.780358 2.900000 1.576863
v 0.000000 6.823141 4.719640
v 0.000000 6.595518 3.969267
v 0.000000 5.728427 2.671574
v 0.000000 4.430734 1.804484
v -0.360480 4.430734 9.160013
v -0.382684 3.680361 9.385448
v 0.360480 4.430734 9.160013
v 0.743163 4.055548 9.236134
v 0.382683 3.680361 9.385448
v -0.743163 4.055548 9.236134
v -0.000000 4.055548 9.309328
v -0.743162 4.055548 1.763868
v -0.360480 4.430734 1.839988
v 0.000000 4.055548 1.690671
v -0.382683 3.680361 1.614551
v 0.743163 4.055548 1.763866
v 0.382683 3.680361 1.614550
v 0.360480 4.430734 1.839987
v 0.000000 4.776507 1.989303
v -1.067586 4.430734 1.980640
v -0.180240 4.430734 1.822236
v -0.185790 4.055548 1.708971
v -0.191341 3.680361 1.595705
v 0.191342 3.680361 1.595705
v 0.185791 4.055548 1.708970
v 0.180240 4.430734 1.822236
v 0.754265 3.867954 1.708054
v 0.574025 3.680361 1.633396
v 0.557373 4.055548 1.745567
v 0.565699 3.867954 1.689481
v 0.540720 4.430734 1.857739
v 0.000000 3.878273 1.636895
v 0.188490 3.873116 1.653895
v -0.188490 3.873116 1.653896
v -0.574024 3.680361 1.633397
v -0.540719 4.430734 1.857740
v -0.557372 4.055548 1.745569
v 0.684903 4.776507 2.056759
v -0.684902 4.776507 2.056761
v 0.492672 5.977153 3.023170
v 0.702932 4.603621 1.966125
v 0.000000 4.603621 1.896893
v 0.351466 4.603621 1.931509
v 0.486635 5.122281 2.222051
v -0.162211 5.122281 2.190099
v -0.486634 5.122281 2.222053
v 0.162212 5.122281 2.190098
v 0.171226 4.776507 2.006167
v 0.175733 4.603621 1.914201
v 0.513677 4.776507 2.039895
v 0.527199 4.603621 1.948817
v -0.171226 4.776507 2.006167
v -0.513677 4.776507 2.039896
v -0.702931 4.603621 1.966126
v -0.527198 4.603621 1.948818
v -0.351465 4.603621 1.931510
v -0.175733 4.603621 1.914202
v -0.413849 5.728427 2.712334
v 0.137950 5.728427 2.685160
v -0.137949 5.728427 2.685160
v 0.413849 5.728427 2.712334
v 0.600323 5.425354 2.481974
v 0.624585 5.273818 2.360001
v 0.576061 5.576890 2.603947
v 0.000000 5.425354 2.422848
v 0.000000 5.273818 2.298485
v 0.000000 5.576890 2.547211
v -0.600322 5.425354 2.481975
v -0.624584 5.273818 2.360003
v -0.576060 5.576890 2.603948
v -0.468438 5.273818 2.344623
v -0.312292 5.273818 2.329243
v -0.156146 5.273818 2.313864
v 0.156146 5.273818 2.313864
v 0.312292 5.273818 2.329243
v 0.468439 5.273818 2.344622
v 0.000000 5.977153 2.974646
v 0.150081 5.425354 2.437629
v 0.300161 5.425354 2.452411
v 0.450242 5.425354 2.467192
v -0.450241 5.425354 2.467193
v -0.300161 5.425354 2.452411
v -0.150080 5.425354 2.437629
v 0.522235 5.852790 2.874545
v 0.391677 5.852790 2.861686
v 0.123168 5.977153 2.986777
v 0.369504 5.977153 3.011039
v 0.246336 5.977153 2.998908
v -0.492671 5.977153 3.023171
v -0.369503 5.977153 3.011040
v -0.123168 5.977153 2.986778
v -0.180240 4.430734 9.177765
v 0.180240 4.430734 9.177765
v -0.191342 3.680361 9.404294
v 0.191341 3.680361 9.404295
v -0.185791 4.055548 9.291030
v 0.185791 4.055548 9.291030
v -0.574026 3.680361 9.366603
v -0.540720 4.430734 9.142261
v -0.557373 4.055548 9.254432
v 0.574024 3.680361 9.366604
v 0.557372 4.055548 9.254433
v 0.540720 4.430734 9.142262
v -0.486635 5.122281 8.777948
v -0.162212 5.122281 8.809900
v -0.684903 4.776507 8.943240
v -0.702931 4.603621 9.033875
v -0.666875 4.949394 8.852606
v -0.000000 4.776507 9.010697
v -0.000000 4.603621 9.103107
v -0.000000 4.949394 8.918287
v 0.684903 4.776507 8.943240
v 0.702931 4.603621 9.033875
v 0.666875 4.949394 8.852606
v 0.486634 5.122281 8.777948
v 0.162211 5.122281 8.809900
v -0.175733 4.603621 9.085798
v -0.527198 4.603621 9.051183
v 0.175733 4.603621 9.085798
v 0.527198 4.603621 9.051183
v -0.000000 5.425354 8.577152
v -0.000000 5.273818 8.701514
v -0.000000 5.576890 8.452789
v -0.600323 5.425354 8.518025
v -0.624585 5.273818 8.639998
v -0.576061 5.576890 8.396052
v 0.600322 5.425354 8.518025
v 0.624584 5.273818 8.639998
v 0.576061 5.576890 8.396052
v 0.312292 5.273818 8.670756
v 0.156146 5.273818 8.686135
v -0.468439 5.273818 8.655377
v 0.468438 5.273818 8.655377
v -0.156146 5.273818 8.686135
v -0.450242 5.425354 8.532806
v -0.150081 5.425354 8.562370
v -0.137950 5.728427 8.314840
v -0.413849 5.728427 8.287666
v 2.525354 5.977153 5.500000
v 0.150080 5.425354 8.562370
v 0.450242 5.425354 8.532806
v 0.413849 5.728427 8.287666
v 0.137950 5.728427 8.314840
v -0.492672 5.977153 7.976829
v -0.432046 5.576890 8.410236
v -0.144015 5.576890 8.438605
v -0.000000 5.977153 8.025353
v -0.246336 5.977153 8.001091
v -0.369504 5.977153 7.988960
v -0.123168 5.977153 8.013222
v 0.492672 5.977153 7.976830
v 0.522235 5.852790 8.125454
v 0.463108 6.101516 7.828205
v 0.246336 5.977153 8.001091
v 0.123168 5.977153 8.013222
v 0.369504 5.977153 7.988960
v 0.144015 5.576890 8.438605
v 0.432045 5.576890 8.410236
v 3.077152 5.425354 5.500000
v 3.510698 4.776507 5.500000
v 3.809329 4.055548 5.500000
v 2.676890 5.852790 5.500000
v 3.201515 5.273818 5.500000
v 3.603108 4.603621 5.500000
v 3.866235 3.867954 5.500000
v 2.373817 6.101516 5.500000
v 2.952790 5.576890 5.500000
v 3.418288 4.949394 5.500000
v 3.752423 4.243141 5.500000
v 2.476830 5.977153 5.007328
v 3.018026 5.425354 4.899677
v 3.443241 4.776507 4.815097
v 3.736134 4.055548 4.756837
v 2.625455 5.852790 4.977765
v 3.139999 5.273818 4.875416
v 3.533875 4.603621 4.797069
v 3.791946 3.867954 4.745735
v 2.328205 6.101516 5.036891
v 2.896053 5.576890 4.923939
v 3.352606 4.949394 4.833125
v 3.680322 4.243141 4.767939
v 2.476830 5.977153 5.992672
v 3.018025 5.425354 6.100323
v 3.443241 4.776507 6.184903
v 3.736134 4.055548 6.243163
v 2.625454 5.852790 6.022235
v 3.139998 5.273818 6.124585
v 3.533875 4.603621 6.202931
v 3.791946 3.867954 6.254265
v 2.328205 6.101516 5.963109
v 2.896052 5.576890 6.076061
v 3.352606 4.949394 6.166875
v 3.680322 4.243141 6.232061
v 3.885449 3.680361 5.117317
v 3.885449 3.680361 5.882684
v 3.866604 3.680361 4.925975
v 3.904295 3.680361 5.691342
v 3.904295 3.680361 5.308659
v 3.866604 3.680361 6.074025
v 3.660014 4.430734 5.139520
v 3.660014 4.430734 5.860480
v 3.677766 4.430734 5.319760
v 3.677766 4.430734 5.680240
v 3.642262 4.430734 4.959280
v 3.642262 4.430734 6.040720
v 3.754433 4.055548 6.057373
v 3.791030 4.055548 5.685791
v 3.791030 4.055548 5.314209
v 3.754433 4.055548 4.942627
v 3.170757 5.273818 5.187708
v 3.170757 5.273818 5.812293
v 3.186136 5.273818 5.343854
v 3.155378 5.273818 5.968439
v 3.155378 5.273818 5.031562
v 3.186136 5.273818 5.656147
v 3.568491 4.603621 5.148534
v 3.568491 4.603621 5.851466
v 3.585800 4.603621 5.324267
v 3.551183 4.603621 6.027199
v 3.551183 4.603621 4.972801
v 3.585800 4.603621 5.675733
v 3.277948 5.122281 5.013365
v 3.309901 5.122281 5.662212
v 3.309901 5.122281 5.337789
v 3.277948 5.122281 5.986635
v 3.047589 5.425354 5.800161
v 3.047589 5.425354 5.199839
v 3.032807 5.425354 5.950242
v 3.062371 5.425354 5.349919
v 3.062371 5.425354 5.650081
v 3.032807 5.425354 5.049758
v 2.787666 5.728427 5.086151
v 2.814840 5.728427 5.637949
v 2.814840 5.728427 5.362050
v 2.787666 5.728427 5.913849
v 2.501091 5.977153 5.746336
v 2.501092 5.977153 5.253664
v 2.488961 5.977153 5.869504
v 2.513223 5.977153 5.376832
v 2.513223 5.977153 5.623168
v 2.488961 5.977153 5.130496
v -2.476829 5.977153 5.992671
v -3.018025 5.425354 6.100322
v -3.443240 4.776507 6.184903
v -3.736133 4.055548 6.243163
v -2.525353 5.977153 5.500000
v -3.077152 5.425354 5.500000
v -3.510697 4.776507 5.500000
v -3.809328 4.055548 5.500000
v -3.660012 4.430734 5.860480
v -3.885448 3.680361 5.882682
v -2.476829 5.977153 5.007328
v -3.018025 5.425354 4.899677
v -3.443239 4.776507 4.815097
v -3.736133 4.055548 4.756836
v -3.885448 3.680361 5.117316
v -3.660012 4.430734 5.139520
v -3.047588 5.425354 5.199838
v -2.501091 5.977153 5.253664
v -3.047588 5.425354 5.800161
v -2.501091 5.977153 5.746336
v -2.625454 5.852790 6.022235
v -3.139998 5.273818 6.124584
v -3.533874 4.603621 6.202931
v -3.791945 3.867954 6.254264
v -2.676889 5.852790 5.500000
v -3.201514 5.273818 5.500000
v -3.603106 4.603621 5.500000
v -3.866234 3.867954 5.499999
v -2.787666 5.728427 5.913849
v -3.277947 5.122281 5.986634
v -3.642261 4.430734 6.040720
v -3.866603 3.680361 6.074024
v -2.625454 5.852790 4.977765
v -3.139997 5.273818 4.875415
v -3.533874 4.603621 4.797069
v -3.791945 3.867954 4.745734
v -3.866602 3.680361 4.925974
v -2.814839 5.728427 5.362050
v -3.309900 5.122281 5.337788
v -3.677764 4.430734 5.319760
v -2.328204 6.101516 5.963108
v -2.896052 5.576890 6.076060
v -3.352605 4.949394 6.166874
v -3.680321 4.243141 6.232061
v -2.373816 6.101516 5.500000
v -2.952789 5.576890 5.500000
v -3.418287 4.949394 5.500000
v -3.752422 4.243141 5.500000
v -2.814840 5.728427 5.637949
v -3.309900 5.122281 5.662211
v -3.677764 4.430734 5.680240
v -3.904294 3.680361 5.691340
v -2.328204 6.101516 5.036891
v -2.896052 5.576890 4.923939
v -3.352605 4.949394 4.833125
v -3.680320 4.243141 4.767939
v -3.904294 3.680361 5.308657
v -2.787666 5.728427 5.086151
v -3.277947 5.122281 5.013365
v -3.642260 4.430734 4.959280
v -3.754431 4.055548 4.942627
v -3.791029 4.055548 5.314209
v -3.460104 4.776507 4.986322
v -3.493832 4.776507 5.328774
v -3.568490 4.603621 5.148534
v -3.032806 5.425354 5.049758
v -3.062370 5.425354 5.349919
v -3.170756 5.273818 5.187707
v -2.488960 5.977153 5.130496
v -2.513222 5.977153 5.376832
v -3.791029 4.055548 5.685790
v -3.754432 4.055548 6.057372
v -3.493833 4.776507 5.671226
v -3.460104 4.776507 6.013677
v -3.568491 4.603621 5.851465
v -3.062370 5.425354 5.650080
v -3.032807 5.425354 5.950242
v -3.170756 5.273818 5.812292
v -2.513222 5.977153 5.623168
v -2.488960 5.977153 5.869503
v -2.638313 5.852790 5.891676
v -2.664031 5.852790 5.630558
v -2.910236 5.576890 5.932045
v -3.155377 5.273818 5.968438
v -3.186135 5.273818 5.656146
v -3.369026 4.949394 6.000155
v -3.551182 4.603621 6.027198
v -3.585799 4.603621 5.675733
v -3.698346 4.243141 6.049046
v -3.810518 3.867954 6.065698
v -3.847662 3.867954 5.688565
v -2.664031 5.852790 5.369441
v -2.638313 5.852790 5.108323
v -2.938605 5.576890 5.355985
v -3.186135 5.273818 5.343853
v -3.155377 5.273818 5.031561
v -3.401866 4.949394 5.333281
v -3.585798 4.603621 5.324267
v -3.551182 4.603621 4.972801
v -3.734397 4.243141 5.316984
v -3.847661 3.867954 5.311433
v -3.810517 3.867954 4.934300
v -3.698346 4.243141 4.950953
v -3.369025 4.949394 4.999844
v -2.910236 5.576890 5.067954
v -3.734397 4.243141 5.683015
v -3.401866 4.949394 5.666718
v -2.938605 5.576890 5.644015
vn 0.0865 0.4696 -0.8786
vn 0.0815 0.5552 -0.8277
vn 0.1626 0.5528 -0.8173
vn 0.0938 0.2890 -0.9527
vn 0.0893 0.4115 -0.9070
vn 0.0907 0.3790 -0.9210
vn -0.0000 0.0980 -0.9952
vn -0.0000 0.1939 -0.9810
vn 0.0967 0.1624 -0.9820
vn 0.0975 0.0975 -0.9904
vn 0.1620 0.1617 -0.9735
vn 0.1942 0.0980 -0.9761
vn -0.0000 0.9796 -0.2010
vn -0.0000 1.0000 -0.0000
vn 0.0392 0.9796 -0.1971
vn 0.0168 0.9340 -0.3569
vn 0.0757 0.9217 -0.3804
vn 0.0624 -0.7715 0.6332
vn -0.0000 -0.7730 0.6344
vn 0.0145 -0.8101 0.5861
vn 0.0551 -0.8274 0.5589
vn 0.0759 0.6326 -0.7708
vn 0.0693 0.7070 -0.7038
vn 0.1385 0.7041 -0.6965
vn 0.1508 0.6344 -0.7582
vn 0.2718 0.7041 -0.6561
vn 0.3189 0.5528 -0.7699
vn 0.3788 0.4107 -0.8294
vn 0.2563 0.4696 -0.8448
vn -0.2779 -0.2890 0.9161
vn 0.4061 0.1617 -0.8994
vn 0.3808 0.0980 -0.9194
vn 0.0769 0.9796 -0.1857
vn 0.1484 0.9217 -0.3584
vn 0.1257 0.8466 -0.5172
vn 0.2142 0.8286 -0.5172
vn 0.1238 0.7730 -0.6222
vn 0.1429 0.7729 -0.6183
vn 0.1117 0.9796 -0.1671
vn 0.2155 0.9217 -0.3225
vn 0.3110 0.8286 -0.4654
vn 0.3945 0.7041 -0.5905
vn 0.4630 0.5528 -0.6929
vn 0.5138 0.3805 -0.7689
vn 0.5450 0.1939 -0.8157
vn 0.5529 0.0980 -0.8275
vn 0.5021 0.7041 -0.5021
vn 0.5893 0.5528 -0.5893
vn 0.6539 0.3805 -0.6539
vn 0.6937 0.1939 -0.6937
vn 0.7037 0.0980 -0.7037
vn 0.1421 0.9796 -0.1421
vn 0.2743 0.9217 -0.2743
vn 0.3958 0.8286 -0.3958
vn 0.1671 0.9796 -0.1117
vn 0.3225 0.9217 -0.2155
vn 0.4654 0.8286 -0.3110
vn 0.5905 0.7041 -0.3945
vn 0.6929 0.5528 -0.4630
vn 0.7689 0.3805 -0.5138
vn 0.8157 0.1939 -0.5450
vn 0.8275 0.0980 -0.5529
vn 0.7699 0.5528 -0.3189
vn 0.8544 0.3805 -0.3539
vn 0.9063 0.1939 -0.3754
vn 0.9194 0.0980 -0.3808
vn 0.1857 0.9796 -0.0769
vn 0.3584 0.9217 -0.1484
vn 0.5172 0.8286 -0.2142
vn 0.6561 0.7041 -0.2718
vn 0.3804 0.9217 -0.0757
vn 0.5490 0.8286 -0.1092
vn 0.6088 0.7715 -0.1847
vn 0.6183 0.7729 -0.1429
vn 0.6222 0.7730 -0.1238
vn 0.6965 0.7041 -0.1385
vn 0.7582 0.6344 -0.1508
vn 0.8173 0.5528 -0.1626
vn 0.8650 0.4714 -0.1721
vn 0.9070 0.3805 -0.1804
vn 0.9386 0.2903 -0.1867
vn 0.9622 0.1939 -0.1914
vn 0.9761 0.0980 -0.1942
vn 0.1971 0.9796 -0.0392
vn 0.9070 0.4115 -0.0893
vn 0.9527 0.2890 -0.0938
vn 0.9820 0.1624 -0.0967
vn 0.9904 0.0975 -0.0975
vn 0.9810 0.1939 -0.0000
vn 0.9952 0.0980 -0.0000
vn 0.2010 0.9796 -0.0000
vn 0.3879 0.9217 -0.0000
vn 0.6344 0.7730 -0.0000
vn 0.6332 0.7715 -0.0624
vn 0.5598 0.8286 -0.0000
vn 0.5490 0.8286 0.1092
vn 0.6332 0.7715 0.0624
vn 0.7708 0.6326 -0.0759
vn 0.7038 0.7070 -0.0693
vn 0.7101 0.7041 -0.0000
vn 0.7730 0.6344 -0.0000
vn 0.8786 0.4696 -0.0865
vn 0.8277 0.5552 -0.0815
vn 0.8333 0.5528 -0.0000
vn 0.8819 0.4714 -0.0000
vn 0.3804 0.9217 0.0757
vn 0.7708 0.6326 0.0759
vn 0.7038 0.7070 0.0693
vn 0.6965 0.7041 0.1385
vn 0.7582 0.6344 0.1508
vn 0.8786 0.4696 0.0865
vn 0.8277 0.5552 0.0815
vn 0.8173 0.5528 0.1626
vn 0.8650 0.4714 0.1721
vn 0.8650 0.4714 0.1720
vn 0.9070 0.4115 0.0893
vn 0.9527 0.2890 0.0938
vn 0.9569 0.2903 -0.0000
vn 0.9248 0.3805 -0.0000
vn 0.9820 0.1624 0.0967
vn 0.9904 0.0975 0.0976
vn 0.9622 0.1939 0.1914
vn 0.9761 0.0980 0.1942
vn 0.1971 0.9796 0.0392
vn 0.9386 0.2903 0.1867
vn 0.9070 0.3805 0.1804
vn 0.8544 0.3805 0.3539
vn 0.9063 0.1939 0.3754
vn 0.9194 0.0980 0.3808
vn 0.1857 0.9796 0.0769
vn 0.3584 0.9217 0.1484
vn 0.5172 0.8286 0.2142
vn 0.6222 0.7730 0.1238
vn 0.6183 0.7729 0.1429
vn 0.6088 0.7715 0.1847
vn 0.6561 0.7041 0.2718
vn 0.7699 0.5528 0.3189
vn 0.4654 0.8286 0.3110
vn 0.5855 0.7270 0.3587
vn 0.7360 0.5509 0.3934
vn 0.8161 0.3790 0.4362
vn 0.8374 0.1617 0.5222
vn 0.8275 0.0980 0.5529
vn 0.1671 0.9796 0.1117
vn 0.3225 0.9217 0.2155
vn 0.7037 0.0980 0.7037
vn 0.1421 0.9796 0.1421
vn 0.2743 0.9217 0.2743
vn 0.3958 0.8286 0.3958
vn -0.5450 0.1939 -0.8157
vn -0.6937 0.1939 -0.6937
vn -0.6539 0.3805 -0.6539
vn -0.5138 0.3805 -0.7689
vn 0.4486 0.7730 0.4486
vn -0.0967 0.1624 0.9820
vn -0.0938 0.2890 0.9527
vn -0.1867 0.2903 0.9386
vn -0.1914 0.1939 0.9622
vn -0.5466 -0.6344 -0.5466
vn -0.5893 -0.5528 -0.5893
vn -0.5294 -0.5509 -0.6451
vn -0.4913 -0.6326 -0.5987
vn 0.5222 0.1617 0.8374
vn 0.5529 0.0980 0.8275
vn 0.1117 0.9796 0.1671
vn 0.2155 0.9217 0.3225
vn 0.3110 0.8286 0.4654
vn 0.3754 0.1939 0.9063
vn 0.3808 0.0980 0.9194
vn 0.0769 0.9796 0.1857
vn 0.1484 0.9217 0.3584
vn 0.2142 0.8286 0.5172
vn 0.2718 0.7041 0.6561
vn 0.3587 0.7270 0.5855
vn 0.3189 0.5528 0.7699
vn 0.3934 0.5509 0.7360
vn -0.7400 -0.2890 -0.6073
vn -0.6767 -0.2903 -0.6767
vn -0.6539 -0.3805 -0.6539
vn -0.7154 -0.3790 -0.5871
vn 0.3539 0.3805 0.8544
vn 0.4362 0.3790 0.8161
vn 0.1385 0.7041 0.6965
vn 0.1508 0.6344 0.7582
vn 0.1626 0.5528 0.8173
vn 0.1721 0.4714 0.8650
vn 0.1804 0.3805 0.9070
vn 0.1867 0.2903 0.9386
vn 0.1914 0.1939 0.9622
vn 0.1942 0.0980 0.9761
vn 0.0392 0.9796 0.1971
vn 0.0757 0.9217 0.3804
vn 0.1092 0.8286 0.5490
vn 0.1238 0.7730 0.6222
vn -0.0000 0.9796 0.2010
vn -0.0000 0.9217 0.3879
vn -0.0000 0.8286 0.5598
vn -0.0000 0.7730 0.6344
vn 0.0624 0.7715 0.6332
vn 0.0693 0.7070 0.7038
vn 0.0759 0.6326 0.7708
vn 0.0865 0.4696 0.8786
vn 0.0815 0.5552 0.8277
vn -0.0000 0.5528 0.8333
vn -0.0000 0.4714 0.8819
vn 0.0938 0.2890 0.9527
vn 0.0893 0.4115 0.9070
vn -0.0000 0.3805 0.9248
vn -0.0000 0.2903 0.9569
vn 0.0967 0.1624 0.9820
vn 0.0975 0.0975 0.9904
vn -0.0000 0.1939 0.9810
vn -0.0000 0.0980 0.9952
vn -0.0865 0.4696 0.8786
vn -0.0815 0.5552 0.8277
vn -0.1626 0.5528 0.8173
vn -0.1721 0.4714 0.8650
vn -0.1720 0.4714 0.8650
vn -0.0893 0.4115 0.9070
vn -0.1804 0.3805 0.9070
vn -0.0976 0.0975 0.9904
vn -0.1942 0.0980 0.9761
vn -0.0392 0.9796 0.1971
vn -0.0757 0.9217 0.3804
vn -0.1092 0.8286 0.5490
vn -0.1238 0.7730 0.6222
vn -0.0624 0.7715 0.6332
vn -0.0759 0.6326 0.7708
vn -0.0693 0.7070 0.7038
vn -0.1385 0.7041 0.6965
vn -0.1508 0.6344 0.7582
vn -0.0769 0.9796 0.1857
vn -0.1484 0.9217 0.3584
vn -0.2142 0.8286 0.5172
vn -0.2718 0.7041 0.6561
vn -0.3189 0.5528 0.7699
vn -0.3539 0.3805 0.8544
vn -0.3754 0.1939 0.9063
vn -0.3808 0.0980 0.9194
vn -0.4630 0.5528 0.6929
vn -0.5138 0.3805 0.7689
vn -0.5450 0.1939 0.8157
vn -0.5529 0.0980 0.8275
vn -0.1117 0.9796 0.1671
vn -0.2155 0.9217 0.3225
vn -0.3110 0.8286 0.4654
vn -0.3945 0.7041 0.5905
vn -0.2743 0.9217 0.2743
vn -0.3958 0.8286 0.3958
vn -0.5021 0.7041 0.5021
vn -0.5893 0.5528 0.5893
vn -0.6539 0.3805 0.6539
vn -0.6937 0.1939 0.6937
vn -0.7037 0.0980 0.7037
vn -0.1421 0.9796 0.1421
vn -0.8157 0.1939 0.5450
vn -0.8275 0.0980 0.5529
vn -0.1671 0.9796 0.1117
vn -0.3225 0.9217 0.2155
vn -0.4654 0.8286 0.3110
vn -0.7699 0.5528 0.3189
vn -0.6929 0.5528 0.4630
vn -0.5905 0.7041 0.3945
vn -0.6561 0.7041 0.2718
vn -0.8544 0.3805 0.3539
vn -0.7689 0.3805 0.5138
vn -0.9063 0.1939 0.3754
vn -0.9194 0.0980 0.3808
vn -0.1857 0.9796 0.0769
vn -0.3584 0.9217 0.1484
vn -0.9070 0.3805 0.1804
vn -0.9386 0.2903 0.1867
vn -0.9622 0.1939 0.1914
vn -0.9761 0.0980 0.1942
vn -0.1971 0.9796 0.0392
vn -0.3468 0.9340 0.0861
vn -0.5172 0.8286 0.2142
vn -0.5374 0.8274 0.1630
vn -0.6088 0.7715 0.1847
vn -0.6183 0.7729 0.1429
vn -0.6222 0.7730 0.1238
vn -0.6965 0.7041 0.1385
vn -0.8173 0.5528 0.1626
vn -0.7582 0.6344 0.1508
vn -0.8650 0.4714 0.1721
vn -0.7708 0.6326 0.0759
vn -0.7038 0.7070 0.0693
vn -0.7101 0.7041 -0.0000
vn -0.7730 0.6344 -0.0000
vn -0.8786 0.4696 0.0865
vn -0.8277 0.5552 0.0815
vn -0.8333 0.5528 -0.0000
vn -0.8819 0.4714 -0.0000
vn -0.9527 0.2890 0.0938
vn -0.9070 0.4115 0.0893
vn -0.9248 0.3805 -0.0000
vn -0.9569 0.2903 -0.0000
vn -0.9820 0.1624 0.0967
vn -0.9904 0.0975 0.0975
vn -0.9810 0.1939 -0.0000
vn -0.9952 0.0980 -0.0000
vn -0.2010 0.9796 -0.0000
vn -0.2903 0.9569 -0.0000
vn -0.0624 -0.7715 0.6332
vn -0.9820 0.1624 -0.0967
vn -0.9904 0.0975 -0.0976
vn -0.9622 0.1939 -0.1914
vn -0.9761 0.0980 -0.1942
vn -0.1971 0.9796 -0.0392
vn -0.3468 0.9340 -0.0861
vn 0.4714 -0.8819 -0.0000
vn 0.4709 -0.8810 -0.0464
vn -0.7708 0.6326 -0.0759
vn -0.7038 0.7070 -0.0693
vn -0.6965 0.7041 -0.1385
vn -0.7582 0.6344 -0.1508
vn -0.8786 0.4696 -0.0865
vn -0.8277 0.5552 -0.0815
vn -0.8173 0.5528 -0.1626
vn -0.8650 0.4714 -0.1720
vn -0.9527 0.2890 -0.0938
vn -0.9070 0.4115 -0.0893
vn -0.9070 0.3805 -0.1804
vn -0.9386 0.2903 -0.1867
vn -0.6561 0.7041 -0.2718
vn -0.7699 0.5528 -0.3189
vn -0.8544 0.3805 -0.3539
vn -0.9063 0.1939 -0.3754
vn -0.9194 0.0980 -0.3808
vn -0.1857 0.9796 -0.0769
vn -0.3584 0.9217 -0.1484
vn -0.5374 0.8274 -0.1630
vn -0.5172 0.8286 -0.2142
vn -0.6222 0.7730 -0.1238
vn -0.6183 0.7729 -0.1429
vn -0.6088 0.7715 -0.1847
vn -0.1671 0.9796 -0.1117
vn -0.3225 0.9217 -0.2155
vn -0.4654 0.8286 -0.3110
vn -0.5905 0.7041 -0.3945
vn -0.6929 0.5528 -0.4630
vn -0.7689 0.3805 -0.5138
vn -0.8157 0.1939 -0.5450
vn -0.8275 0.0980 -0.5529
vn -0.5021 0.7041 -0.5021
vn -0.5893 0.5528 -0.5893
vn -0.3945 0.7041 -0.5905
vn -0.4630 0.5528 -0.6929
vn -0.7037 0.0980 -0.7037
vn -0.1421 0.9796 -0.1421
vn -0.2743 0.9217 -0.2743
vn -0.3958 0.8286 -0.3958
vn -0.1117 0.9796 -0.1671
vn -0.2155 0.9217 -0.3225
vn -0.3110 0.8286 -0.4654
vn -0.5529 0.0980 -0.8275
vn -0.3189 0.5528 -0.7699
vn -0.3539 0.3805 -0.8544
vn -0.3754 0.1939 -0.9063
vn -0.3808 0.0980 -0.9194
vn -0.0769 0.9796 -0.1857
vn -0.1484 0.9217 -0.3584
vn -0.2142 0.8286 -0.5172
vn -0.2718 0.7041 -0.6561
vn -0.0392 0.9796 -0.1971
vn -0.0861 0.9340 -0.3468
vn -0.1630 0.8274 -0.5374
vn -0.1429 0.7729 -0.6183
vn -0.1385 0.7041 -0.6965
vn -0.1508 0.6344 -0.7582
vn -0.1626 0.5528 -0.8173
vn -0.1721 0.4714 -0.8650
vn -0.1459 0.4107 -0.9000
vn -0.2563 0.4696 -0.8448
vn -0.1914 0.1939 -0.9622
vn -0.1942 0.0980 -0.9761
vn -0.0865 0.4696 -0.8786
vn -0.0815 0.5552 -0.8277
vn -0.0000 0.5528 -0.8333
vn -0.0000 0.4714 -0.8819
vn -0.0938 0.2890 -0.9527
vn -0.0893 0.4115 -0.9070
vn -0.0000 0.3805 -0.9248
vn -0.0000 0.2903 -0.9569
vn -0.0967 0.1624 -0.9820
vn -0.0976 0.0975 -0.9904
vn -0.0759 0.6326 -0.7708
vn -0.0693 0.7070 -0.7038
vn -0.0000 0.7041 -0.7101
vn -0.0000 0.6344 -0.7730
vn -0.6451 -0.5509 -0.5294
vn -0.5871 -0.3790 -0.7154
vn -0.6073 -0.2890 -0.7400
vn -0.2779 0.2890 -0.9161
vn 0.0464 -0.8810 0.4709
vn 0.0624 0.7715 -0.6332
vn -0.0000 0.7730 -0.6344
vn -0.0624 0.7715 -0.6332
vn -0.5987 -0.6326 -0.4913
vn -0.0000 0.6344 0.7730
vn -0.0759 -0.6326 -0.7708
vn -0.0000 0.7041 0.7101
vn -0.6332 0.7715 -0.0624
vn -0.6332 0.7715 0.0624
vn -0.6344 0.7730 -0.0000
vn 0.4709 -0.8810 0.0464
vn 0.0464 0.8810 -0.4709
vt 0.726562 0.656250
vt 0.726562 0.687500
vt 0.718750 0.687500
vt 0.718750 0.656250
vt 0.726562 0.593750
vt 0.726562 0.625000
vt 0.718750 0.625000
vt 0.718750 0.593750
vt 0.750000 0.500000
vt 0.750000 0.562500
vt 0.742188 0.562500
vt 0.734375 0.562500
vt 0.726562 0.562500
vt 0.718750 0.562500
vt 0.718750 0.500000
vt 0.750000 0.937500
vt 0.734375 1.000000
vt 0.718750 0.937500
vt 0.750000 0.875000
vt 0.718750 0.875000
vt 0.000000 0.000000
vt 0.726562 0.718750
vt 0.726562 0.750000
vt 0.718750 0.750000
vt 0.718750 0.734375
vt 0.718750 0.718750
vt 0.718750 0.703125
vt 0.687500 0.750000
vt 0.687500 0.687500
vt 0.687500 0.562500
vt 0.687500 0.500000
vt 0.703125 1.000000
vt 0.687500 0.937500
vt 0.687500 0.875000
vt 0.718750 0.812500
vt 0.687500 0.812500
vt 0.718750 0.765625
vt 0.718750 0.781250
vt 0.671875 1.000000
vt 0.656250 0.937500
vt 0.656250 0.875000
vt 0.656250 0.812500
vt 0.656250 0.750000
vt 0.656250 0.687500
vt 0.687500 0.625000
vt 0.656250 0.625000
vt 0.656250 0.562500
vt 0.656250 0.500000
vt 0.625000 0.750000
vt 0.625000 0.687500
vt 0.625000 0.625000
vt 0.625000 0.562500
vt 0.625000 0.500000
vt 0.640625 1.000000
vt 0.625000 0.937500
vt 0.625000 0.875000
vt 0.625000 0.812500
vt 0.593750 0.937500
vt 0.593750 0.875000
vt 0.593750 0.812500
vt 0.593750 0.750000
vt 0.593750 0.687500
vt 0.593750 0.625000
vt 0.593750 0.562500
vt 0.593750 0.500000
vt 0.609375 1.000000
vt 0.562500 0.687500
vt 0.562500 0.625000
vt 0.562500 0.562500
vt 0.562500 0.500000
vt 0.578125 1.000000
vt 0.562500 0.937500
vt 0.562500 0.875000
vt 0.562500 0.812500
vt 0.562500 0.750000
vt 0.531250 0.875000
vt 0.531250 0.812500
vt 0.531250 0.796875
vt 0.531250 0.781250
vt 0.531250 0.765625
vt 0.531250 0.750000
vt 0.531250 0.734375
vt 0.531250 0.718750
vt 0.531250 0.703125
vt 0.531250 0.687500
vt 0.531250 0.671875
vt 0.531250 0.656250
vt 0.531250 0.640625
vt 0.531250 0.625000
vt 0.531250 0.609375
vt 0.531250 0.593750
vt 0.531250 0.578125
vt 0.531250 0.562500
vt 0.531250 0.500000
vt 0.546875 1.000000
vt 0.531250 0.937500
vt 0.523438 0.625000
vt 0.523438 0.593750
vt 0.523438 0.562500
vt 0.515625 0.562500
vt 0.507812 0.562500
vt 0.500000 0.562500
vt 0.500000 0.500000
vt 0.515625 1.000000
vt 0.500000 0.937500
vt 0.500000 0.875000
vt 0.468750 0.812500
vt 0.507812 0.718750
vt 0.507812 0.750000
vt 0.500000 0.750000
vt 0.500000 0.734375
vt 0.500000 0.718750
vt 0.507812 0.640625
vt 0.507812 0.687500
vt 0.500000 0.687500
vt 0.500000 0.671875
vt 0.500000 0.656250
vt 0.500000 0.640625
vt 0.500000 0.812500
vt 0.468750 0.875000
vt 0.476562 0.718750
vt 0.476562 0.750000
vt 0.468750 0.750000
vt 0.468750 0.734375
vt 0.468750 0.718750
vt 0.476562 0.640625
vt 0.476562 0.687500
vt 0.468750 0.687500
vt 0.468750 0.671875
vt 0.468750 0.656250
vt 0.468750 0.640625
vt 0.492188 0.625000
vt 0.492188 0.593750
vt 0.500000 0.593750
vt 0.500000 0.609375
vt 0.500000 0.625000
vt 0.492188 0.562500
vt 0.484375 0.562500
vt 0.476562 0.562500
vt 0.468750 0.562500
vt 0.468750 0.500000
vt 0.484375 1.000000
vt 0.468750 0.937500
vt 0.468750 0.578125
vt 0.468750 0.593750
vt 0.468750 0.609375
vt 0.468750 0.625000
vt 0.437500 0.625000
vt 0.437500 0.562500
vt 0.437500 0.500000
vt 0.453125 1.000000
vt 0.437500 0.937500
vt 0.437500 0.875000
vt 0.437500 0.812500
vt 0.468750 0.765625
vt 0.468750 0.781250
vt 0.468750 0.796875
vt 0.437500 0.750000
vt 0.468750 0.703125
vt 0.437500 0.687500
vt 0.406250 0.812500
vt 0.406250 0.750000
vt 0.406250 0.687500
vt 0.406250 0.562500
vt 0.406250 0.500000
vt 0.421875 1.000000
vt 0.406250 0.937500
vt 0.406250 0.875000
vt 0.375000 0.562500
vt 0.375000 0.500000
vt 0.390625 1.000000
vt 0.375000 0.937500
vt 0.375000 0.875000
vt 0.843750 0.562500
vt 0.843750 0.625000
vt 0.226562 0.562500
vt 0.226562 0.593750
vt 0.218750 0.593750
vt 0.218750 0.562500
vt 0.343750 0.562500
vt 0.343750 0.500000
vt 0.359375 1.000000
vt 0.343750 0.937500
vt 0.343750 0.875000
vt 0.312500 0.562500
vt 0.312500 0.500000
vt 0.328125 1.000000
vt 0.312500 0.937500
vt 0.312500 0.875000
vt 0.343750 0.812500
vt 0.312500 0.812500
vt 0.312500 0.750000
vt 0.343750 0.750000
vt 0.312500 0.687500
vt 0.312500 0.625000
vt 0.343750 0.625000
vt 0.281250 0.750000
vt 0.281250 0.734375
vt 0.281250 0.718750
vt 0.281250 0.703125
vt 0.281250 0.687500
vt 0.281250 0.671875
vt 0.281250 0.656250
vt 0.281250 0.640625
vt 0.281250 0.625000
vt 0.281250 0.593750
vt 0.281250 0.562500
vt 0.281250 0.500000
vt 0.296875 1.000000
vt 0.281250 0.937500
vt 0.281250 0.875000
vt 0.281250 0.812500
vt 0.281250 0.796875
vt 0.281250 0.781250
vt 0.281250 0.765625
vt 0.250000 0.937500
vt 0.250000 0.875000
vt 0.250000 0.812500
vt 0.250000 0.781250
vt 0.257812 0.781250
vt 0.265625 0.781250
vt 0.273438 0.781250
vt 0.273438 0.750000
vt 0.273438 0.734375
vt 0.257812 0.640625
vt 0.257812 0.687500
vt 0.250000 0.687500
vt 0.250000 0.671875
vt 0.250000 0.656250
vt 0.250000 0.640625
vt 0.257812 0.593750
vt 0.257812 0.625000
vt 0.250000 0.625000
vt 0.250000 0.593750
vt 0.273438 0.562500
vt 0.265625 0.562500
vt 0.257812 0.562500
vt 0.250000 0.562500
vt 0.250000 0.500000
vt 0.265625 1.000000
vt 0.226562 0.640625
vt 0.226562 0.687500
vt 0.218750 0.687500
vt 0.218750 0.671875
vt 0.218750 0.656250
vt 0.218750 0.640625
vt 0.226562 0.625000
vt 0.218750 0.625000
vt 0.242187 0.562500
vt 0.234375 0.562500
vt 0.218750 0.500000
vt 0.234375 1.000000
vt 0.218750 0.937500
vt 0.218750 0.875000
vt 0.218750 0.812500
vt 0.218750 0.781250
vt 0.226562 0.781250
vt 0.234375 0.781250
vt 0.242188 0.781250
vt 0.226562 0.734375
vt 0.226562 0.750000
vt 0.218750 0.750000
vt 0.218750 0.734375
vt 0.187500 0.937500
vt 0.187500 0.875000
vt 0.187500 0.812500
vt 0.187500 0.750000
vt 0.218750 0.703125
vt 0.218750 0.718750
vt 0.187500 0.687500
vt 0.187500 0.625000
vt 0.187500 0.562500
vt 0.187500 0.500000
vt 0.203125 1.000000
vt 0.156250 0.687500
vt 0.156250 0.625000
vt 0.156250 0.562500
vt 0.156250 0.500000
vt 0.171875 1.000000
vt 0.156250 0.937500
vt 0.156250 0.875000
vt 0.156250 0.812500
vt 0.156250 0.750000
vt 0.125000 0.875000
vt 0.125000 0.812500
vt 0.125000 0.750000
vt 0.125000 0.687500
vt 0.125000 0.562500
vt 0.125000 0.500000
vt 0.140625 1.000000
vt 0.125000 0.937500
vt 0.093750 0.562500
vt 0.093750 0.500000
vt 0.109375 1.000000
vt 0.093750 0.937500
vt 0.093750 0.875000
vt 0.093750 0.812500
vt 0.062500 0.750000
vt 0.062500 0.562500
vt 0.062500 0.500000
vt 0.078125 1.000000
vt 0.062500 0.937500
vt 0.062500 0.875000
vt 0.062500 0.625000
vt 0.031250 0.625000
vt 0.031250 0.609375
vt 0.031250 0.593750
vt 0.031250 0.578125
vt 0.031250 0.562500
vt 0.031250 0.500000
vt 0.046875 1.000000
vt 0.031250 0.937500
vt 0.031250 0.875000
vt 0.062500 0.812500
vt 0.031250 0.812500
vt 0.031250 0.796875
vt 0.031250 0.781250
vt 0.031250 0.765625
vt 0.031250 0.750000
vt 0.031250 0.687500
vt 0.062500 0.687500
vt 0.031250 0.734375
vt 0.031250 0.718750
vt 0.031250 0.703125
vt 0.031250 0.671875
vt 0.031250 0.656250
vt 0.031250 0.640625
vt 0.007812 0.734375
vt 0.007812 0.750000
vt 0.000000 0.750000
vt 0.000000 0.734375
vt 0.007812 0.671875
vt 0.007812 0.687500
vt 0.000000 0.687500
vt 0.000000 0.671875
vt 0.007812 0.609375
vt 0.007812 0.625000
vt 0.000000 0.625000
vt 0.000000 0.609375
vt 0.023437 0.562500
vt 0.015625 0.562500
vt 0.007812 0.562500
vt 0.000000 0.562500
vt 0.000000 0.500000
vt 0.015625 1.000000
vt 0.000000 0.937500
vt 0.000000 0.875000
vt 0.750000 0.781250
vt 0.750000 0.812500
vt 1.000000 0.500000
vt 1.000000 0.562500
vt 0.992188 0.562500
vt 0.984375 0.562500
vt 0.976562 0.562500
vt 0.968750 0.562500
vt 0.968750 0.500000
vt 1.000000 0.937500
vt 0.984375 1.000000
vt 0.968750 0.937500
vt 1.000000 0.875000
vt 0.968750 0.875000
vt 0.976562 0.734375
vt 0.976562 0.750000
vt 0.968750 0.750000
vt 0.968750 0.734375
vt 0.976562 0.671875
vt 0.976562 0.687500
vt 0.968750 0.687500
vt 0.968750 0.671875
vt 0.976562 0.609375
vt 0.976562 0.625000
vt 0.968750 0.625000
vt 0.968750 0.609375
vt 0.968750 0.703125
vt 0.968750 0.718750
vt 0.937500 0.750000
vt 0.937500 0.687500
vt 0.968750 0.640625
vt 0.968750 0.656250
vt 0.937500 0.625000
vt 0.968750 0.578125
vt 0.968750 0.593750
vt 0.937500 0.562500
vt 0.937500 0.500000
vt 0.953125 1.000000
vt 0.937500 0.937500
vt 0.937500 0.875000
vt 0.968750 0.812500
vt 0.937500 0.812500
vt 0.968750 0.765625
vt 0.968750 0.781250
vt 0.968750 0.796875
vt 0.921875 1.000000
vt 0.906250 0.937500
vt 0.906250 0.875000
vt 0.906250 0.812500
vt 0.906250 0.750000
vt 0.906250 0.687500
vt 0.906250 0.625000
vt 0.906250 0.562500
vt 0.906250 0.500000
vt 0.875000 0.750000
vt 0.843750 0.750000
vt 0.843750 0.687500
vt 0.242188 0.640625
vt 0.242188 0.625000
vt 0.875000 0.562500
vt 0.875000 0.500000
vt 0.890625 1.000000
vt 0.875000 0.937500
vt 0.875000 0.875000
vt 0.875000 0.812500
vt 0.843750 0.937500
vt 0.843750 0.875000
vt 0.843750 0.812500
vt 0.242187 0.687500
vt 0.843750 0.500000
vt 0.859375 1.000000
vt 0.812500 0.687500
vt 0.812500 0.562500
vt 0.812500 0.500000
vt 0.828125 1.000000
vt 0.812500 0.937500
vt 0.812500 0.875000
vt 0.812500 0.812500
vt 0.812500 0.750000
vt 0.781250 0.937500
vt 0.781250 0.875000
vt 0.781250 0.812500
vt 0.781250 0.781250
vt 0.781250 0.750000
vt 0.781250 0.734375
vt 0.781250 0.718750
vt 0.781250 0.703125
vt 0.781250 0.687500
vt 0.812500 0.625000
vt 0.781250 0.656250
vt 0.781250 0.640625
vt 0.781250 0.625000
vt 0.796875 0.625000
vt 0.781250 0.562500
vt 0.781250 0.500000
vt 0.796875 1.000000
vt 0.757812 0.656250
vt 0.757812 0.687500
vt 0.750000 0.687500
vt 0.750000 0.656250
vt 0.757812 0.593750
vt 0.757812 0.625000
vt 0.750000 0.625000
vt 0.750000 0.593750
vt 0.773438 0.562500
vt 0.765625 0.562500
vt 0.757812 0.562500
vt 0.765625 1.000000
vt 0.757812 0.718750
vt 0.757812 0.750000
vt 0.750000 0.750000
vt 0.750000 0.734375
vt 0.750000 0.718750
vt 0.273438 0.625000
vt 0.273438 0.640625
vt 0.265625 0.625000
vt 0.757809 0.578555
vt 0.750000 0.578984
vt 0.726562 0.578125
vt 0.718750 0.578125
vt 0.742188 0.593750
vt 0.742188 0.578555
vt 0.742188 0.625000
vt 0.781250 0.593750
vt 0.773438 0.625000
vt 0.773438 0.593750
vt 0.726562 0.640625
vt 0.718750 0.640625
vt 0.757812 0.640625
vt 0.750000 0.640625
vt 0.742188 0.640625
vt 0.734375 0.640625
vt 0.734375 0.625000
vt 0.742188 0.656250
vt 0.742188 0.687500
vt 0.773438 0.687500
vt 0.773438 0.656250
vt 0.773438 0.640625
vt 0.765625 0.625000
vt 0.765625 0.640625
vt 0.773438 0.750000
vt 0.773438 0.718750
vt 0.742188 0.750000
vt 0.742188 0.718750
vt 0.773438 0.703125
vt 0.757812 0.703125
vt 0.750000 0.703125
vt 0.742188 0.703125
vt 0.726562 0.703125
vt 0.734375 0.703125
vt 0.734375 0.718750
vt 0.765625 0.703125
vt 0.765625 0.718750
vt 0.726562 0.765625
vt 0.742188 0.781250
vt 0.726562 0.781250
vt 0.757812 0.781250
vt 0.773438 0.781250
vt 0.273438 0.593750
vt 0.234375 0.625000
vt 0.242188 0.593750
vt 0.273438 0.687500
vt 0.257812 0.703125
vt 0.250000 0.703125
vt 0.226562 0.703125
vt 0.273438 0.703125
vt 0.242187 0.703125
vt 0.226562 0.718750
vt 0.250000 0.718750
vt 0.242188 0.718750
vt 0.257812 0.718750
vt 0.257812 0.734375
vt 0.250000 0.734375
vt 0.242188 0.734375
vt 0.250000 0.750000
vt 0.242188 0.750000
vt 0.257812 0.750000
vt 0.273438 0.718750
vt 0.476562 0.593750
vt 0.507812 0.593750
vt 0.500000 0.578125
vt 0.476562 0.625000
vt 0.507812 0.625000
vt 0.523438 0.640625
vt 0.515625 0.640625
vt 0.515625 0.625000
vt 0.492188 0.640625
vt 0.484375 0.640625
vt 0.484375 0.625000
vt 0.507812 0.703125
vt 0.500000 0.703125
vt 0.476562 0.703125
vt 0.492187 0.687500
vt 0.492188 0.703125
vt 0.523438 0.687500
vt 0.523438 0.703125
vt 0.492188 0.718750
vt 0.484375 0.718750
vt 0.484375 0.703125
vt 0.523438 0.718750
vt 0.515625 0.718750
vt 0.515625 0.703125
vt 0.476562 0.781250
vt 0.507812 0.781250
vt 0.500000 0.781250
vt 0.500000 0.765625
vt 0.492188 0.750000
vt 0.492188 0.781250
vt 0.523438 0.750000
vt 0.523438 0.781250
vt 0.976562 0.578125
vt 0.976562 0.593750
vt 0.976562 0.640625
vt 0.976562 0.656250
vt 0.976562 0.703125
vt 0.976562 0.718750
vt 0.992188 0.703125
vt 0.992188 0.718750
vt 0.984375 0.718750
vt 0.984375 0.703125
vt 0.976562 0.765625
vt 0.976562 0.781250
vt 0.007812 0.578125
vt 0.007812 0.593750
vt 0.000000 0.593750
vt 0.000000 0.578125
vt 0.007812 0.640625
vt 0.007812 0.656250
vt 0.000000 0.656250
vt 0.000000 0.640625
vt 0.007812 0.703125
vt 0.007812 0.718750
vt 0.000000 0.718750
vt 0.000000 0.703125
vt 0.023437 0.703125
vt 0.023437 0.718750
vt 0.015625 0.718750
vt 0.015625 0.703125
vt 0.007812 0.765625
vt 0.007812 0.781250
vt 0.000000 0.781250
vt 0.000000 0.765625
vt 0.023437 0.765625
vt 0.023438 0.750000
vt 0.023437 0.781250
vt 0.023437 0.734375
vt 0.023437 0.687500
vt 0.023437 0.671875
vt 0.023437 0.656250
vt 0.023438 0.625000
vt 0.023437 0.640625
vt 0.015625 0.640625
vt 0.015625 0.625000
vt 0.023437 0.609375
vt 0.023437 0.593750
vt 0.023437 0.578125
vt 1.000000 0.750000
vt 1.000000 0.765625
vt 0.992188 0.765625
vt 0.992188 0.750000
vt 1.000000 0.781250
vt 0.992188 0.781250
vt 1.000000 0.718750
vt 1.000000 0.734375
vt 0.992188 0.734375
vt 1.000000 0.687500
vt 1.000000 0.703125
vt 0.992188 0.687500
vt 1.000000 0.656250
vt 1.000000 0.671875
vt 0.992188 0.671875
vt 0.992188 0.656250
vt 0.992188 0.625000
vt 0.992188 0.640625
vt 0.984375 0.640625
vt 0.984375 0.625000
vt 1.000000 0.625000
vt 1.000000 0.640625
vt 1.000000 0.593750
vt 1.000000 0.609375
vt 0.992188 0.609375
vt 0.992188 0.593750
vt 1.000000 0.578125
vt 0.992188 0.578125
s 1
usemtl Material.011
f 379/90/25 373/91/26 85/92/27 367/93/25
f 358/94/28 360/95/29 86/96/30 345/97/28
f 80/98/31 79/99/32 353/100/33 346/101/34 357/102/33 87/103/35 88/104/36
f 330/105/37 121/106/38 81/107/39
f 331/108/40 330/105/37 81/107/39 82/109/41
f 418/110/42 406/110/43 77/110/44 324/110/45
f 409/111/46 390/112/47 84/113/48 393/114/49 391/115/49
f 85/92/27 392/116/49 391/115/49 393/114/49 84/113/48 92/117/50 93/118/51
f 94/110/52 86/110/53 85/92/27 93/118/51
f 87/110/54 95/110/54 94/110/54 86/110/54
f 88/104/36 87/110/35 95/119/55 96/120/56
f 81/107/39 121/121/38 89/122/57
f 82/109/41 81/107/39 89/122/57 90/123/58
f 83/124/59 82/109/41 90/123/58 91/125/60
f 84/113/48 413/126/61 369/127/62 83/124/59 91/125/60 92/117/50
f 89/122/57 121/128/38 97/129/63
f 90/123/58 89/122/57 97/129/63 98/130/64
f 91/125/60 90/123/58 98/130/64 99/131/65
f 92/117/50 91/125/60 99/131/65 100/132/66
f 93/118/51 92/117/50 100/132/66 101/133/67
f 94/134/52 93/118/51 101/133/67 102/135/68
f 102/135/68 103/136/69 95/110/55 94/134/52
f 96/120/56 95/119/55 103/136/69 104/137/70
f 101/133/67 100/132/66 108/138/71 109/139/72
f 102/135/68 101/133/67 109/139/72 110/140/73
f 103/136/69 102/135/68 110/140/73 111/141/74
f 104/137/70 103/136/69 111/141/74 112/142/75
f 97/129/63 121/143/38 105/144/76
f 98/130/64 97/129/63 105/144/76 106/145/77
f 99/131/65 98/130/64 106/145/77 107/146/78
f 100/132/66 99/131/65 107/146/78 108/138/71
f 106/145/77 105/144/76 113/147/79 114/148/80
f 107/146/78 106/145/77 114/148/80 115/149/81
f 108/138/71 107/146/78 115/149/81 116/150/82
f 109/139/72 108/138/71 116/150/82 117/151/83
f 110/140/73 109/139/72 117/151/83 118/152/84
f 111/141/74 110/140/73 118/152/84 119/153/85
f 112/142/75 111/141/74 119/153/85 120/154/86
f 105/144/76 121/155/38 113/147/79
f 118/152/84 117/151/83 126/156/87 127/157/88
f 119/153/85 118/152/84 127/157/88 128/158/89
f 120/154/86 119/153/85 128/158/89 129/159/90
f 113/147/79 121/160/38 122/161/91
f 114/148/80 113/147/79 122/161/91 123/162/92
f 115/149/81 114/148/80 123/162/92 124/163/93
f 116/150/82 115/149/81 124/163/93 125/164/94
f 117/151/83 116/150/82 125/164/94 126/156/87
f 124/163/93 123/162/92 131/165/95 132/166/96
f 125/164/94 124/163/93 132/166/96 507/167/97 499/168/98 503/169/99 133/170/100
f 126/156/87 125/164/94 133/170/100 508/171/101 500/172/101 504/173/101 134/174/102
f 127/157/88 126/156/87 134/174/102 509/175/103 501/176/103 505/177/103 135/178/104
f 128/158/89 127/157/88 135/178/104 510/179/105 502/180/105 506/181/105 136/182/106
f 129/159/90 128/158/89 136/182/106 137/183/107
f 122/161/91 121/184/38 130/185/108
f 123/162/92 122/161/91 130/185/108 131/165/95
f 533/186/109 538/187/110 502/180/105 510/179/105 135/178/104
f 137/183/107 136/182/106 525/188/111 523/189/112 527/190/111 144/191/113 145/192/114
f 130/185/108 121/193/38 138/194/115
f 131/165/95 130/185/108 138/194/115 139/195/116
f 468/110/117 499/110/118 132/110/96 140/110/119
f 140/110/119 148/196/120 511/110/121 468/110/117
f 558/197/122 563/198/123 141/199/124 496/200/125 488/201/125
f 547/202/126 553/203/127 142/204/128 497/205/129 489/206/129 493/207/129
f 140/208/119 139/195/116 147/209/130 148/196/120
f 132/110/96 131/165/95 139/195/116 140/110/119
f 557/210/131 564/211/132 149/212/133 520/213/134 512/214/134
f 548/215/135 554/216/136 150/217/137 521/218/138 513/219/138 517/220/139
f 532/221/140 536/222/141 490/223/142 498/224/142 143/225/143
f 145/192/114 144/191/113 526/226/144 524/227/145 528/228/144 152/229/146 153/230/147
f 138/194/115 121/231/38 146/232/148
f 139/195/116 138/194/115 146/232/148 147/209/130
f 152/229/146 518/233/149 514/234/149 522/235/149 151/236/150 159/237/151 160/238/152
f 153/230/147 152/229/146 160/238/152 161/239/153
f 146/232/148 121/240/38 154/241/154
f 147/209/130 146/232/148 154/241/154 155/242/155
f 148/196/120 147/209/130 155/242/155 156/243/156
f 149/212/133 515/244/157 511/245/158 519/246/159 148/196/120 156/243/156 157/247/160
f 150/217/137 516/248/134 512/214/134 520/213/134 149/212/133 157/247/160 158/249/161
f 151/236/150 517/220/139 513/219/138 521/218/138 150/217/137 158/249/161 159/237/151
f 156/243/156 164/250/162 165/110/163 157/247/160
f 158/249/161 157/247/160 165/251/163 166/252/164
f 158/249/161 166/252/164 167/110/165 159/237/151
f 160/238/152 159/237/151 167/110/165 168/253/166
f 161/239/153 160/238/152 168/253/166 169/254/167
f 154/241/154 121/255/38 162/256/168
f 155/242/155 154/241/154 162/256/168 163/257/169
f 156/243/156 155/242/155 163/257/169 164/250/162
f 169/254/167 168/110/166 176/258/170 177/259/170
f 162/256/168 121/260/38 170/261/171
f 163/257/169 162/256/168 170/261/171 171/262/172
f 164/110/162 163/257/169 171/262/172 172/110/173
f 312/263/174 304/110/175 303/110/176 311/264/177
f 173/110/178 165/110/163 164/110/162 172/110/173
f 427/265/179 429/266/180 339/267/181 216/268/182
f 173/110/183 174/110/184 182/110/185 181/110/186
f 177/259/170 176/110/170 184/269/187 185/270/188
f 170/261/171 121/271/38 178/272/189
f 171/262/172 170/261/171 178/272/189 179/273/190
f 172/110/173 171/262/172 179/273/190 180/110/191
f 185/270/188 184/269/187 192/274/192 193/275/193
f 178/272/189 121/276/38 186/277/194
f 179/273/190 178/272/189 186/277/194 187/278/195
f 180/279/191 179/273/190 187/278/195 188/280/196
f 189/281/197 181/282/198 180/110/191 188/280/196
f 189/281/197 190/283/199 182/110/200 181/282/198
f 168/110/201 176/110/202 175/110/203 167/110/204
f 191/284/205 192/274/192 184/110/187 183/285/206
f 190/283/199 189/281/197 197/286/207 458/287/208 456/288/208 457/289/208 198/290/209
f 191/284/205 190/283/199 198/290/209 443/291/210 441/292/210 442/293/210 199/294/211
f 192/274/192 191/284/205 199/294/211 337/295/212 200/296/213
f 193/275/193 192/274/192 200/296/213 201/297/214
f 186/277/194 121/298/38 194/299/215
f 187/278/195 186/277/194 194/299/215 195/300/216
f 188/280/196 187/278/195 195/300/216 196/301/217
f 189/281/197 188/280/196 196/301/217 482/302/218 480/303/218 481/304/218 197/286/207
f 195/300/216 194/299/215 202/305/219 203/306/220
f 196/301/217 195/300/216 203/306/220 204/307/221
f 476/308/222 484/309/223 483/310/223 485/311/223 480/303/218 482/302/218 196/301/217 204/307/221
f 471/312/224 487/313/225 458/287/208 197/286/207
f 448/314/226 445/315/227 206/316/228 440/317/229 438/318/229 439/319/229
f 426/320/230 422/321/231 207/322/232 340/323/233
f 201/297/214 200/296/213 430/324/234 338/325/235 424/326/234 208/327/236 209/328/237
f 194/299/215 121/329/38 202/305/219
f 447/330/238 433/331/239 214/332/240 437/333/241 435/334/241 436/335/242
f 429/266/180 428/336/243 215/337/244 339/267/181
f 209/328/237 208/327/236 423/338/179 335/339/245 427/265/179 216/268/182 217/340/246
f 202/305/219 121/341/38 210/342/247
f 203/306/220 202/305/219 210/342/247 211/343/248
f 204/307/221 203/306/220 211/343/248 212/344/249
f 476/308/222 204/307/221 212/344/249 473/345/250 478/346/251 477/347/251 479/348/251
f 474/349/252 467/350/253 213/351/254 455/352/255
f 211/343/248 210/342/247 218/353/256 219/354/257
f 212/344/249 211/343/248 219/354/257 220/355/258
f 213/351/254 473/345/250 212/344/249 220/355/258 221/356/259
f 214/332/240 454/357/255 453/358/255 455/352/255 213/351/254 221/356/259 222/359/260
f 215/337/244 436/335/242 435/334/241 437/333/241 214/332/240 222/359/260 223/360/261
f 216/268/182 339/267/181 215/337/244 223/360/261 224/361/262
f 217/340/246 216/268/182 224/361/262 225/362/263
f 210/342/247 121/363/38 218/353/256
f 223/360/261 222/359/260 230/364/264 231/365/265
f 224/361/262 223/360/261 231/365/265 232/366/266
f 225/362/263 224/361/262 232/366/266 233/367/267
f 218/353/256 121/368/38 226/369/268
f 219/354/257 218/353/256 226/369/268 227/370/269
f 220/355/258 219/354/257 227/370/269 228/371/270
f 221/356/259 220/355/258 228/371/270 229/372/271
f 222/359/260 221/356/259 229/372/271 230/364/264
f 228/371/270 227/370/269 235/373/272 236/374/273
f 229/372/271 228/371/270 236/374/273 237/375/274
f 230/364/264 229/372/271 237/375/274 238/376/275
f 230/364/264 238/376/275 239/110/276 231/365/265
f 231/365/265 239/110/276 240/110/277 232/366/266
f 233/367/267 232/366/266 240/377/277 241/378/278
f 226/369/268 121/379/38 234/380/279
f 227/370/269 226/369/268 234/380/279 235/373/272
f 241/378/278 240/110/277 248/381/280 249/382/281
f 234/380/279 121/383/38 242/384/282
f 235/373/272 234/380/279 242/384/282 243/385/283
f 236/374/273 235/373/272 243/385/283 244/386/284
f 254/110/285 246/110/286 245/110/287 253/387/288
f 237/375/274 245/110/287 246/110/286 238/376/275
f 255/110/289 247/110/290 246/110/286 254/110/285
f 249/382/281 248/110/280 256/388/291 257/389/292
f 242/384/282 121/390/38 250/391/293
f 243/385/283 242/384/282 250/391/293 251/392/294
f 256/388/291 255/393/289 263/394/295 614/395/296 574/396/296 594/397/296 264/398/297
f 257/389/292 256/388/291 264/398/297 265/399/298
f 250/391/293 121/400/38 258/401/299
f 251/392/294 250/391/293 258/401/299 259/402/300
f 252/403/301 251/392/294 259/402/300 260/404/302
f 253/387/288 252/403/301 260/404/302 611/405/303 571/406/304 591/407/305 261/408/306
f 262/409/307 254/410/285 253/387/288 261/408/306 612/411/308 572/412/308 592/413/308
f 263/394/295 255/393/289 254/110/285 262/409/307 613/414/309 573/415/309 593/416/309
f 678/417/310 619/418/311 269/419/312 616/420/313
f 677/421/314 620/422/315 270/423/316 617/424/317
f 676/425/318 621/426/319 271/427/320 618/428/321
f 265/399/298 264/398/297 602/429/322 580/430/323 622/431/322 272/432/324 273/433/325
f 258/401/299 121/434/38 266/435/326
f 259/402/300 258/401/299 266/435/326 267/436/327
f 406/437/43 369/127/328 83/124/328 77/438/44
f 273/439/325 272/440/324 627/441/329 585/442/330 607/443/329 280/444/331 281/445/332
f 266/446/326 121/447/38 274/448/333
f 267/449/327 266/446/326 274/448/333 275/450/334
f 267/110/335 259/110/336 260/110/336 268/110/335
f 675/451/337 628/452/338 277/453/339 624/454/340
f 674/455/341 629/456/342 278/457/343 625/458/344
f 673/459/345 630/460/346 279/461/347 626/462/348
f 278/457/343 604/463/340 582/464/340 624/454/340 277/453/339 285/465/349 286/466/350
f 279/461/347 605/467/344 583/468/344 625/458/344 278/457/343 286/466/350 287/469/351
f 280/444/331 606/470/348 584/471/348 626/462/348 279/461/347 287/469/351 288/472/352
f 281/445/332 280/444/331 288/472/352 289/473/353
f 274/448/333 121/474/38 282/475/354
f 275/450/334 274/448/333 282/475/354 283/476/355
f 276/477/356 275/450/334 283/476/355 284/478/357
f 277/453/339 603/479/358 581/480/359 623/481/360 276/477/356 284/478/357 285/465/349
f 282/475/354 121/482/38 290/483/361
f 283/476/355 282/475/354 290/483/361 291/484/362
f 284/478/357 283/476/355 291/484/362 292/485/363
f 285/465/349 284/478/357 292/485/363 293/486/364
f 286/466/350 285/465/349 293/486/364 294/487/365
f 287/469/351 286/466/350 294/487/365 295/488/366
f 288/472/352 287/469/351 295/488/366 296/489/367
f 289/473/353 288/472/352 296/489/367 297/490/368
f 294/487/365 293/486/364 301/491/369 302/110/370
f 302/110/370 301/491/369 309/492/371 310/493/372
f 207/322/232 439/319/229 446/494/238 421/495/243
f 297/490/368 296/489/367 304/496/175 305/497/373
f 290/483/361 121/498/38 298/499/374
f 291/484/362 290/483/361 298/499/374 299/500/375
f 292/485/363 291/484/362 299/500/375 300/501/376
f 293/486/364 292/485/363 300/501/376 301/491/369
f 299/500/375 298/499/374 306/502/377 307/503/378
f 300/501/376 299/500/375 307/503/378 308/504/379
f 301/491/369 300/501/376 308/504/379 309/492/371
f 302/110/370 310/493/372 311/264/177 303/110/176
f 439/319/229 438/318/229 440/317/229 206/316/228 434/505/239 446/494/238
f 424/326/234 426/320/230 340/323/233 208/327/236
f 305/497/373 304/110/175 312/263/174 313/506/380
f 298/499/374 121/507/38 306/502/377
f 318/508/381 319/110/382 311/264/177 310/493/372
f 311/264/177 319/110/382 320/509/383 312/263/174
f 313/506/380 312/263/174 320/509/383 321/510/384
f 306/502/377 121/511/38 314/512/385
f 307/503/378 306/502/377 314/512/385 315/513/386
f 308/504/379 307/503/378 315/513/386 316/514/387
f 309/492/371 308/504/379 316/514/387 317/515/388
f 310/493/372 309/492/371 317/515/388 318/508/381
f 315/513/386 314/512/385 322/516/389 323/517/390
f 316/514/387 315/513/386 323/517/390 324/518/391
f 317/515/388 316/514/387 324/518/391 418/519/392 325/520/393
f 318/508/381 317/515/388 325/520/393 399/521/394 397/522/394 398/523/394 326/524/395
f 319/525/382 318/508/381 326/524/395 368/526/396 383/527/396 327/528/397 349/529/398
f 321/510/384 320/509/383 328/530/399 329/531/400
f 314/512/385 121/532/38 322/516/389
f 381/533/401 374/534/402 78/535/403 348/536/404
f 351/537/405 350/538/406 333/539/407 343/540/408
f 329/531/400 328/530/399 364/541/409 344/542/410 352/543/409 79/99/32 80/98/31
f 322/516/389 121/544/38 330/105/37
f 323/517/390 322/516/389 330/105/37 331/108/40
f 412/545/411 389/546/412 332/547/413 396/548/414 394/549/414
f 174/110/184 166/110/415 167/110/204 175/110/203
f 175/110/203 183/110/416 182/110/185 174/110/184
f 191/284/205 183/285/206 182/110/200 190/283/199
f 176/110/202 184/110/417 183/110/416 175/110/203
f 432/550/231 449/551/226 448/314/226 422/321/231 336/552/226
f 303/110/176 304/110/175 296/489/367 295/488/366
f 303/110/176 295/488/366 294/487/365 302/110/370
f 181/110/198 173/110/178 172/110/173 180/110/191
f 256/110/291 248/110/280 247/110/290 255/110/289
f 246/110/286 247/110/290 239/110/276 238/376/275
f 240/110/277 239/110/276 247/110/290 248/110/280
f 363/553/405 351/537/405 343/540/408 361/554/408
f 359/555/28 358/94/28 345/97/28 356/556/28
f 328/530/399 320/509/383 319/110/382 327/110/418
f 357/102/33 359/555/28 356/556/28 87/103/35
f 361/554/408 343/540/408 354/557/28 362/558/28
f 343/540/408 333/539/407 355/559/29 354/557/28
f 79/99/32 361/554/408 362/558/28 353/100/33
f 352/543/409 363/553/405 361/554/408 79/99/32
f 341/560/405 327/528/397 365/561/406 366/562/405
f 328/530/399 341/560/405 366/562/405 364/541/409
f 380/563/25 379/90/25 367/93/25 370/564/25
f 386/565/401 381/533/401 348/536/404 371/566/404
f 355/559/29 378/567/25 372/568/25 347/569/25
f 360/95/29 380/563/25 370/564/25 86/96/30
f 371/566/404 348/536/404 377/570/25 378/567/25
f 348/536/404 78/535/403 376/571/26 377/570/25
f 333/539/407 371/566/404 378/567/25 355/559/29
f 347/569/25 372/568/25 380/563/25 360/95/29
f 368/526/396 326/524/395 375/572/402 382/573/401
f 383/527/396 368/526/396 382/573/401 384/574/401
f 342/575/401 385/576/401 386/565/401 350/538/406
f 365/561/406 384/574/401 385/576/401 342/575/401
f 327/528/397 383/527/396 384/574/401 365/561/406
f 350/538/406 386/565/401 371/566/404 333/539/407
f 397/522/394 399/521/394 325/520/393 387/577/412 410/578/411
f 394/549/414 396/548/414 332/547/413 388/579/47 407/580/46
f 326/524/395 398/523/394 400/581/411 375/572/402
f 374/534/402 402/582/411 395/583/414 78/535/403
f 78/535/403 395/583/414 403/584/46 376/571/26
f 373/91/26 405/585/46 392/116/49 85/92/27
f 404/586/46 408/587/46 409/111/46 405/585/46
f 403/584/46 407/580/46 408/587/46 404/586/46
f 395/583/414 394/549/414 407/580/46 403/584/46
f 405/585/46 409/111/46 391/115/49 392/116/49
f 401/588/411 411/589/411 412/545/411 402/582/411
f 400/581/411 410/578/411 411/589/411 401/588/411
f 398/523/394 397/522/394 410/578/411 400/581/411
f 402/582/411 412/545/411 394/549/414 395/583/414
f 331/110/419 323/110/419 324/110/45 77/110/44
f 390/112/47 414/590/420 413/126/61 84/113/48
f 388/579/47 332/547/413 406/437/421 415/591/420
f 414/590/420 416/592/420 369/127/62 413/126/61
f 332/547/413 389/546/412 420/593/422 406/437/421
f 325/520/393 418/519/392 419/594/422 387/577/412
f 244/386/284 243/385/283 251/392/294 252/403/301
f 245/110/287 244/386/284 252/403/301 253/387/288
f 245/110/287 237/375/274 236/374/273 244/386/284
f 173/110/183 165/110/423 166/110/415 174/110/184
f 337/295/212 199/294/211 432/550/231 431/595/230
f 200/296/213 337/295/212 431/595/230 430/324/234
f 421/495/243 446/494/238 447/330/238 428/336/243 334/596/238
f 208/327/236 340/323/233 425/597/180 423/338/179
f 340/323/233 207/322/232 421/495/243 425/597/180
f 428/336/243 447/330/238 436/335/242 215/337/244
f 422/321/231 448/314/226 439/319/229 207/322/232
f 442/293/210 441/292/210 443/291/210 198/290/209 444/598/227 449/551/226
f 199/294/211 442/293/210 449/551/226 432/550/231
f 445/315/227 460/599/225 451/600/424 206/316/228
f 433/331/239 461/601/252 454/357/255 214/332/240
f 198/290/209 457/289/208 462/602/225 444/598/227
f 206/316/228 451/600/424 463/603/252 434/505/239
f 461/601/252 464/604/252 453/358/255 454/357/255
f 451/600/424 450/605/424 465/606/252 463/603/252
f 461/601/252 463/603/252 465/606/252 464/604/252
f 464/604/252 474/349/252 455/352/255 453/358/255
f 469/607/225 486/608/225 452/609/424 450/605/424
f 470/110/425 462/110/425 460/110/425 469/110/425
f 450/605/424 452/609/424 475/610/252 465/606/252
f 452/609/424 205/611/426 466/612/253 475/610/252
f 467/350/253 478/346/251 473/345/250 213/351/254
f 205/611/426 476/308/222 479/348/251 466/612/253
f 472/613/224 484/309/223 476/308/222 205/611/426
f 456/288/208 458/287/208 487/313/225 470/614/225
f 197/286/207 481/304/218 480/303/218 485/311/223 471/312/224
f 452/609/424 486/608/225 472/613/224 205/611/426
f 450/605/424 451/600/424 460/110/225 469/607/225
f 456/288/208 470/614/225 462/110/225 457/289/208
f 528/228/144 535/615/141 514/234/149 518/233/149 152/229/146
f 527/190/111 537/616/110 490/223/142 494/617/142 144/191/113
f 514/234/149 535/615/141 534/618/140 151/236/150 522/235/149
f 136/182/106 506/181/105 502/180/105 538/187/110 525/188/111
f 490/223/142 537/616/110 531/619/109 143/225/143 498/224/142
f 144/191/113 494/617/142 490/223/142 536/222/141 526/226/144
f 135/178/104 505/177/103 549/620/126 545/621/126 547/202/126 493/207/129 143/225/143 531/619/109 529/622/126 533/186/109
f 143/225/143 493/207/129 550/623/135 546/624/135 548/215/135 517/220/139 151/236/150 534/618/140 530/625/135 532/221/140
f 553/203/127 541/626/122 492/627/125 142/204/128
f 554/216/136 542/628/131 516/248/134 150/217/137
f 493/207/129 489/206/129 497/205/129 142/204/128 552/629/136 550/623/135
f 142/204/128 492/627/125 544/630/131 552/629/136
f 505/177/103 501/176/103 509/175/103 134/174/102 551/631/127 549/620/126
f 134/174/102 504/173/101 543/632/122 551/631/127
f 492/627/125 488/201/125 559/633/131 555/634/131 557/210/131 512/214/134 516/248/134 542/628/131 540/635/131 544/630/131
f 504/173/101 500/172/101 560/636/122 556/637/122 558/197/122 488/201/125 492/627/125 541/626/122 539/638/122 543/632/122
f 564/211/132 567/639/121 511/245/158 515/244/157 149/212/133
f 563/198/123 568/640/118 468/641/117 491/642/117 141/199/124
f 488/201/125 496/200/125 141/199/124 562/643/132 559/633/131
f 141/199/124 491/642/117 468/641/117 569/644/121 562/643/132
f 500/172/101 508/171/101 133/170/100 561/645/123 560/636/122
f 133/170/100 503/169/99 499/168/98 570/646/118 561/645/123
f 672/647/345 631/648/345 584/471/348 606/470/348
f 669/649/341 633/650/341 583/468/344 605/467/344
f 666/651/337 636/652/337 582/464/340 604/463/340
f 665/653/337 637/654/337 587/655/337 638/656/337
f 663/657/427 639/658/427 581/480/359 603/479/358
f 661/659/318 641/660/318 578/661/321 598/662/321
f 658/663/314 643/664/314 577/665/317 597/666/317
f 655/667/310 646/668/310 576/669/313 596/670/313
f 654/671/310 647/672/310 589/673/310 648/674/310
f 652/675/428 649/676/428 575/677/429 595/678/429
f 261/408/306 591/407/305 651/679/428 599/680/311
f 591/407/305 571/406/304 650/681/428 651/679/428
f 619/418/311 652/675/428 595/678/429 269/419/312
f 572/412/308 612/411/308 653/682/310 647/672/310
f 612/411/308 261/408/306 599/680/311 653/682/310
f 262/409/307 592/413/308 654/671/310 600/683/315
f 592/413/308 572/412/308 647/672/310 654/671/310
f 620/422/315 655/667/310 596/670/313 270/423/316
f 648/674/310 589/673/310 646/668/310 655/667/310
f 573/415/309 613/414/309 656/684/314 644/685/314
f 613/414/309 262/409/307 600/683/315 656/684/314
f 601/686/319 657/687/314 645/688/314 579/689/314
f 263/394/295 593/416/309 657/687/314 601/686/319
f 593/416/309 573/415/309 644/685/314 657/687/314
f 621/426/319 658/663/314 597/666/317 271/427/320
f 579/689/314 645/688/314 658/663/314 621/426/319
f 574/396/296 614/395/296 659/690/318 642/691/318
f 614/395/296 263/394/295 601/686/319 659/690/318
f 264/398/297 594/397/296 660/692/318 602/429/322
f 594/397/296 574/396/296 642/691/318 660/692/318
f 622/431/322 661/659/318 598/662/321 272/432/324
f 575/110/429 571/110/428 260/110/428 268/110/429
f 269/693/312 595/694/429 662/695/427 608/696/338
f 595/694/429 575/697/429 640/698/427 662/695/427
f 628/452/338 663/657/427 603/479/358 277/453/339
f 576/699/313 616/700/313 664/701/337 637/654/337
f 616/700/313 269/693/312 608/696/338 664/701/337
f 270/702/316 596/703/313 665/653/337 609/704/342
f 596/703/313 576/699/313 637/654/337 665/653/337
f 629/456/342 666/651/337 604/463/340 278/457/343
f 638/656/337 587/655/337 636/652/337 666/651/337
f 577/705/317 617/706/317 667/707/341 634/708/341
f 617/706/317 270/702/316 609/704/342 667/707/341
f 610/709/346 668/710/341 635/711/341 586/712/341
f 271/713/320 597/714/317 668/710/341 610/709/346
f 597/714/317 577/705/317 634/708/341 668/710/341
f 630/460/346 669/649/341 605/467/344 279/461/347
f 586/712/341 635/711/341 669/649/341 630/460/346
f 578/715/321 618/716/321 670/717/345 632/718/345
f 618/716/321 271/713/320 610/709/346 670/717/345
f 272/440/324 598/719/321 671/720/345 627/441/329
f 598/719/321 578/715/321 632/718/345 671/720/345
f 607/443/329 672/647/345 606/470/348 280/444/331
f 631/648/345 673/459/345 626/462/348 584/471/348
f 633/650/341 674/455/341 625/458/344 583/468/344
f 636/652/337 675/451/337 624/454/340 582/464/340
f 641/660/318 676/425/318 618/428/321 578/661/321
f 643/664/314 677/421/314 617/424/317 577/665/317
f 646/668/310 678/417/310 616/420/313 576/669/313
f 581/110/427 575/110/429 268/110/429 276/110/427
f 275/110/430 267/110/335 268/110/335 276/110/430
f 331/110/40 82/110/41 83/110/59 77/110/431
l 417 416
l 415 417
l 419 420
l 462 459
l 459 460
l 495 468
l 140 495
l 569 565
l 570 566
l 565 567
l 566 568
l 615 575
l 640 588
l 650 590
l 268 615
l 588 639
l 590 649
o syningarsalur
v 0.000000 -0.020000 8.000000
v 12.010433 -0.020000 12.974885
v 12.010433 0.980000 12.974885
v 10.809105 -0.020000 15.222413
v 10.809105 0.980000 15.222413
v 9.192388 -0.020000 17.192387
v 9.192388 0.980000 17.192387
v 7.222413 -0.020000 18.809105
v 7.222413 0.980000 18.809105
v 4.974885 -0.020000 20.010433
v 4.974885 0.980000 20.010433
v 2.536174 -0.020000 20.750208
v 2.536174 0.980000 20.750208
v 0.000000 -0.020000 21.000000
v 0.000000 0.980000 21.000000
v -2.536174 -0.020000 20.750208
v -2.536174 0.980000 20.750208
v -4.974885 -0.020000 20.010433
v -4.974885 0.980000 20.010433
v -7.222413 -0.020000 18.809105
v -7.222413 0.980000 18.809105
v -9.192388 -0.020000 17.192387
v -9.192388 0.980000 17.192387
v -10.809105 -0.020000 15.222413
v -10.809105 0.980000 15.222413
v -12.010433 -0.020000 12.974885
v -12.010433 0.980000 12.974885
v 0.000000 0.980000 8.000000
vn 0.8819 -0.0000 0.4714
vn 0.7730 -0.0000 0.6344
vn 0.6344 -0.0000 0.7730
vn 0.4714 -0.0000 0.8819
vn 0.2903 -0.0000 0.9569
vn 0.0980 -0.0000 0.9952
vn -0.0980 -0.0000 0.9952
vn -0.2903 -0.0000 0.9569
vn -0.4714 -0.0000 0.8819
vn -0.6344 -0.0000 0.7730
vn -0.7730 -0.0000 0.6344
vn -0.8819 -0.0000 0.4714
vn -0.3827 -0.0000 -0.9239
vn 0.3827 -0.0000 -0.9239
vn -0.0000 1.0000 -0.0000
vn -0.0000 -1.0000 -0.0000
vt 0.687500 0.500000
vt 0.687500 1.000000
vt 0.656250 1.000000
vt 0.656250 0.500000
vt 0.625000 1.000000
vt 0.625000 0.500000
vt 0.593750 1.000000
vt 0.593750 0.500000
vt 0.562500 1.000000
vt 0.562500 0.500000
vt 0.531250 1.000000
vt 0.531250 0.500000
vt 0.500000 1.000000
vt 0.500000 0.500000
vt 0.468750 1.000000
vt 0.468750 0.500000
vt 0.437500 1.000000
vt 0.437500 0.500000
vt 0.406250 1.000000
vt 0.406250 0.500000
vt 0.375000 1.000000
vt 0.375000 0.500000
vt 0.343750 1.000000
vt 0.343750 0.500000
vt 0.312500 1.000000
vt 0.312500 0.500000
vt 0.000000 0.000000
s 0
usemtl Material.013
f 680/721/432 681/722/432 683/723/432 682/724/432
f 682/724/433 683/723/433 685/725/433 684/726/433
f 684/726/434 685/725/434 687/727/434 686/728/434
f 686/728/435 687/727/435 689/729/435 688/730/435
f 688/730/436 689/729/436 691/731/436 690/732/436
f 690/732/437 691/731/437 693/733/437 692/734/437
f 692/734/438 693/733/438 695/735/438 694/736/438
f 694/736/439 695/735/439 697/737/439 696/738/439
f 696/738/440 697/737/440 699/739/440 698/740/440
f 698/740/441 699/739/441 701/741/441 700/742/441
f 700/742/442 701/741/442 703/743/442 702/744/442
f 702/744/443 703/743/443 705/745/443 704/746/443
f 705/745/444 706/747/444 679/747/444 704/746/444
f 681/722/445 680/721/445 679/747/445 706/747/445
f 683/723/446 681/722/446 706/747/446 693/733/446 691/731/446 689/729/446 687/727/446 685/725/446
f 693/733/446 706/747/446 705/745/446 703/743/446 701/741/446 699/739/446 697/737/446 695/735/446
f 680/721/447 682/724/447 684/726/447 686/728/447 688/730/447 690/732/447 692/734/447 694/736/447 696/738/447 698/740/447 700/742/447 702/744/447 704/746/447 679/747/447
o dyr
v -0.481908 1.425380 -1.425713
v -0.481908 1.425380 -1.299999
v 0.582861 -0.001031 -1.425713
v 0.582861 -0.001031 -1.299999
v -0.481908 -0.001031 -1.425713
v -0.481908 -0.001031 -1.299999
v 0.582861 1.425380 -1.425713
v 0.582861 1.425380 -1.299999
v 0.050477 -0.001031 -1.425713
v -0.481908 0.712174 -1.425713
v 0.050477 1.425380 -1.425713
v 0.582861 0.712174 -1.425713
v 0.050477 0.712174 -1.425713
vn -0.0000 -0.0000 -1.0000
vn -0.0000 -0.0000 1.0000
vn -1.0000 -0.0000 -0.0000
vn -0.0000 1.0000 -0.0000
vn 1.0000 -0.0000 -0.0000
vn -0.0000 -1.0000 -0.0000
vt 0.500000 0.125000
vt 0.625000 0.125000
vt 0.625000 0.250000
vt 0.500000 0.250000
vt 0.375000 0.250000
vt 0.625000 0.500000
vt 0.375000 0.500000
vt 0.625000 0.625000
vt 0.625000 0.750000
vt 0.375000 0.750000
vt 0.125000 0.750000
vt 0.375000 0.125000
vt 0.125000 0.500000
vt 0.375000 0.625000
vt 0.875000 0.500000
vt 0.875000 0.625000
vt 0.875000 0.750000
vt 0.375000 0.000000
vt 0.500000 0.000000
vt 0.625000 0.000000
s 0
usemtl Material.001
f 719/748/448 715/749/448 711/750/448 716/751/448
f 710/752/449 714/750/449 708/753/449 712/754/449
f 708/754/450 707/753/450 716/755/450 711/756/450 712/757/450
f 714/758/451 713/757/451 717/759/451 707/752/451 708/754/451
f 710/760/452 709/754/452 718/761/452 713/757/452 714/758/452
f 712/753/453 711/762/453 715/763/453 709/764/453 710/756/453
f 717/759/448 719/748/448 716/751/448 707/752/448
f 713/765/448 718/766/448 719/748/448 717/759/448
f 718/766/448 709/767/448 715/749/448 719/748/448
o gluggi_1
v 1.826531 1.589419 -1.261336
v 1.826531 1.589419 -1.338664
v 2.173469 1.589419 -1.261336
v 2.173469 1.589419 -1.338664
v 1.826531 2.010581 -1.261336
v 1.826531 2.010581 -1.338664
v 2.173469 2.010581 -1.261336
v 2.173469 2.010581 -1.338664
vn -0.0000 -1.0000 -0.0000
vn 1.0000 -0.0000 -0.0000
vn -0.0000 1.0000 -0.0000
vn -1.0000 -0.0000 -0.0000
vn -0.0000 -0.0000 1.0000
vn -0.0000 -0.0000 -1.0000
vt 0.375000 0.000000
vt 0.625000 0.000000
vt 0.625000 0.250000
vt 0.375000 0.250000
vt 0.625000 0.500000
vt 0.375000 0.500000
vt 0.625000 0.750000
vt 0.375000 0.750000
vt 0.625000 1.000000
vt 0.375000 1.000000
vt 0.125000 0.500000
vt 0.125000 0.750000
vt 0.875000 0.500000
vt 0.875000 0.750000
s 0
usemtl Material.005
f 720/768/454 721/769/454 723/770/454 722/771/454
f 722/771/455 723/770/455 727/772/455 726/773/455
f 726/773/456 727/772/456 725/774/456 724/775/456
f 724/775/457 725/774/457 721/776/457 720/777/457
f 722/778/458 726/773/458 724/775/458 720/779/458
f 727/772/459 723/780/459 721/781/459 725/774/459
o gluggi_2
v 1.326531 1.589419 -1.261336
v 1.326531 1.589419 -1.338664
v 1.673469 1.589419 -1.261336
v 1.673469 1.589419 -1.338664
v 1.326531 2.010581 -1.261336
v 1.326531 2.010581 -1.338664
v 1.673469 2.010581 -1.261336
v 1.673469 2.010581 -1.338664
vn -0.0000 -1.0000 -0.0000
vn 1.0000 -0.0000 -0.0000
vn -0.0000 1.0000 -0.0000
vn -1.0000 -0.0000 -0.0000
vn -0.0000 -0.0000 1.0000
vn -0.0000 -0.0000 -1.0000
vt 0.375000 0.000000
vt 0.625000 0.000000
vt 0.625000 0.250000
vt 0.375000 0.250000
vt 0.625000 0.500000
vt 0.375000 0.500000
vt 0.625000 0.750000
vt 0.375000 0.750000
vt 0.625000 1.000000
vt 0.375000 1.000000
vt 0.125000 0.500000
vt 0.125000 0.750000
vt 0.875000 0.500000
vt 0.875000 0.750000
s 0
usemtl Material.006
f 728/782/460 729/783/460 731/784/460 730/785/460
f 730/785/461 731/784/461 735/786/461 734/787/461
f 734/787/462 735/786/462 733/788/462 732/789/462
f 732/789/463 733/788/463 729/790/463 728/791/463
f 730/792/464 734/787/464 732/789/464 728/793/464
f 735/786/465 731/794/465 729/795/465 733/788/465
o gluggi_3
v 0.826531 1.589419 -1.261336
v 0.826531 1.589419 -1.338664
v 1.173469 1.589419 -1.261336
v 1.173469 1.589419 -1.338664
v 0.826531 2.010581 -1.261336
v 0.826531 2.010581 -1.338664
v 1.173469 2.010581 -1.261336
v 1.173469 2.010581 -1.338664
vn -0.0000 -1.0000 -0.0000
vn 1.0000 -0.0000 -0.0000
vn -0.0000 1.0000 -0.0000
vn -1.0000 -0.0000 -0.0000
vn -0.0000 -0.0000 1.0000
vn -0.0000 -0.0000 -1.0000
vt 0.375000 0.000000
vt 0.625000 0.000000
vt 0.625000 0.250000
vt 0.375000 0.250000
vt 0.625000 0.500000
vt 0.375000 0.500000
vt 0.625000 0.750000
vt 0.375000 0.750000
vt 0.625000 1.000000
vt 0.375000 1.000000
vt 0.125000 0.500000
vt 0.125000 0.750000
vt 0.875000 0.500000
vt 0.875000 0.750000
s 0
usemtl Material.007
f 736/796/466 737/797/466 739/798/466 738/799/466
f 738/799/467 739/798/467 743/800/467 742/801/467
f 742/801/468 743/800/468 741/802/468 740/803/468
f 740/803/469 741/802/469 737/804/469 736/805/469
f 738/806/470 742/801/470 740/803/470 736/807/470
f 743/800/471 739/808/471 737/809/471 741/802/471
o gluggi_4
v -1.173469 1.589419 -1.261336
v -1.173469 1.589419 -1.338664
v -0.826531 1.589419 -1.261336
v -0.826531 1.589419 -1.338664
v -1.173469 2.010581 -1.261336
v -1.173469 2.010581 -1.338664
v -0.826531 2.010581 -1.261336
v -0.826531 2.010581 -1.338664
vn -0.0000 -1.0000 -0.0000
vn 1.0000 -0.0000 -0.0000
vn -0.0000 1.0000 -0.0000
vn -1.0000 -0.0000 -0.0000
vn -0.0000 -0.0000 1.0000
vn -0.0000 -0.0000 -1.0000
vt 0.375000 0.000000
vt 0.625000 0.000000
vt 0.625000 0.250000
vt 0.375000 0.250000
vt 0.625000 0.500000
vt 0.375000 0.500000
vt 0.625000 0.750000
vt 0.375000 0.750000
vt 0.625000 1.000000
vt 0.375000 1.000000
vt 0.125000 0.500000
vt 0.125000 0.750000
vt 0.875000 0.500000
vt 0.875000 0.750000
s 0
usemtl Material.008
f 744/810/472 745/811/472 747/812/472 746/813/472
f 746/813/473 747/812/473 751/814/473 750/815/473
f 750/815/474 751/814/474 749/816/474 748/817/474
f 748/817/475 749/816/475 745/818/475 744/819/475
f 746/820/476 750/815/476 748/817/476 744/821/476
f 751/814/477 747/822/477 745/823/477 749/816/477
o gluggi_5
v -1.673469 1.589419 -1.261336
v -1.673469 1.589419 -1.338664
v -1.326531 1.589419 -1.261336
v -1.326531 1.589419 -1.338664
v -1.673469 2.010581 -1.261336
v -1.673469 2.010581 -1.338664
v -1.326531 2.010581 -1.261336
v -1.326531 2.010581 -1.338664
vn -0.0000 -1.0000 -0.0000
vn 1.0000 -0.0000 -0.0000
vn -0.0000 1.0000 -0.0000
vn -1.0000 -0.0000 -0.0000
vn -0.0000 -0.0000 1.0000
vn -0.0000 -0.0000 -1.0000
vt 0.375000 0.000000
vt 0.625000 0.000000
vt 0.625000 0.250000
vt 0.375000 0.250000
vt 0.625000 0.500000
vt 0.375000 0.500000
vt 0.625000 0.750000
vt 0.375000 0.750000
vt 0.625000 1.000000
vt 0.375000 1.000000
vt 0.125000 0.500000
vt 0.125000 0.750000
vt 0.875000 0.500000
vt 0.875000 0.750000
s 0
usemtl Material.009
f 752/824/478 753/825/478 755/826/478 754/827/478
f 754/827/479 755/826/479 759/828/479 758/829/479
f 758/829/480 759/828/480 757/830/480 756/831/480
f 756/831/481 757/830/481 753/832/481 752/833/481
f 754/834/482 758/829/482 756/831/482 752/835/482
f 759/828/483 755/836/483 753/837/483 757/830/483
o gluggi_6
v -2.173469 1.589419 -1.261336
v -2.173469 1.589419 -1.338664
v -1.826531 1.589419 -1.261336
v -1.826531 1.589419 -1.338664
v -2.173469 2.010581 -1.261336
v -2.173469 2.010581 -1.338664
v -1.826531 2.010581 -1.261336
v -1.826531 2.010581 -1.338664
vn -0.0000 -1.0000 -0.0000
vn 1.0000 -0.0000 -0.0000
vn -0.0000 1.0000 -0.0000
vn -1.0000 -0.0000 -0.0000
vn -0.0000 -0.0000 1.0000
vn -0.0000 -0.0000 -1.0000
vt 0.375000 0.000000
vt 0.625000 0.000000
vt 0.625000 0.250000
vt 0.375000 0.250000
vt 0.625000 0.500000
vt 0.375000 0.500000
vt 0.625000 0.750000
vt 0.375000 0.750000
vt 0.625000 1.000000
vt 0.375000 1.000000
vt 0.125000 0.500000
vt 0.125000 0.750000
vt 0.875000 0.500000
vt 0.875000 0.750000
s 0
usemtl Material.010
f 760/838/484 761/839/484 763/840/484 762/841/484
f 762/841/485 763/840/485 767/842/485 766/843/485
f 766/843/486 767/842/486 765/844/486 764/845/486
f 764/845/487 765/844/487 761/846/487 760/847/487
f 762/848/488 766/843/488 764/845/488 760/849/488
f 767/842/489 763/850/489 761/851/489 765/844/489
