# Blender 4.0.2
# www.blender.org
mtllib asmundarsafni.mtl
o v_hlid
v 2.750000 0.000000 2.000000
v 4.139461 4.000000 1.236724
v 2.750000 0.000000 -2.000000
v 4.139461 4.000000 -1.236724
v 10.250000 0.000000 2.000000
v 8.860538 4.000000 1.236724
v 10.250000 0.000000 -2.000000
v 8.860538 4.000000 -1.236724
vn -0.9446 0.3281 -0.0000
vn -0.0000 0.1874 -0.9823
vn 0.9446 0.3281 -0.0000
vn -0.0000 0.1874 0.9823
vn -0.0000 -1.0000 -0.0000
vn -0.0000 1.0000 -0.0000
vt 0.375000 0.000000
vt 0.625000 0.000000
vt 0.625000 0.250000
vt 0.375000 0.250000
vt 0.625000 0.500000
vt 0.375000 0.500000
vt 0.625000 0.750000
vt 0.375000 0.750000
vt 0.625000 1.000000
vt 0.375000 1.000000
vt 0.125000 0.500000
vt 0.125000 0.750000
vt 0.875000 0.500000
vt 0.875000 0.750000
s 0
usemtl Material.003
f 1/1/1 2/2/1 4/3/1 3/4/1
f 3/4/2 4/3/2 8/5/2 7/6/2
f 7/6/3 8/5/3 6/7/3 5/8/3
f 5/8/4 6/7/4 2/9/4 1/10/4
f 3/11/5 7/6/5 5/8/5 1/12/5
f 8/5/6 4/13/6 2/14/6 6/7/6
o adaldyr
v -4.000000 0.000000 1.300000
v -4.000000 2.900000 1.300000
v -4.000000 0.000000 -1.300000
v -4.000000 2.900000 -1.300000
v 4.000000 0.000000 1.300000
v 4.000000 2.900000 1.300000
v 4.000000 0.000000 -1.300000
v 4.000000 2.900000 -1.300000
v 1.389393 1.796256 0.880154
v 1.019795 1.796256 0.880154
v 1.389393 2.271376 0.880154
v 1.019795 2.271376 0.880154
v -4.000000 2.900000 -1.300000
v -4.000000 0.000000 -1.300000
v 4.000000 0.000000 -1.300000
v 4.000000 2.900000 -1.300000
v -4.000000 2.900000 -1.300000
v -4.000000 0.000000 -1.300000
v 4.000000 0.000000 -1.300000
v 4.000000 2.900000 -1.300000
v -4.000000 1.450000 -1.300000
v 0.000000 0.000000 -1.300000
v 0.000000 2.900000 -1.300000
v 4.000000 1.450000 -1.300000
v -2.000000 0.000000 -1.300000
v 2.000000 0.000000 -1.300000
v -3.000000 0.000000 -1.300000
v 1.000000 0.000000 -1.300000
v -1.000000 0.000000 -1.300000
v 3.000000 0.000000 -1.300000
v -3.500000 0.000000 -1.300000
v 0.500000 0.000000 -1.300000
v -1.500000 0.000000 -1.300000
v 2.500000 0.000000 -1.300000
v -2.500000 0.000000 -1.300000
v 1.500000 0.000000 -1.300000
v -0.500000 0.000000 -1.300000
v 3.500000 0.000000 -1.300000
v 2.000000 2.900000 -1.300000
v -2.000000 2.900000 -1.300000
v 3.000000 2.900000 -1.300000
v -1.000000 2.900000 -1.300000
v 1.000000 2.900000 -1.300000
v -3.000000 2.900000 -1.300000
v 3.500000 2.900000 -1.300000
v -0.500000 2.900000 -1.300000
v 1.500000 2.900000 -1.300000
v -2.500000 2.900000 -1.300000
v 2.500000 2.900000 -1.300000
v -1.500000 2.900000 -1.300000
v 0.500000 2.900000 -1.300000
v -3.500000 2.900000 -1.300000
vn -1.0000 -0.0000 -0.0000
vn -0.0000 -0.0000 -1.0000
vn 1.0000 -0.0000 -0.0000
vn -0.0000 -0.0000 1.0000
vn -0.0000 -1.0000 -0.0000
vn -0.0000 1.0000 -0.0000
vt 0.375000 0.000000
vt 0.625000 0.000000
vt 0.625000 0.250000
vt 0.375000 0.250000
vt 0.625000 0.500000
vt 0.375000 0.500000
vt 0.625000 0.750000
vt 0.375000 0.750000
vt 0.625000 1.000000
vt 0.375000 1.000000
vt 0.125000 0.500000
vt 0.125000 0.750000
vt 0.875000 0.500000
vt 0.875000 0.750000
vt 0.000000 0.000000
vt 0.375000 0.265625
vt 0.375000 0.281250
vt 0.375000 0.296875
vt 0.375000 0.312500
vt 0.375000 0.328125
vt 0.375000 0.343750
vt 0.375000 0.359375
vt 0.375000 0.375000
vt 0.375000 0.390625
vt 0.375000 0.406250
vt 0.375000 0.421875
vt 0.375000 0.437500
vt 0.375000 0.453125
vt 0.375000 0.468750
vt 0.375000 0.484375
vt 0.625000 0.484375
vt 0.625000 0.468750
vt 0.625000 0.453125
vt 0.625000 0.437500
vt 0.625000 0.421875
vt 0.625000 0.406250
vt 0.625000 0.390625
vt 0.625000 0.375000
vt 0.625000 0.359375
vt 0.625000 0.343750
vt 0.625000 0.328125
vt 0.625000 0.312500
vt 0.625000 0.296875
vt 0.625000 0.281250
vt 0.625000 0.265625
vt 0.500000 0.250000
vt 0.500000 0.500000
s 0
usemtl Material.004
f 9/15/7 10/16/7 21/17/7 22/18/7
f 11/18/8 12/17/8 16/19/8 15/20/8
f 23/20/9 24/19/9 14/21/9 13/22/9
f 13/22/10 14/21/10 10/23/10 9/24/10
f 22/25/11 23/20/11 13/22/11 9/26/11
f 24/19/12 21/27/12 10/28/12 14/21/12
f 20/19/10 18/27/10 17/28/10 19/21/10
f 25/29/12 29/29/12 26/29/12 22/29/12 21/29/12
f 26/18/12 39/30/12 35/31/12 43/32/12 33/33/12 41/34/12 37/35/12 45/36/12 30/37/12 40/38/12 36/39/12 44/40/12 34/41/12 42/42/12 38/43/12 46/44/12 27/20/12 23/20/12 22/18/12
f 28/19/12 53/45/12 49/46/12 57/47/12 47/48/12 55/49/12 51/50/12 59/51/12 31/52/12 54/53/12 50/54/12 58/55/12 48/56/12 56/57/12 52/58/12 60/59/12 25/17/12 21/17/12 24/19/12
f 27/29/12 32/29/12 28/29/12 24/29/12 23/29/12
f 12/17/12 11/18/12 26/18/12 29/60/12 25/17/12
f 11/18/12 15/20/12 27/20/12 46/44/12 38/43/12 42/42/12 34/41/12 44/40/12 36/39/12 40/38/12 30/37/12 45/36/12 37/35/12 41/34/12 33/33/12 43/32/12 35/31/12 39/30/12 26/18/12
f 16/19/12 12/17/12 25/17/12 60/59/12 52/58/12 56/57/12 48/56/12 58/55/12 50/54/12 54/53/12 31/52/12 59/51/12 51/50/12 55/49/12 47/48/12 57/47/12 49/46/12 53/45/12 28/19/12
f 15/20/12 16/19/12 28/19/12 32/61/12 27/20/12
o h_hlid
v -10.250000 0.000000 2.000000
v -8.860538 4.000000 1.236724
v -10.250000 0.000000 -2.000000
v -8.860538 4.000000 -1.236724
v -2.750000 0.000000 2.000000
v -4.139461 4.000000 1.236724
v -2.750000 0.000000 -2.000000
v -4.139461 4.000000 -1.236724
vn -0.9446 0.3281 -0.0000
vn -0.0000 0.1874 -0.9823
vn 0.9446 0.3281 -0.0000
vn -0.0000 0.1874 0.9823
vn -0.0000 -1.0000 -0.0000
vn -0.0000 1.0000 -0.0000
vt 0.375000 0.000000
vt 0.625000 0.000000
vt 0.625000 0.250000
vt 0.375000 0.250000
vt 0.625000 0.500000
vt 0.375000 0.500000
vt 0.625000 0.750000
vt 0.375000 0.750000
vt 0.625000 1.000000
vt 0.375000 1.000000
vt 0.125000 0.500000
vt 0.125000 0.750000
vt 0.875000 0.500000
vt 0.875000 0.750000
s 0
usemtl Material.002
f 61/62/13 62/63/13 64/64/13 63/65/13
f 63/65/14 64/64/14 68/66/14 67/67/14
f 67/67/15 68/66/15 66/68/15 65/69/15
f 65/69/16 66/68/16 62/70/16 61/71/16
f 63/72/17 67/67/17 65/69/17 61/73/17
f 68/66/18 64/74/18 62/75/18 66/68/18
o innanhus
v -4.080000 -0.009000 9.530798
v -4.080000 2.949000 9.530798
v -4.080000 -0.009000 1.289198
v -4.080000 2.949000 1.289198
v 4.080000 -0.009000 9.530798
v 4.080000 2.949000 9.530798
v 4.080000 -0.009000 1.289198
v 4.080000 2.949000 1.289198
vn -1.0000 -0.0000 -0.0000
vn -0.0000 -0.0000 -1.0000
vn 1.0000 -0.0000 -0.0000
vn -0.0000 -0.0000 1.0000
vn -0.0000 -1.0000 -0.0000
vn -0.0000 1.0000 -0.0000
vt 0.375000 0.000000
vt 0.625000 0.000000
vt 0.625000 0.250000
vt 0.375000 0.250000
vt 0.625000 0.500000
vt 0.375000 0.500000
vt 0.625000 0.750000
vt 0.375000 0.750000
vt 0.625000 1.000000
vt 0.375000 1.000000
vt 0.125000 0.500000
vt 0.125000 0.750000
vt 0.875000 0.500000
vt 0.875000 0.750000
s 0
usemtl Material.012
f 69/76/19 70/77/19 72/78/19 71/79/19
f 71/79/20 72/78/20 76/80/20 75/81/20
f 75/81/21 76/80/21 74/82/21 73/83/21
f 73/83/22 74/82/22 70/84/22 69/85/22
f 71/86/23 75/81/23 73/83/23 69/87/23
f 76/80/24 72/88/24 70/89/24 74/82/24
o kulan
v 0.027335 6.218484 3.382767
v 0.000000 5.122281 2.174122
v 0.000000 3.680361 1.576859
v 0.000000 2.900000 1.500000
v 0.154130 6.823123 4.737895
v 0.295946 6.593807 4.008107
v 0.419344 6.222498 3.324364
v 0.551799 5.728427 2.725920
v 0.648847 5.122281 2.238028
v 0.720960 4.430734 1.875490
v 0.765367 3.680361 1.652241
v 0.780361 2.900000 1.576859
v 0.298849 6.823139 4.779416
v 0.585786 6.595518 4.085786
v 0.850430 6.225879 3.446880
v 1.082392 5.728427 2.886874
v 1.272758 5.122281 2.427289
v 1.414213 4.430734 2.085787
v 1.501321 3.680361 1.875490
v 1.530734 2.900000 1.804482
v 0.433545 6.823141 4.851153
v 0.850430 6.595518 4.227242
v 1.234633 6.225879 3.652241
v 1.571390 5.728427 3.148249
v 1.847759 5.122281 2.734634
v 2.053120 4.430734 2.427289
v 2.179580 3.680361 2.238028
v 2.222281 2.900000 2.174122
v 0.551799 6.823141 4.948201
v 1.082392 6.595518 4.417608
v 1.571390 6.225879 3.928610
v 2.000000 5.728427 3.500000
v 2.351751 5.122281 3.148249
v 2.613126 4.430734 2.886874
v 2.774080 3.680361 2.725921
v 2.828427 2.900000 2.671574
v 0.648847 6.823141 5.066454
v 1.272759 6.595518 4.649570
v 1.847759 6.225879 4.265367
v 2.351751 5.728427 3.928610
v 2.765367 5.122281 3.652241
v 3.072711 4.430734 3.446880
v 3.261972 3.680361 3.320420
v 3.325878 2.900000 3.277720
v 0.000000 6.900000 5.500000
v 0.720960 6.823141 5.201369
v 1.414213 6.595518 4.914214
v 2.053120 6.225879 4.649570
v 2.613126 5.728427 4.417608
v 3.072711 5.122281 4.227242
v 3.414213 4.430734 4.085786
v 3.624509 3.680361 3.998679
v 3.695518 2.900000 3.969267
v 0.765367 6.823141 5.347759
v 1.501321 6.595518 5.201369
v 2.179580 6.225879 5.066455
v 2.774080 5.728427 4.948201
v 3.261972 5.122281 4.851154
v 3.624509 4.430734 4.779040
v 3.847759 3.680361 4.734633
v 3.923140 2.900000 4.719639
v 0.780361 6.823141 5.500000
v 1.530734 6.595518 5.500000
v 2.222281 6.225879 5.500000
v 2.828427 5.728427 5.500000
v 3.325878 5.122281 5.500000
v 3.695518 4.430734 5.500000
v 3.923141 3.680361 5.500000
v 3.999999 2.900000 5.500000
v 0.765367 6.823141 5.652241
v 1.501321 6.595518 5.798631
v 2.179580 6.225879 5.933546
v 2.774079 5.728427 6.051799
v 3.261972 5.122281 6.148847
v 3.624509 4.430734 6.220960
v 3.847758 3.680361 6.265367
v 3.923140 2.900000 6.280362
v 0.720960 6.823141 5.798631
v 1.414213 6.595518 6.085786
v 2.053119 6.225879 6.350430
v 2.613126 5.728427 6.582392
v 3.082584 5.129426 6.776820
v 3.442864 4.443479 6.926081
v 3.624509 3.680361 7.001321
v 3.695516 2.900000 7.030734
v 0.648846 6.823141 5.933545
v 1.272758 6.595518 6.350430
v 1.853482 6.236266 6.738438
v 2.357851 5.736718 7.074418
v 2.765366 5.122281 7.347759
v 3.072769 4.430729 7.553038
v 3.261972 3.680361 7.679580
v 3.325876 2.900000 7.722281
v 0.551798 6.823141 6.051798
v 1.082392 6.595518 6.582392
v 1.573056 6.228904 7.072498
v 1.977486 5.760432 7.477744
v 2.343151 5.114218 7.843150
v 2.610067 4.428925 8.110060
v 2.779127 3.644701 8.278952
v 2.828425 2.900000 8.328426
v 0.433545 6.823141 6.148847
v 0.850430 6.595518 6.772758
v 1.234632 6.225879 7.347759
v 1.575373 5.739678 7.860062
v 1.835918 5.119846 8.277163
v 2.032922 4.430213 8.586607
v 2.179579 3.680361 8.761972
v 2.222279 2.900000 8.825877
v 0.298631 6.823141 6.220960
v 0.585786 6.595518 6.914213
v 0.850429 6.225879 7.553119
v 1.082392 5.728427 8.113126
v 1.272758 5.122281 8.572710
v 1.417037 4.433791 8.921032
v 1.501320 3.680361 9.124509
v 1.530732 2.900000 9.195517
v 0.152241 6.823141 6.265367
v 0.298631 6.595518 7.001321
v 0.433545 6.225879 7.679580
v 0.551799 5.728427 8.274079
v 0.648846 5.122281 8.761971
v 0.720960 4.430734 9.124509
v 0.765366 3.680361 9.347757
v 0.780360 2.900000 9.423140
v -0.000000 6.823141 6.280361
v -0.000000 6.595518 7.030733
v -0.000000 6.225879 7.722280
v -0.000000 5.728427 8.328426
v -0.000000 5.122281 8.825877
v 0.000000 4.430734 9.195517
v -0.000001 3.680361 9.423140
v -0.000001 2.900000 9.499997
v -0.152241 6.823141 6.265367
v -0.298631 6.595518 7.001321
v -0.433546 6.225879 7.679579
v -0.551799 5.728427 8.274079
v -0.648847 5.122281 8.761971
v -0.720959 4.430734 9.124509
v -0.765367 3.680361 9.347757
v -0.780362 2.900000 9.423138
v -0.298631 6.823141 6.220959
v -0.585786 6.595518 6.914213
v -0.850430 6.225879 7.553119
v -1.082392 5.728427 8.113125
v -1.272758 5.122281 8.572710
v -1.414213 4.430734 8.914212
v -1.501321 3.680361 9.124508
v -1.530734 2.900000 9.195515
v -0.433545 6.823141 6.148846
v -0.850430 6.595518 6.772758
v -1.234633 6.225879 7.347757
v -1.571390 5.728427 7.851750
v -1.847759 5.122281 8.265366
v -2.053119 4.430734 8.572710
v -2.179580 3.680361 8.761971
v -2.222281 2.900000 8.825875
v -0.551798 6.823141 6.051798
v -1.082392 6.595518 6.582392
v -1.571389 6.225879 7.071388
v -2.000000 5.728427 7.500000
v -2.351750 5.122281 7.851749
v -2.613125 4.430734 8.113125
v -2.774079 3.680361 8.274078
v -2.828426 2.900000 8.328424
v -0.648846 6.823141 5.933545
v -1.272758 6.595518 6.350430
v -1.847758 6.225879 6.734632
v -2.351751 5.728427 7.071389
v -2.765366 5.122281 7.347758
v -3.072710 4.430734 7.553119
v -3.261972 3.680361 7.679579
v -3.325876 2.900000 7.722278
v -0.720959 6.823141 5.798631
v -1.414213 6.595518 6.085786
v -2.053118 6.225879 6.350429
v -2.613125 5.728427 6.582392
v -3.072710 5.122281 6.772758
v -3.414212 4.430734 6.914213
v -3.624509 3.680361 7.001319
v -3.695515 2.900000 7.030731
v -0.765366 6.823141 5.652241
v -1.501332 6.595539 5.798627
v -2.180009 6.226573 5.933489
v -2.773995 5.728406 6.051742
v -3.261971 5.122281 6.148846
v -3.624508 4.430734 6.220960
v -3.847758 3.680361 6.265366
v -3.923138 2.900000 6.280359
v -0.780361 6.823141 5.500000
v -1.572640 6.572253 5.503924
v -2.237071 6.241016 5.470050
v -2.828255 5.728351 5.500004
v -3.325877 5.122281 5.500000
v -3.695517 4.430734 5.500000
v -3.923139 3.680361 5.499999
v -3.999996 2.900000 5.499998
v -0.765366 6.823141 5.347759
v -1.504651 6.593624 5.200583
v -2.179805 6.226274 5.066442
v -2.774079 5.728427 4.948201
v -3.261971 5.122281 4.851153
v -3.624508 4.430734 4.779040
v -3.847757 3.680361 4.734632
v -3.923137 2.900000 4.719638
v -0.720959 6.823141 5.201369
v -1.414213 6.595518 4.914214
v -2.053118 6.225879 4.649570
v -2.613125 5.728427 4.417608
v -3.072709 5.122281 4.227242
v -3.414212 4.430734 4.085787
v -3.624507 3.680361 3.998679
v -3.695514 2.900000 3.969266
v -0.648846 6.823141 5.066455
v -1.272758 6.595518 4.649570
v -1.847757 6.225879 4.265368
v -2.351750 5.728427 3.928610
v -2.765365 5.122281 3.652241
v -3.072710 4.430734 3.446881
v -3.261970 3.680361 3.320420
v -3.325874 2.900000 3.277720
v -0.551798 6.823141 4.948202
v -1.082392 6.595518 4.417608
v -1.571388 6.225879 3.928611
v -1.999999 5.728427 3.500000
v -2.351749 5.122281 3.148250
v -2.613125 4.430734 2.886875
v -2.774077 3.680361 2.725921
v -2.828423 2.900000 2.671575
v -0.433545 6.823141 4.851154
v -0.851204 6.595353 4.227298
v -1.234631 6.225879 3.652242
v -1.571389 5.728427 3.148249
v -1.847757 5.122281 2.734635
v -2.053119 4.430734 2.427290
v -2.179578 3.680361 2.238029
v -2.222277 2.900000 2.174124
v -0.302017 6.822642 4.777493
v -0.594790 6.593603 4.086436
v -0.850428 6.225879 3.446882
v -1.082392 5.728427 2.886875
v -1.272757 5.122281 2.427291
v -1.414213 4.430734 2.085788
v -1.501319 3.680361 1.875492
v -1.530730 2.900000 1.804486
v -0.152484 6.822971 4.735609
v -0.298631 6.595518 3.998680
v -0.403803 6.228892 3.345109
v -0.551798 5.728427 2.725921
v -0.648845 5.122281 2.238030
v -0.720959 4.430734 1.875492
v -0.765365 3.680361 1.652243
v -0.780358 2.900000 1.576863
v 0.002460 6.823118 4.723889
v -0.003671 6.593282 3.981331
v 0.000000 5.728427 2.671574
v 0.000000 4.430734 1.804484
v -0.360480 4.430734 9.160013
v -0.382684 3.680361 9.385448
v 0.360480 4.430734 9.160013
v 0.743163 4.055548 9.236134
v 0.382683 3.680361 9.385448
v -0.743163 4.055548 9.236134
v -0.000000 4.055548 9.309328
v -0.743162 4.055548 1.763868
v -0.360480 4.430734 1.839988
v 0.000000 4.055548 1.690671
v -0.382683 3.680361 1.614551
v 0.743163 4.055548 1.763866
v 0.382683 3.680361 1.614550
v 0.360480 4.430734 1.839987
v 0.000000 4.776507 1.989303
v -0.180240 4.430734 1.822236
v -0.185790 4.055548 1.708971
v -0.191341 3.680361 1.595705
v 0.191342 3.680361 1.595705
v 0.185791 4.055548 1.708970
v 0.180240 4.430734 1.822236
v 0.754265 3.867954 1.708054
v 0.574025 3.680361 1.633396
v 0.557373 4.055548 1.745567
v 0.565699 3.867954 1.689481
v 0.540720 4.430734 1.857739
v 0.000000 3.878273 1.636895
v 0.188490 3.873116 1.653895
v -0.188490 3.873116 1.653896
v -0.574024 3.680361 1.633397
v -0.540719 4.430734 1.857740
v -0.557372 4.055548 1.745569
v 0.684903 4.776507 2.056759
v -0.684902 4.776507 2.056761
v 0.492672 5.977153 3.023170
v 0.702932 4.603621 1.966125
v 0.000000 4.603621 1.896893
v 0.351466 4.603621 1.931509
v 0.486635 5.122281 2.222051
v -0.162211 5.122281 2.190099
v -0.486634 5.122281 2.222053
v 0.162212 5.122281 2.190098
v 0.171226 4.776507 2.006167
v 0.175733 4.603621 1.914201
v 0.513677 4.776507 2.039895
v 0.527199 4.603621 1.948817
v -0.171226 4.776507 2.006167
v -0.513677 4.776507 2.039896
v -0.702931 4.603621 1.966126
v -0.527198 4.603621 1.948818
v -0.351465 4.603621 1.931510
v -0.175733 4.603621 1.914202
v -0.413849 5.728427 2.712334
v 0.137950 5.728427 2.685160
v -0.137949 5.728427 2.685160
v 0.413849 5.728427 2.712334
v 0.600323 5.425354 2.481974
v 0.624585 5.273818 2.360001
v 0.576061 5.576890 2.603947
v 0.000000 5.425354 2.422848
v 0.000000 5.273818 2.298485
v 0.000000 5.576890 2.547211
v -0.600322 5.425354 2.481975
v -0.624584 5.273818 2.360003
v -0.576060 5.576890 2.603948
v -0.468438 5.273818 2.344623
v -0.312292 5.273818 2.329243
v -0.156146 5.273818 2.313864
v 0.156146 5.273818 2.313864
v 0.312292 5.273818 2.329243
v 0.468439 5.273818 2.344622
v 0.000000 5.977153 2.974646
v 0.150081 5.425354 2.437629
v 0.300161 5.425354 2.452411
v 0.450242 5.425354 2.467192
v -0.450241 5.425354 2.467193
v -0.300161 5.425354 2.452411
v -0.150080 5.425354 2.437629
v 0.522235 5.852790 2.874545
v 0.391677 5.852790 2.861686
v 0.123168 5.977153 2.986777
v 0.369504 5.977153 3.011039
v 0.246336 5.977153 2.998908
v -0.492671 5.977153 3.023171
v -0.369503 5.977153 3.011040
v -0.123168 5.977153 2.986778
v -0.180240 4.430734 9.177765
v 0.180240 4.430734 9.177765
v -0.191342 3.680361 9.404294
v 0.191341 3.680361 9.404295
v -0.185791 4.055548 9.291030
v 0.185791 4.055548 9.291030
v -0.574026 3.680361 9.366603
v -0.540720 4.430734 9.142261
v -0.557373 4.055548 9.254432
v 0.574024 3.680361 9.366604
v 0.557372 4.055548 9.254433
v 0.540720 4.430734 9.142262
v -0.486635 5.122281 8.777948
v -0.162212 5.122281 8.809900
v -0.684903 4.776507 8.943240
v -0.702931 4.603621 9.033875
v -0.666875 4.949394 8.852606
v -0.000000 4.776507 9.010697
v -0.000000 4.603621 9.103107
v -0.000000 4.949394 8.918287
v 0.684903 4.776507 8.943240
v 0.702931 4.603621 9.033875
v 0.666875 4.949394 8.852606
v 0.486634 5.122281 8.777948
v 0.162211 5.122281 8.809900
v -0.175733 4.603621 9.085798
v -0.527198 4.603621 9.051183
v 0.175733 4.603621 9.085798
v 0.527198 4.603621 9.051183
v -0.000000 5.425354 8.577152
v -0.000000 5.273818 8.701514
v -0.000000 5.576890 8.452789
v -0.600323 5.425354 8.518025
v -0.624585 5.273818 8.639998
v -0.576061 5.576890 8.396052
v 0.600322 5.425354 8.518025
v 0.624584 5.273818 8.639998
v 0.576061 5.576890 8.396052
v 0.312292 5.273818 8.670756
v 0.156146 5.273818 8.686135
v -0.468439 5.273818 8.655377
v 0.468438 5.273818 8.655377
v -0.156146 5.273818 8.686135
v -0.450242 5.425354 8.532806
v -0.150081 5.425354 8.562370
v -0.137950 5.728427 8.314840
v -0.413849 5.728427 8.287666
v 2.525354 5.977153 5.500000
v 0.150080 5.425354 8.562370
v 0.450242 5.425354 8.532806
v 0.413849 5.728427 8.287666
v 0.137950 5.728427 8.314840
v -0.492672 5.977153 7.976829
v -0.432046 5.576890 8.410236
v -0.144015 5.576890 8.438605
v -0.000000 5.977153 8.025353
v -0.246336 5.977153 8.001091
v -0.369504 5.977153 7.988960
v -0.123168 5.977153 8.013222
v 0.492672 5.977153 7.976830
v 0.522235 5.852790 8.125454
v 0.463108 6.101516 7.828205
v 0.246336 5.977153 8.001091
v 0.123168 5.977153 8.013222
v 0.369504 5.977153 7.988960
v 0.144015 5.576890 8.438605
v 0.432045 5.576890 8.410236
v 3.077152 5.425354 5.500000
v 3.510698 4.776507 5.500000
v 3.809329 4.055548 5.500000
v 2.676890 5.852790 5.500000
v 3.201515 5.273818 5.500000
v 3.603108 4.603621 5.500000
v 3.866235 3.867954 5.500000
v 2.373817 6.101516 5.500000
v 2.952790 5.576890 5.500000
v 3.418288 4.949394 5.500000
v 3.752423 4.243141 5.500000
v 2.476830 5.977153 5.007328
v 3.018026 5.425354 4.899677
v 3.443241 4.776507 4.815097
v 3.736134 4.055548 4.756837
v 2.625455 5.852790 4.977765
v 3.139999 5.273818 4.875416
v 3.533875 4.603621 4.797069
v 3.791946 3.867954 4.745735
v 2.328205 6.101516 5.036891
v 2.896053 5.576890 4.923939
v 3.352606 4.949394 4.833125
v 3.680322 4.243141 4.767939
v 2.476830 5.977153 5.992672
v 3.018025 5.425354 6.100323
v 3.443241 4.776507 6.184903
v 3.736134 4.055548 6.243163
v 2.625454 5.852790 6.022235
v 3.139998 5.273818 6.124585
v 3.533875 4.603621 6.202931
v 3.791946 3.867954 6.254265
v 2.328205 6.101516 5.963109
v 2.896052 5.576890 6.076061
v 3.352606 4.949394 6.166875
v 3.680322 4.243141 6.232061
v 3.885449 3.680361 5.117317
v 3.885449 3.680361 5.882684
v 3.866604 3.680361 4.925975
v 3.904295 3.680361 5.691342
v 3.904295 3.680361 5.308659
v 3.866604 3.680361 6.074025
v 3.660014 4.430734 5.139520
v 3.660014 4.430734 5.860480
v 3.677766 4.430734 5.319760
v 3.677766 4.430734 5.680240
v 3.642262 4.430734 4.959280
v 3.642262 4.430734 6.040720
v 3.754433 4.055548 6.057373
v 3.791030 4.055548 5.685791
v 3.791030 4.055548 5.314209
v 3.754433 4.055548 4.942627
v 3.170757 5.273818 5.187708
v 3.170757 5.273818 5.812293
v 3.186136 5.273818 5.343854
v 3.155378 5.273818 5.968439
v 3.155378 5.273818 5.031562
v 3.186136 5.273818 5.656147
v 3.568491 4.603621 5.148534
v 3.568491 4.603621 5.851466
v 3.585800 4.603621 5.324267
v 3.551183 4.603621 6.027199
v 3.551183 4.603621 4.972801
v 3.585800 4.603621 5.675733
v 3.277948 5.122281 5.013365
v 3.309901 5.122281 5.662212
v 3.309901 5.122281 5.337789
v 3.277948 5.122281 5.986635
v 3.047589 5.425354 5.800161
v 3.047589 5.425354 5.199839
v 3.032807 5.425354 5.950242
v 3.062371 5.425354 5.349919
v 3.062371 5.425354 5.650081
v 3.032807 5.425354 5.049758
v 2.787666 5.728427 5.086151
v 2.814840 5.728427 5.637949
v 2.814840 5.728427 5.362050
v 2.787666 5.728427 5.913849
v 2.501091 5.977153 5.746336
v 2.501092 5.977153 5.253664
v 2.488961 5.977153 5.869504
v 2.513223 5.977153 5.376832
v 2.513223 5.977153 5.623168
v 2.488961 5.977153 5.130496
v -2.476759 5.977243 5.992621
v -3.018025 5.425354 6.100322
v -3.443240 4.776507 6.184903
v -3.736133 4.055548 6.243163
v -2.523633 5.977559 5.501328
v -3.077152 5.425354 5.500000
v -3.510697 4.776507 5.500000
v -3.809328 4.055548 5.500000
v -3.660012 4.430734 5.860480
v -3.885448 3.680361 5.882682
v -2.476555 5.976936 5.007340
v -3.018025 5.425354 4.899677
v -3.443239 4.776507 4.815097
v -3.736133 4.055548 4.756836
v -3.885448 3.680361 5.117316
v -3.660012 4.430734 5.139520
v -3.047588 5.425354 5.199838
v -2.501091 5.977153 5.253664
v -3.047588 5.425354 5.800161
v -2.501091 5.977153 5.746336
v -2.624656 5.852005 6.022102
v -3.139998 5.273818 6.124584
v -3.533874 4.603621 6.202931
v -3.791945 3.867954 6.254264
v -2.676613 5.852618 5.499981
v -3.201514 5.273818 5.500000
v -3.603106 4.603621 5.500000
v -3.866234 3.867954 5.499999
v -2.787266 5.728078 5.913759
v -3.277947 5.122281 5.986634
v -3.642261 4.430734 6.040720
v -3.866603 3.680361 6.074024
v -2.625413 5.852831 4.977740
v -3.139997 5.273818 4.875415
v -3.533874 4.603621 4.797069
v -3.791945 3.867954 4.745734
v -3.866602 3.680361 4.925974
v -2.814902 5.728559 5.362057
v -3.309900 5.122281 5.337788
v -3.677764 4.430734 5.319760
v -2.328457 6.102015 5.963025
v -2.896052 5.576890 6.076060
v -3.352605 4.949394 6.166874
v -3.680321 4.243141 6.232061
v -2.373816 6.101516 5.500000
v -2.952789 5.576890 5.500000
v -3.418287 4.949394 5.500000
v -3.752422 4.243141 5.500000
v -2.814633 5.728380 5.637936
v -3.309900 5.122281 5.662211
v -3.677764 4.430734 5.680240
v -3.904294 3.680361 5.691340
v -2.328087 6.101507 5.036996
v -2.896052 5.576890 4.923939
v -3.352605 4.949394 4.833125
v -3.680320 4.243141 4.767939
v -3.904294 3.680361 5.308657
v -2.787632 5.728419 5.086147
v -3.277947 5.122281 5.013365
v -3.642260 4.430734 4.959280
v -3.754431 4.055548 4.942627
v -3.791029 4.055548 5.314209
v -3.460104 4.776507 4.986322
v -3.493832 4.776507 5.328774
v -3.568490 4.603621 5.148534
v -3.032806 5.425354 5.049758
v -3.062370 5.425354 5.349919
v -3.170756 5.273818 5.187707
v -2.488934 5.977164 5.130515
v -2.513053 5.978425 5.377537
v -3.791029 4.055548 5.685790
v -3.754432 4.055548 6.057372
v -3.493833 4.776507 5.671226
v -3.460104 4.776507 6.013677
v -3.568491 4.603621 5.851465
v -3.062370 5.425354 5.650080
v -3.032807 5.425354 5.950242
v -3.170756 5.273818 5.812292
v -2.513991 5.979112 5.623501
v -2.488921 5.977234 5.869418
v -2.637352 5.851779 5.891543
v -2.662906 5.851656 5.630514
v -2.910236 5.576890 5.932045
v -3.155377 5.273818 5.968438
v -3.186135 5.273818 5.656146
v -3.369026 4.949394 6.000155
v -3.551182 4.603621 6.027198
v -3.585799 4.603621 5.675733
v -3.698346 4.243141 6.049046
v -3.810518 3.867954 6.065698
v -3.847662 3.867954 5.688565
v -2.663366 5.852119 5.369432
v -2.637861 5.852293 5.108334
v -2.938605 5.576890 5.355985
v -3.186135 5.273818 5.343853
v -3.155377 5.273818 5.031561
v -3.401866 4.949394 5.333281
v -3.585798 4.603621 5.324267
v -3.551182 4.603621 4.972801
v -3.734397 4.243141 5.316984
v -3.847661 3.867954 5.311433
v -3.810517 3.867954 4.934300
v -3.698346 4.243141 4.950953
v -3.369025 4.949394 4.999844
v -2.910236 5.576890 5.067954
v -3.734397 4.243141 5.683015
v -3.401866 4.949394 5.666718
v -2.938605 5.576890 5.644015
vn 0.0865 0.4696 -0.8786
vn 0.0815 0.5552 -0.8277
vn 0.1626 0.5528 -0.8173
vn 0.0938 0.2890 -0.9527
vn 0.0893 0.4115 -0.9070
vn 0.1804 0.3805 -0.9070
vn -0.0000 -0.6494 -0.7605
vn -0.0000 0.1939 -0.9810
vn 0.0967 0.1624 -0.9820
vn 0.0975 0.0975 -0.9904
vn 0.1914 0.1939 -0.9622
vn 0.1484 -0.6494 -0.7459
vn 0.0032 0.9792 -0.2028
vn -0.0000 1.0000 -0.0001
vn 0.0351 0.9792 -0.2000
vn 0.0029 0.9126 -0.4089
vn 0.0483 0.9180 -0.3935
vn -0.0658 0.8394 -0.5394
vn -0.0497 0.9167 -0.3964
vn -0.0023 0.8453 -0.5343
vn 0.0759 0.6326 -0.7708
vn 0.0693 0.7070 -0.7038
vn 0.1374 0.7048 -0.6960
vn 0.1508 0.6344 -0.7582
vn 0.2707 0.7049 -0.6557
vn 0.3189 0.5528 -0.7699
vn 0.3539 0.3805 -0.8544
vn 0.3754 0.1939 -0.9063
vn 0.2910 -0.6494 -0.7026
vn 0.0738 0.9794 -0.1877
vn 0.1418 0.9214 -0.3619
vn 0.0665 0.8380 -0.5417
vn 0.2092 0.8293 -0.5181
vn 0.1214 0.7744 -0.6210
vn 0.1045 0.7882 -0.6064
vn 0.1116 0.9796 -0.1672
vn 0.2155 0.9217 -0.3225
vn 0.3110 0.8286 -0.4654
vn 0.3945 0.7041 -0.5905
vn 0.4630 0.5528 -0.6929
vn 0.5138 0.3805 -0.7689
vn 0.5450 0.1939 -0.8157
vn 0.4225 -0.6494 -0.6323
vn 0.5021 0.7041 -0.5021
vn 0.5893 0.5528 -0.5893
vn 0.6539 0.3805 -0.6539
vn 0.6937 0.1939 -0.6937
vn 0.5377 -0.6494 -0.5377
vn 0.1421 0.9796 -0.1421
vn 0.2743 0.9217 -0.2743
vn 0.3958 0.8286 -0.3958
vn 0.1671 0.9796 -0.1117
vn 0.3225 0.9217 -0.2155
vn 0.4654 0.8286 -0.3110
vn 0.5905 0.7041 -0.3945
vn 0.6929 0.5528 -0.4630
vn 0.7689 0.3805 -0.5138
vn 0.8157 0.1939 -0.5450
vn 0.6323 -0.6494 -0.4225
vn 0.7699 0.5528 -0.3189
vn 0.8544 0.3805 -0.3539
vn 0.9063 0.1939 -0.3754
vn 0.7026 -0.6494 -0.2910
vn 0.1857 0.9796 -0.0769
vn 0.3584 0.9217 -0.1484
vn 0.5172 0.8286 -0.2142
vn 0.6561 0.7041 -0.2718
vn 0.3804 0.9217 -0.0757
vn 0.5490 0.8286 -0.1092
vn 0.6088 0.7715 -0.1847
vn 0.6222 0.7730 -0.1238
vn 0.6965 0.7041 -0.1385
vn 0.7582 0.6344 -0.1508
vn 0.8173 0.5528 -0.1626
vn 0.8650 0.4714 -0.1721
vn 0.9070 0.3805 -0.1804
vn 0.9386 0.2903 -0.1867
vn 0.9622 0.1939 -0.1914
vn 0.7459 -0.6494 -0.1484
vn 0.1971 0.9796 -0.0392
vn 0.9070 0.4115 -0.0893
vn 0.9527 0.2890 -0.0938
vn 0.9820 0.1624 -0.0967
vn 0.9904 0.0975 -0.0975
vn 0.9810 0.1939 -0.0000
vn 0.7605 -0.6494 -0.0000
vn 0.2010 0.9796 -0.0000
vn 0.3879 0.9217 -0.0000
vn 0.6344 0.7730 -0.0000
vn 0.5598 0.8286 -0.0000
vn 0.5490 0.8286 0.1092
vn 0.6222 0.7730 0.1238
vn 0.7708 0.6326 -0.0759
vn 0.7038 0.7070 -0.0693
vn 0.7101 0.7041 -0.0000
vn 0.7730 0.6344 -0.0000
vn 0.8786 0.4696 -0.0865
vn 0.8277 0.5552 -0.0815
vn 0.8333 0.5528 -0.0000
vn 0.8819 0.4714 -0.0000
vn 0.3804 0.9217 0.0757
vn 0.7708 0.6326 0.0759
vn 0.7038 0.7070 0.0693
vn 0.6957 0.7054 0.1354
vn 0.7569 0.6373 0.1449
vn 0.8786 0.4696 0.0865
vn 0.8277 0.5552 0.0815
vn 0.8169 0.5567 0.1508
vn 0.8655 0.4764 0.1549
vn 0.9070 0.4115 0.0893
vn 0.9527 0.2890 0.0938
vn 0.9569 0.2903 -0.0000
vn 0.9248 0.3805 -0.0000
vn 0.9820 0.1624 0.0967
vn 0.9904 0.0975 0.0976
vn 0.9642 0.1887 0.1863
vn 0.7459 -0.6494 0.1484
vn 0.1971 0.9796 0.0392
vn 0.9436 0.2798 0.1767
vn 0.9106 0.3779 0.1671
vn 0.8556 0.3774 0.3544
vn 0.9081 0.1839 0.3762
vn 0.7026 -0.6494 0.2910
vn 0.1857 0.9796 0.0769
vn 0.3587 0.9223 0.1436
vn 0.5205 0.8290 0.2045
vn 0.6088 0.7715 0.1847
vn 0.6577 0.7055 0.2641
vn 0.7655 0.5611 0.3149
vn 0.4637 0.8316 0.3058
vn 0.6080 0.6626 0.4374
vn 0.6831 0.5127 0.5201
vn 0.7247 0.4182 0.5477
vn 0.7936 0.2352 0.5612
vn 0.6325 -0.6498 0.4216
vn 0.1671 0.9796 0.1117
vn 0.3191 0.9238 0.2116
vn 0.6802 0.2716 0.6808
vn 0.5372 -0.6502 0.5372
vn 0.1421 0.9796 0.1421
vn 0.2690 0.9229 0.2755
vn 0.3885 0.8314 0.3974
vn -0.5450 0.1939 -0.8157
vn -0.6937 0.1939 -0.6937
vn -0.6539 0.3805 -0.6539
vn -0.5138 0.3805 -0.7689
vn 0.5459 0.6323 0.5497
vn -0.0967 0.1624 0.9820
vn -0.0938 0.2890 0.9527
vn -0.1867 0.2903 0.9386
vn -0.1914 0.1939 0.9622
vn 0.5576 0.2398 0.7947
vn 0.4216 -0.6498 0.6325
vn 0.1117 0.9796 0.1671
vn 0.2141 0.9219 0.3229
vn 0.3053 0.8320 0.4633
vn 0.3753 0.1912 0.9070
vn 0.2910 -0.6494 0.7026
vn 0.0769 0.9796 0.1857
vn 0.1484 0.9217 0.3584
vn 0.2098 0.8298 0.5171
vn 0.2653 0.7038 0.6590
vn 0.4335 0.6640 0.6092
vn 0.3148 0.5534 0.7711
vn 0.5103 0.5098 0.6926
vn 0.3527 0.3801 0.8550
vn 0.5356 0.4198 0.7327
vn 0.1385 0.7041 0.6965
vn 0.1508 0.6344 0.7582
vn 0.1609 0.5538 0.8170
vn 0.1689 0.4735 0.8644
vn 0.1777 0.3804 0.9076
vn 0.1843 0.2878 0.9398
vn 0.1902 0.1927 0.9627
vn 0.1484 -0.6494 0.7459
vn 0.0392 0.9796 0.1971
vn 0.0757 0.9217 0.3804
vn 0.1092 0.8286 0.5490
vn 0.1238 0.7730 0.6222
vn -0.0000 0.9796 0.2010
vn -0.0000 0.9217 0.3879
vn -0.0000 0.8286 0.5598
vn -0.0000 0.7730 0.6344
vn 0.0624 0.7715 0.6332
vn 0.0693 0.7070 0.7038
vn 0.0759 0.6326 0.7708
vn 0.0865 0.4696 0.8786
vn 0.0815 0.5552 0.8277
vn -0.0000 0.5528 0.8333
vn -0.0000 0.4714 0.8819
vn 0.0938 0.2890 0.9527
vn 0.0893 0.4115 0.9070
vn -0.0000 0.3805 0.9248
vn -0.0000 0.2903 0.9569
vn 0.0967 0.1624 0.9820
vn 0.0975 0.0975 0.9904
vn -0.0000 0.1939 0.9810
vn -0.0000 -0.6494 0.7605
vn -0.0865 0.4696 0.8786
vn -0.0815 0.5552 0.8277
vn -0.1626 0.5528 0.8173
vn -0.1721 0.4714 0.8650
vn -0.1720 0.4714 0.8650
vn -0.0893 0.4115 0.9070
vn -0.1804 0.3805 0.9070
vn -0.0976 0.0975 0.9904
vn -0.1484 -0.6494 0.7459
vn -0.0392 0.9796 0.1971
vn -0.0757 0.9217 0.3804
vn -0.1092 0.8286 0.5490
vn -0.1238 0.7730 0.6222
vn -0.0624 0.7715 0.6332
vn -0.0759 0.6326 0.7708
vn -0.0693 0.7070 0.7038
vn -0.1385 0.7041 0.6965
vn -0.1508 0.6344 0.7582
vn -0.0769 0.9796 0.1857
vn -0.1484 0.9217 0.3584
vn -0.2142 0.8286 0.5172
vn -0.2718 0.7041 0.6561
vn -0.3189 0.5528 0.7699
vn -0.3539 0.3805 0.8544
vn -0.3754 0.1939 0.9063
vn -0.2910 -0.6494 0.7026
vn -0.4630 0.5528 0.6929
vn -0.5138 0.3805 0.7689
vn -0.5450 0.1939 0.8157
vn -0.4225 -0.6494 0.6323
vn -0.1117 0.9796 0.1671
vn -0.2155 0.9217 0.3225
vn -0.3110 0.8286 0.4654
vn -0.3945 0.7041 0.5905
vn -0.2743 0.9217 0.2743
vn -0.3958 0.8286 0.3958
vn -0.5021 0.7041 0.5021
vn -0.5893 0.5528 0.5893
vn -0.6539 0.3805 0.6539
vn -0.6937 0.1939 0.6937
vn -0.5377 -0.6494 0.5377
vn -0.1421 0.9796 0.1421
vn -0.8157 0.1939 0.5450
vn -0.6323 -0.6494 0.4225
vn -0.1671 0.9796 0.1117
vn -0.3225 0.9217 0.2155
vn -0.4654 0.8286 0.3110
vn -0.7699 0.5528 0.3189
vn -0.6929 0.5528 0.4630
vn -0.5905 0.7041 0.3945
vn -0.6562 0.7040 0.2718
vn -0.8544 0.3805 0.3539
vn -0.7689 0.3805 0.5138
vn -0.9063 0.1939 0.3754
vn -0.7026 -0.6494 0.2910
vn -0.1857 0.9796 0.0769
vn -0.3581 0.9217 0.1487
vn -0.9070 0.3805 0.1804
vn -0.9386 0.2903 0.1867
vn -0.9622 0.1939 0.1914
vn -0.7459 -0.6494 0.1484
vn -0.1993 0.9794 0.0337
vn -0.3744 0.9242 0.0750
vn -0.5171 0.8286 0.2144
vn -0.5506 0.8261 0.1197
vn -0.6092 0.7712 0.1847
vn -0.6279 0.7677 0.1284
vn -0.6228 0.7727 0.1227
vn -0.6957 0.7051 0.1374
vn -0.8173 0.5528 0.1626
vn -0.7580 0.6347 0.1504
vn -0.7581 0.6344 0.1508
vn -0.8650 0.4714 0.1721
vn -0.7705 0.6329 0.0759
vn -0.7019 0.7087 0.0716
vn -0.7087 0.7055 0.0011
vn -0.7729 0.6346 0.0003
vn -0.8786 0.4696 0.0865
vn -0.8277 0.5552 0.0815
vn -0.8333 0.5528 -0.0000
vn -0.8819 0.4714 -0.0000
vn -0.9527 0.2890 0.0938
vn -0.9070 0.4115 0.0893
vn -0.9248 0.3805 -0.0000
vn -0.9569 0.2903 -0.0000
vn -0.9820 0.1624 0.0967
vn -0.9904 0.0975 0.0975
vn -0.9810 0.1939 -0.0000
vn -0.7605 -0.6494 -0.0000
vn -0.2053 0.9787 -0.0005
vn -0.3909 0.9204 -0.0006
vn -0.0016 0.7991 -0.6011
vn -0.1031 0.7908 -0.6033
vn -0.9820 0.1624 -0.0967
vn -0.9904 0.0975 -0.0976
vn -0.9622 0.1939 -0.1914
vn -0.7459 -0.6494 -0.1484
vn -0.1996 0.9793 -0.0337
vn -0.3748 0.9240 -0.0765
vn -0.5658 0.8245 -0.0062
vn -0.5507 0.8256 -0.1225
vn -0.7708 0.6326 -0.0759
vn -0.7034 0.7075 -0.0679
vn -0.6964 0.7043 -0.1379
vn -0.7582 0.6344 -0.1508
vn -0.8786 0.4696 -0.0865
vn -0.8277 0.5552 -0.0815
vn -0.8173 0.5528 -0.1626
vn -0.8650 0.4714 -0.1720
vn -0.9527 0.2890 -0.0938
vn -0.9070 0.4115 -0.0893
vn -0.9070 0.3805 -0.1804
vn -0.9386 0.2903 -0.1867
vn -0.6561 0.7040 -0.2717
vn -0.7699 0.5528 -0.3189
vn -0.8544 0.3805 -0.3539
vn -0.9063 0.1939 -0.3754
vn -0.7026 -0.6494 -0.2910
vn -0.1859 0.9796 -0.0765
vn -0.3581 0.9219 -0.1481
vn -0.5171 0.8286 -0.2143
vn -0.6223 0.7731 -0.1227
vn -0.6277 0.7676 -0.1297
vn -0.6090 0.7714 -0.1846
vn -0.1671 0.9796 -0.1117
vn -0.3225 0.9217 -0.2155
vn -0.4654 0.8286 -0.3110
vn -0.5905 0.7041 -0.3945
vn -0.6929 0.5528 -0.4630
vn -0.7689 0.3805 -0.5138
vn -0.8157 0.1939 -0.5450
vn -0.6323 -0.6494 -0.4225
vn -0.5021 0.7041 -0.5021
vn -0.5893 0.5528 -0.5893
vn -0.3945 0.7041 -0.5905
vn -0.4630 0.5528 -0.6929
vn -0.5377 -0.6494 -0.5377
vn -0.1421 0.9796 -0.1421
vn -0.2743 0.9217 -0.2742
vn -0.3958 0.8286 -0.3958
vn -0.1110 0.9797 -0.1670
vn -0.2153 0.9218 -0.3224
vn -0.3110 0.8286 -0.4654
vn -0.4225 -0.6494 -0.6323
vn -0.3189 0.5528 -0.7699
vn -0.3539 0.3805 -0.8544
vn -0.3754 0.1939 -0.9063
vn -0.2910 -0.6494 -0.7026
vn -0.0774 0.9792 -0.1874
vn -0.1457 0.9207 -0.3621
vn -0.2085 0.8285 -0.5197
vn -0.2692 0.7060 -0.6551
vn -0.0354 0.9795 -0.1985
vn -0.1359 0.7058 -0.6953
vn -0.1508 0.6344 -0.7582
vn -0.1626 0.5528 -0.8173
vn -0.1804 0.3805 -0.9070
vn -0.1914 0.1939 -0.9622
vn -0.1484 -0.6494 -0.7459
vn -0.0865 0.4696 -0.8786
vn -0.0815 0.5552 -0.8277
vn -0.0000 0.5528 -0.8333
vn -0.0000 0.4714 -0.8819
vn -0.0938 0.2890 -0.9527
vn -0.0893 0.4115 -0.9070
vn -0.0000 0.3805 -0.9248
vn -0.0000 0.2903 -0.9569
vn -0.0967 0.1624 -0.9820
vn -0.0976 0.0975 -0.9904
vn -0.0759 0.6326 -0.7708
vn -0.0693 0.7070 -0.7038
vn -0.0000 0.7041 -0.7101
vn -0.0000 0.6344 -0.7730
vn -0.0216 0.9755 -0.2189
vn 0.0624 0.7715 -0.6332
vn -0.0280 -0.5688 -0.8220
vn -0.0000 0.6344 0.7730
vn -0.0000 0.7041 0.7101
vn 0.6332 0.7715 0.0624
vn 0.6332 0.7715 -0.0624
vn -0.6331 0.7717 -0.0604
vn -0.6340 0.7709 -0.0611
vn -0.7708 0.6326 0.0759
vn -0.7730 0.6344 -0.0000
vn -0.6349 0.7701 0.0619
vn -0.6397 0.7665 0.0573
vn -0.6467 0.7627 0.0004
vn -0.6350 0.7725 0.0005
vn -0.6342 0.7708 0.0606
vn -0.7018 0.7092 0.0669
vn -0.6383 0.7673 0.0618
vn -0.7704 0.6332 0.0751
vn -0.6333 0.7715 -0.0608
vn -0.7027 0.7081 -0.0693
vn -0.6358 0.7697 -0.0585
vn -0.7708 0.6326 -0.0754
vn -0.0560 -0.8956 -0.4413
vt 0.726562 0.656250
vt 0.726562 0.687500
vt 0.718750 0.687500
vt 0.718750 0.656250
vt 0.726562 0.593750
vt 0.726562 0.625000
vt 0.718750 0.625000
vt 0.718750 0.593750
vt 0.750000 0.500000
vt 0.750000 0.562500
vt 0.742188 0.562500
vt 0.734375 0.562500
vt 0.726562 0.562500
vt 0.718750 0.562500
vt 0.718750 0.500000
vt 0.750000 0.937500
vt 0.734375 1.000000
vt 0.718750 0.937500
vt 0.750000 0.875000
vt 0.718750 0.875000
vt 0.781250 0.812500
vt 0.781250 0.875000
vt 0.000000 0.000000
vt 0.726562 0.718750
vt 0.726562 0.750000
vt 0.718750 0.750000
vt 0.718750 0.734375
vt 0.718750 0.718750
vt 0.718750 0.703125
vt 0.687500 0.750000
vt 0.687500 0.687500
vt 0.687500 0.562500
vt 0.687500 0.500000
vt 0.703125 1.000000
vt 0.687500 0.937500
vt 0.687500 0.875000
vt 0.718750 0.812500
vt 0.687500 0.812500
vt 0.718750 0.765625
vt 0.718750 0.781250
vt 0.671875 1.000000
vt 0.656250 0.937500
vt 0.656250 0.875000
vt 0.656250 0.812500
vt 0.656250 0.750000
vt 0.656250 0.687500
vt 0.687500 0.625000
vt 0.656250 0.625000
vt 0.656250 0.562500
vt 0.656250 0.500000
vt 0.625000 0.750000
vt 0.625000 0.687500
vt 0.625000 0.625000
vt 0.625000 0.562500
vt 0.625000 0.500000
vt 0.640625 1.000000
vt 0.625000 0.937500
vt 0.625000 0.875000
vt 0.625000 0.812500
vt 0.593750 0.937500
vt 0.593750 0.875000
vt 0.593750 0.812500
vt 0.593750 0.750000
vt 0.593750 0.687500
vt 0.593750 0.625000
vt 0.593750 0.562500
vt 0.593750 0.500000
vt 0.609375 1.000000
vt 0.562500 0.687500
vt 0.562500 0.625000
vt 0.562500 0.562500
vt 0.562500 0.500000
vt 0.578125 1.000000
vt 0.562500 0.937500
vt 0.562500 0.875000
vt 0.562500 0.812500
vt 0.562500 0.750000
vt 0.531250 0.875000
vt 0.531250 0.812500
vt 0.531250 0.796875
vt 0.531250 0.781250
vt 0.531250 0.765625
vt 0.531250 0.750000
vt 0.531250 0.734375
vt 0.531250 0.718750
vt 0.531250 0.703125
vt 0.531250 0.687500
vt 0.531250 0.671875
vt 0.531250 0.656250
vt 0.531250 0.640625
vt 0.531250 0.625000
vt 0.531250 0.609375
vt 0.531250 0.593750
vt 0.531250 0.578125
vt 0.531250 0.562500
vt 0.531250 0.500000
vt 0.546875 1.000000
vt 0.531250 0.937500
vt 0.523438 0.625000
vt 0.523438 0.593750
vt 0.523438 0.562500
vt 0.515625 0.562500
vt 0.507812 0.562500
vt 0.500000 0.562500
vt 0.500000 0.500000
vt 0.515625 1.000000
vt 0.500000 0.937500
vt 0.500000 0.875000
vt 0.468750 0.812500
vt 0.507812 0.718750
vt 0.507812 0.750000
vt 0.500000 0.750000
vt 0.500000 0.734375
vt 0.500000 0.718750
vt 0.507812 0.640625
vt 0.507812 0.687500
vt 0.500000 0.687500
vt 0.500000 0.671875
vt 0.500000 0.656250
vt 0.500000 0.640625
vt 0.500000 0.812500
vt 0.468750 0.875000
vt 0.476562 0.718750
vt 0.476562 0.750000
vt 0.468750 0.750000
vt 0.468750 0.734375
vt 0.468750 0.718750
vt 0.476562 0.640625
vt 0.476562 0.687500
vt 0.468750 0.687500
vt 0.468750 0.671875
vt 0.468750 0.656250
vt 0.468750 0.640625
vt 0.492188 0.625000
vt 0.492188 0.593750
vt 0.500000 0.593750
vt 0.500000 0.609375
vt 0.500000 0.625000
vt 0.492188 0.562500
vt 0.484375 0.562500
vt 0.476562 0.562500
vt 0.468750 0.562500
vt 0.468750 0.500000
vt 0.484375 1.000000
vt 0.468750 0.937500
vt 0.468750 0.578125
vt 0.468750 0.593750
vt 0.468750 0.609375
vt 0.468750 0.625000
vt 0.437500 0.625000
vt 0.437500 0.562500
vt 0.437500 0.500000
vt 0.453125 1.000000
vt 0.437500 0.937500
vt 0.437500 0.875000
vt 0.437500 0.812500
vt 0.468750 0.765625
vt 0.468750 0.781250
vt 0.468750 0.796875
vt 0.437500 0.750000
vt 0.468750 0.703125
vt 0.437500 0.687500
vt 0.406250 0.812500
vt 0.406250 0.750000
vt 0.406250 0.687500
vt 0.406250 0.562500
vt 0.406250 0.500000
vt 0.421875 1.000000
vt 0.406250 0.937500
vt 0.406250 0.875000
vt 0.375000 0.562500
vt 0.375000 0.500000
vt 0.390625 1.000000
vt 0.375000 0.937500
vt 0.375000 0.875000
vt 0.843750 0.562500
vt 0.843750 0.625000
vt 0.226562 0.562500
vt 0.226562 0.593750
vt 0.218750 0.593750
vt 0.218750 0.562500
vt 0.343750 0.562500
vt 0.343750 0.500000
vt 0.359375 1.000000
vt 0.343750 0.937500
vt 0.343750 0.875000
vt 0.312500 0.562500
vt 0.312500 0.500000
vt 0.328125 1.000000
vt 0.312500 0.937500
vt 0.312500 0.875000
vt 0.343750 0.812500
vt 0.312500 0.812500
vt 0.312500 0.750000
vt 0.343750 0.750000
vt 0.312500 0.687500
vt 0.312500 0.625000
vt 0.343750 0.625000
vt 0.281250 0.750000
vt 0.281250 0.734375
vt 0.281250 0.718750
vt 0.281250 0.703125
vt 0.281250 0.687500
vt 0.281250 0.671875
vt 0.281250 0.656250
vt 0.281250 0.640625
vt 0.281250 0.625000
vt 0.281250 0.593750
vt 0.281250 0.562500
vt 0.281250 0.500000
vt 0.296875 1.000000
vt 0.281250 0.937500
vt 0.281250 0.875000
vt 0.281250 0.812500
vt 0.281250 0.796875
vt 0.281250 0.781250
vt 0.281250 0.765625
vt 0.250000 0.937500
vt 0.250000 0.875000
vt 0.250000 0.812500
vt 0.250000 0.781250
vt 0.257812 0.781250
vt 0.265625 0.781250
vt 0.273438 0.781250
vt 0.273438 0.750000
vt 0.273438 0.734375
vt 0.257812 0.640625
vt 0.257812 0.687500
vt 0.250000 0.687500
vt 0.250000 0.671875
vt 0.250000 0.656250
vt 0.250000 0.640625
vt 0.257812 0.593750
vt 0.257812 0.625000
vt 0.250000 0.625000
vt 0.250000 0.593750
vt 0.273438 0.562500
vt 0.265625 0.562500
vt 0.257812 0.562500
vt 0.250000 0.562500
vt 0.250000 0.500000
vt 0.265625 1.000000
vt 0.226562 0.640625
vt 0.226562 0.687500
vt 0.218750 0.687500
vt 0.218750 0.671875
vt 0.218750 0.656250
vt 0.218750 0.640625
vt 0.226562 0.625000
vt 0.218750 0.625000
vt 0.242187 0.562500
vt 0.234375 0.562500
vt 0.218750 0.500000
vt 0.234375 1.000000
vt 0.218750 0.937500
vt 0.218750 0.875000
vt 0.218750 0.812500
vt 0.218750 0.781250
vt 0.226562 0.781250
vt 0.234375 0.781250
vt 0.242188 0.781250
vt 0.226562 0.734375
vt 0.226562 0.750000
vt 0.218750 0.750000
vt 0.218750 0.734375
vt 0.187500 0.937500
vt 0.187500 0.875000
vt 0.187500 0.812500
vt 0.187500 0.750000
vt 0.218750 0.703125
vt 0.218750 0.718750
vt 0.187500 0.687500
vt 0.187500 0.625000
vt 0.187500 0.562500
vt 0.187500 0.500000
vt 0.203125 1.000000
vt 0.156250 0.687500
vt 0.156250 0.625000
vt 0.156250 0.562500
vt 0.156250 0.500000
vt 0.171875 1.000000
vt 0.156250 0.937500
vt 0.156250 0.875000
vt 0.156250 0.812500
vt 0.156250 0.750000
vt 0.125000 0.875000
vt 0.125000 0.812500
vt 0.125000 0.750000
vt 0.125000 0.687500
vt 0.125000 0.562500
vt 0.125000 0.500000
vt 0.140625 1.000000
vt 0.125000 0.937500
vt 0.093750 0.562500
vt 0.093750 0.500000
vt 0.109375 1.000000
vt 0.093750 0.937500
vt 0.093750 0.875000
vt 0.093750 0.812500
vt 0.062500 0.750000
vt 0.062500 0.562500
vt 0.062500 0.500000
vt 0.078125 1.000000
vt 0.062500 0.937500
vt 0.062500 0.875000
vt 0.062500 0.625000
vt 0.031250 0.625000
vt 0.031250 0.609375
vt 0.031250 0.593750
vt 0.031250 0.578125
vt 0.031250 0.562500
vt 0.031250 0.500000
vt 0.046875 1.000000
vt 0.031250 0.937500
vt 0.031250 0.875000
vt 0.062500 0.812500
vt 0.031250 0.812500
vt 0.031250 0.796875
vt 0.031250 0.781250
vt 0.031250 0.765625
vt 0.031250 0.750000
vt 0.031250 0.687500
vt 0.062500 0.687500
vt 0.031250 0.734375
vt 0.031250 0.718750
vt 0.031250 0.703125
vt 0.031250 0.671875
vt 0.031250 0.656250
vt 0.031250 0.640625
vt 0.007812 0.734375
vt 0.007812 0.750000
vt 0.000000 0.750000
vt 0.000000 0.734375
vt 0.007812 0.671875
vt 0.007812 0.687500
vt 0.000000 0.687500
vt 0.000000 0.671875
vt 0.007812 0.609375
vt 0.007812 0.625000
vt 0.000000 0.625000
vt 0.000000 0.609375
vt 0.023437 0.562500
vt 0.015625 0.562500
vt 0.007812 0.562500
vt 0.000000 0.562500
vt 0.000000 0.500000
vt 0.015625 1.000000
vt 0.000000 0.937500
vt 0.000000 0.875000
vt 0.750000 0.781250
vt 0.781250 0.781250
vt 1.000000 0.500000
vt 1.000000 0.562500
vt 0.992188 0.562500
vt 0.984375 0.562500
vt 0.976562 0.562500
vt 0.968750 0.562500
vt 0.968750 0.500000
vt 1.000000 0.937500
vt 0.984375 1.000000
vt 0.968750 0.937500
vt 1.000000 0.875000
vt 0.968750 0.875000
vt 0.976562 0.734375
vt 0.976562 0.750000
vt 0.968750 0.750000
vt 0.968750 0.734375
vt 0.976562 0.671875
vt 0.976562 0.687500
vt 0.968750 0.687500
vt 0.968750 0.671875
vt 0.976562 0.609375
vt 0.976562 0.625000
vt 0.968750 0.625000
vt 0.968750 0.609375
vt 0.968750 0.703125
vt 0.968750 0.718750
vt 0.937500 0.750000
vt 0.937500 0.687500
vt 0.968750 0.640625
vt 0.968750 0.656250
vt 0.937500 0.625000
vt 0.968750 0.578125
vt 0.968750 0.593750
vt 0.937500 0.562500
vt 0.937500 0.500000
vt 0.953125 1.000000
vt 0.937500 0.937500
vt 0.937500 0.875000
vt 0.968750 0.812500
vt 0.937500 0.812500
vt 0.968750 0.765625
vt 0.968750 0.781250
vt 0.968750 0.796875
vt 0.921875 1.000000
vt 0.906250 0.937500
vt 0.906250 0.875000
vt 0.906250 0.812500
vt 0.906250 0.750000
vt 0.906250 0.687500
vt 0.906250 0.625000
vt 0.906250 0.562500
vt 0.906250 0.500000
vt 0.875000 0.750000
vt 0.843750 0.750000
vt 0.843750 0.687500
vt 0.242188 0.640625
vt 0.242188 0.625000
vt 0.875000 0.562500
vt 0.875000 0.500000
vt 0.890625 1.000000
vt 0.875000 0.937500
vt 0.875000 0.875000
vt 0.875000 0.812500
vt 0.843750 0.937500
vt 0.843750 0.875000
vt 0.843750 0.812500
vt 0.242187 0.687500
vt 0.843750 0.500000
vt 0.859375 1.000000
vt 0.812500 0.687500
vt 0.812500 0.562500
vt 0.812500 0.500000
vt 0.828125 1.000000
vt 0.812500 0.937500
vt 0.812500 0.875000
vt 0.812500 0.812500
vt 0.812500 0.750000
vt 0.781250 0.937500
vt 0.781250 0.750000
vt 0.781250 0.734375
vt 0.781250 0.718750
vt 0.781250 0.703125
vt 0.781250 0.687500
vt 0.781250 0.562500
vt 0.781250 0.500000
vt 0.796875 1.000000
vt 0.757812 0.656250
vt 0.757812 0.687500
vt 0.750000 0.687500
vt 0.750000 0.656250
vt 0.757812 0.593750
vt 0.757812 0.625000
vt 0.750000 0.625000
vt 0.750000 0.593750
vt 0.773438 0.562500
vt 0.765625 0.562500
vt 0.757812 0.562500
vt 0.765625 1.000000
vt 0.757812 0.718750
vt 0.757812 0.750000
vt 0.750000 0.750000
vt 0.750000 0.734375
vt 0.750000 0.718750
vt 0.273438 0.625000
vt 0.273438 0.640625
vt 0.265625 0.625000
vt 0.757809 0.578555
vt 0.750000 0.578984
vt 0.726562 0.578125
vt 0.718750 0.578125
vt 0.742188 0.593750
vt 0.742188 0.578555
vt 0.742188 0.625000
vt 0.781250 0.593750
vt 0.781250 0.625000
vt 0.773438 0.625000
vt 0.773438 0.593750
vt 0.726562 0.640625
vt 0.718750 0.640625
vt 0.757812 0.640625
vt 0.750000 0.640625
vt 0.742188 0.640625
vt 0.734375 0.640625
vt 0.734375 0.625000
vt 0.742188 0.656250
vt 0.742188 0.687500
vt 0.781250 0.656250
vt 0.773438 0.687500
vt 0.773438 0.656250
vt 0.781250 0.640625
vt 0.773438 0.640625
vt 0.765625 0.625000
vt 0.765625 0.640625
vt 0.773438 0.750000
vt 0.773438 0.718750
vt 0.742188 0.750000
vt 0.742188 0.718750
vt 0.773438 0.703125
vt 0.757812 0.703125
vt 0.750000 0.703125
vt 0.742188 0.703125
vt 0.726562 0.703125
vt 0.734375 0.703125
vt 0.734375 0.718750
vt 0.765625 0.703125
vt 0.765625 0.718750
vt 0.757812 0.781250
vt 0.773438 0.781250
vt 0.726562 0.765625
vt 0.742188 0.781250
vt 0.726562 0.781250
vt 0.273438 0.593750
vt 0.234375 0.625000
vt 0.242188 0.593750
vt 0.273438 0.687500
vt 0.257812 0.703125
vt 0.250000 0.703125
vt 0.226562 0.703125
vt 0.273438 0.703125
vt 0.242187 0.703125
vt 0.226562 0.718750
vt 0.250000 0.718750
vt 0.242188 0.718750
vt 0.257812 0.718750
vt 0.257812 0.734375
vt 0.250000 0.734375
vt 0.273438 0.718750
vt 0.242188 0.734375
vt 0.250000 0.750000
vt 0.242188 0.750000
vt 0.257812 0.750000
vt 0.476562 0.593750
vt 0.507812 0.593750
vt 0.500000 0.578125
vt 0.476562 0.625000
vt 0.507812 0.625000
vt 0.523438 0.640625
vt 0.515625 0.640625
vt 0.515625 0.625000
vt 0.492188 0.640625
vt 0.484375 0.640625
vt 0.484375 0.625000
vt 0.507812 0.703125
vt 0.500000 0.703125
vt 0.476562 0.703125
vt 0.492187 0.687500
vt 0.492188 0.703125
vt 0.523438 0.687500
vt 0.523438 0.703125
vt 0.492188 0.718750
vt 0.484375 0.718750
vt 0.484375 0.703125
vt 0.523438 0.718750
vt 0.515625 0.718750
vt 0.515625 0.703125
vt 0.476562 0.781250
vt 0.507812 0.781250
vt 0.500000 0.781250
vt 0.500000 0.765625
vt 0.492188 0.750000
vt 0.492188 0.781250
vt 0.523438 0.750000
vt 0.523438 0.781250
vt 0.976562 0.578125
vt 0.976562 0.593750
vt 0.976562 0.640625
vt 0.976562 0.656250
vt 0.976562 0.703125
vt 0.976562 0.718750
vt 0.992188 0.703125
vt 0.992188 0.718750
vt 0.984375 0.718750
vt 0.984375 0.703125
vt 0.976562 0.765625
vt 0.976562 0.781250
vt 0.007812 0.578125
vt 0.007812 0.593750
vt 0.000000 0.593750
vt 0.000000 0.578125
vt 0.007812 0.640625
vt 0.007812 0.656250
vt 0.000000 0.656250
vt 0.000000 0.640625
vt 0.007812 0.703125
vt 0.007812 0.718750
vt 0.000000 0.718750
vt 0.000000 0.703125
vt 0.023437 0.703125
vt 0.023437 0.718750
vt 0.015625 0.718750
vt 0.015625 0.703125
vt 0.007812 0.765625
vt 0.007812 0.781250
vt 0.000000 0.781250
vt 0.000000 0.765625
vt 0.023437 0.765625
vt 0.023438 0.750000
vt 0.023437 0.781250
vt 0.023437 0.734375
vt 0.023437 0.687500
vt 0.023437 0.671875
vt 0.023437 0.656250
vt 0.023438 0.625000
vt 0.023437 0.640625
vt 0.015625 0.640625
vt 0.015625 0.625000
vt 0.023437 0.609375
vt 0.023437 0.593750
vt 0.023437 0.578125
vt 1.000000 0.750000
vt 1.000000 0.765625
vt 0.992188 0.765625
vt 0.992188 0.750000
vt 1.000000 0.781250
vt 0.992188 0.781250
vt 1.000000 0.718750
vt 1.000000 0.734375
vt 0.992188 0.734375
vt 1.000000 0.687500
vt 1.000000 0.703125
vt 0.992188 0.687500
vt 1.000000 0.656250
vt 1.000000 0.671875
vt 0.992188 0.671875
vt 0.992188 0.656250
vt 0.992188 0.625000
vt 0.992188 0.640625
vt 0.984375 0.640625
vt 0.984375 0.625000
vt 1.000000 0.625000
vt 1.000000 0.640625
vt 1.000000 0.593750
vt 1.000000 0.609375
vt 0.992188 0.609375
vt 0.992188 0.593750
vt 1.000000 0.578125
vt 0.992188 0.578125
s 1
usemtl Material.011
f 378/90/25 372/91/26 85/92/27 366/93/25
f 357/94/28 359/95/29 86/96/30 345/97/28
f 80/98/31 79/99/32 352/100/33 346/101/34 356/102/33 87/103/35 88/104/36
f 330/105/37 121/106/38 81/107/39
f 331/108/40 330/105/37 81/107/39 82/109/41
f 324/110/42 323/111/43 331/108/40 77/112/44
f 408/113/45 389/114/46 84/115/47 392/116/48 390/117/48
f 85/92/27 391/118/48 390/117/48 392/116/48 84/115/47 92/119/49 93/120/50
f 94/112/51 86/112/30 85/92/27 93/120/50
f 88/104/36 87/112/35 95/121/52 96/122/53
f 81/107/39 121/123/38 89/124/54
f 82/109/41 81/107/39 89/124/54 90/125/55
f 83/126/56 82/109/41 90/125/55 91/127/57
f 84/115/47 412/128/58 368/129/59 83/126/56 91/127/57 92/119/49
f 89/124/54 121/130/38 97/131/60
f 90/125/55 89/124/54 97/131/60 98/132/61
f 91/127/57 90/125/55 98/132/61 99/133/62
f 92/119/49 91/127/57 99/133/62 100/134/63
f 93/120/50 92/119/49 100/134/63 101/135/64
f 94/136/51 93/120/50 101/135/64 102/137/65
f 102/137/65 103/138/66 95/112/52 94/136/51
f 96/122/53 95/121/52 103/138/66 104/139/67
f 101/135/64 100/134/63 108/140/68 109/141/69
f 102/137/65 101/135/64 109/141/69 110/142/70
f 103/138/66 102/137/65 110/142/70 111/143/71
f 104/139/67 103/138/66 111/143/71 112/144/72
f 97/131/60 121/145/38 105/146/73
f 98/132/61 97/131/60 105/146/73 106/147/74
f 99/133/62 98/132/61 106/147/74 107/148/75
f 100/134/63 99/133/62 107/148/75 108/140/68
f 106/147/74 105/146/73 113/149/76 114/150/77
f 107/148/75 106/147/74 114/150/77 115/151/78
f 108/140/68 107/148/75 115/151/78 116/152/79
f 109/141/69 108/140/68 116/152/79 117/153/80
f 110/142/70 109/141/69 117/153/80 118/154/81
f 111/143/71 110/142/70 118/154/81 119/155/82
f 112/144/72 111/143/71 119/155/82 120/156/83
f 105/146/73 121/157/38 113/149/76
f 118/154/81 117/153/80 126/158/84 127/159/85
f 119/155/82 118/154/81 127/159/85 128/160/86
f 120/156/83 119/155/82 128/160/86 129/161/87
f 113/149/76 121/162/38 122/163/88
f 114/150/77 113/149/76 122/163/88 123/164/89
f 115/151/78 114/150/77 123/164/89 124/165/90
f 116/152/79 115/151/78 124/165/90 125/166/91
f 117/153/80 116/152/79 125/166/91 126/158/84
f 124/165/90 123/164/89 131/167/92 132/168/93
f 125/166/91 124/165/90 132/168/93 506/169/94 498/170/95 502/171/95 133/172/96
f 126/158/84 125/166/91 133/172/96 507/173/97 499/174/97 503/175/97 134/176/98
f 127/159/85 126/158/84 134/176/98 508/177/99 500/178/99 504/179/99 135/180/100
f 128/160/86 127/159/85 135/180/100 509/181/101 501/182/101 505/183/101 136/184/102
f 129/161/87 128/160/86 136/184/102 137/185/103
f 122/163/88 121/186/38 130/187/104
f 123/164/89 122/163/88 130/187/104 131/167/92
f 532/188/105 537/189/106 501/182/101 509/181/101 135/180/100
f 137/185/103 136/184/102 524/190/107 522/191/108 526/192/107 144/193/109 145/194/110
f 130/187/104 121/195/38 138/196/111
f 131/167/92 130/187/104 138/196/111 139/197/112
f 467/112/113 498/112/95 132/112/93 140/112/114
f 140/112/114 148/198/115 510/112/116 467/112/113
f 557/199/117 562/200/118 141/201/119 495/202/120 487/203/120
f 546/204/121 552/205/122 142/206/123 496/207/124 488/208/124 492/209/124
f 140/210/114 139/197/112 147/211/125 148/198/115
f 132/112/93 131/167/92 139/197/112 140/112/114
f 556/212/126 563/213/127 149/214/128 519/215/129 511/216/129
f 547/217/130 553/218/131 150/219/132 520/220/133 512/221/133 516/222/133
f 531/223/134 535/224/135 489/225/136 497/226/136 143/227/137
f 145/194/110 144/193/109 525/228/138 523/229/139 527/230/138 152/231/140 153/232/141
f 138/196/111 121/233/38 146/234/142
f 139/197/112 138/196/111 146/234/142 147/211/125
f 152/231/140 517/235/143 513/236/143 521/237/143 151/238/144 159/239/145 160/240/146
f 153/232/141 152/231/140 160/240/146 161/241/147
f 146/234/142 121/242/38 154/243/148
f 147/211/125 146/234/142 154/243/148 155/244/149
f 148/198/115 147/211/125 155/244/149 156/245/150
f 149/214/128 514/246/116 510/247/116 518/248/151 148/198/115 156/245/150 157/249/152
f 150/219/132 515/250/129 511/216/129 519/215/129 149/214/128 157/249/152 158/251/153
f 151/238/144 516/222/133 512/221/133 520/220/133 150/219/132 158/251/153 159/239/145
f 156/245/150 164/252/154 165/112/155 157/249/152
f 158/251/153 157/249/152 165/253/155 166/254/156
f 158/251/153 166/254/156 167/112/157 159/239/145
f 160/240/146 159/239/145 167/112/157 168/255/158
f 161/241/147 160/240/146 168/255/158 169/256/159
f 154/243/148 121/257/38 162/258/160
f 155/244/149 154/243/148 162/258/160 163/259/161
f 156/245/150 155/244/149 163/259/161 164/252/154
f 169/256/159 168/112/158 176/260/162 177/261/163
f 162/258/160 121/262/38 170/263/164
f 163/259/161 162/258/160 170/263/164 171/264/165
f 164/112/154 163/259/161 171/264/165 172/112/166
f 312/265/167 304/112/168 303/112/169 311/266/170
f 173/112/171 165/112/155 164/112/154 172/112/166
f 426/267/172 428/268/173 339/269/174 216/270/175
f 177/261/163 176/112/162 184/271/176 185/272/177
f 170/263/164 121/273/38 178/274/178
f 171/264/165 170/263/164 178/274/178 179/275/179
f 172/112/166 171/264/165 179/275/179 180/112/180
f 185/272/177 184/271/176 192/276/181 193/277/182
f 178/274/178 121/278/38 186/279/183
f 179/275/179 178/274/178 186/279/183 187/280/184
f 180/281/180 179/275/179 187/280/184 188/282/185
f 189/283/186 181/284/187 180/112/180 188/282/185
f 189/283/186 190/285/188 182/112/189 181/284/187
f 191/286/190 192/276/181 184/112/176 183/287/191
f 190/285/188 189/283/186 197/288/192 457/289/193 455/290/193 456/291/193 198/292/194
f 191/286/190 190/285/188 198/292/194 442/293/195 440/294/195 441/295/195 199/296/196
f 192/276/181 191/286/190 199/296/196 337/297/197 200/298/198
f 193/277/182 192/276/181 200/298/198 201/299/199
f 186/279/183 121/300/38 194/301/200
f 187/280/184 186/279/183 194/301/200 195/302/201
f 188/282/185 187/280/184 195/302/201 196/303/202
f 189/283/186 188/282/185 196/303/202 481/304/203 479/305/203 480/306/203 197/288/192
f 195/302/201 194/301/200 202/307/204 203/308/205
f 196/303/202 195/302/201 203/308/205 204/309/206
f 475/310/207 483/311/208 482/312/208 484/313/208 479/305/203 481/304/203 196/303/202 204/309/206
f 470/314/209 486/315/210 457/289/193 197/288/192
f 447/316/211 444/317/212 206/318/213 439/319/214 437/320/214 438/321/214
f 425/322/215 421/323/216 207/324/217 340/325/218
f 201/299/199 200/298/198 429/326/219 338/327/220 423/328/219 208/329/221 209/330/222
f 194/301/200 121/331/38 202/307/204
f 446/332/223 432/333/224 214/334/225 436/335/226 434/336/226 435/337/227
f 428/268/173 427/338/228 215/339/229 339/269/174
f 209/330/222 208/329/221 422/340/172 335/341/230 426/267/172 216/270/175 217/342/231
f 202/307/204 121/343/38 210/344/232
f 203/308/205 202/307/204 210/344/232 211/345/233
f 204/309/206 203/308/205 211/345/233 212/346/234
f 475/310/207 204/309/206 212/346/234 472/347/235 477/348/236 476/349/236 478/350/236
f 473/351/237 466/352/238 213/353/239 454/354/240
f 211/345/233 210/344/232 218/355/241 219/356/242
f 212/346/234 211/345/233 219/356/242 220/357/243
f 213/353/239 472/347/235 212/346/234 220/357/243 221/358/244
f 214/334/225 453/359/240 452/360/240 454/354/240 213/353/239 221/358/244 222/361/245
f 215/339/229 435/337/227 434/336/226 436/335/226 214/334/225 222/361/245 223/362/246
f 216/270/175 339/269/174 215/339/229 223/362/246 224/363/247
f 217/342/231 216/270/175 224/363/247 225/364/248
f 210/344/232 121/365/38 218/355/241
f 223/362/246 222/361/245 230/366/249 231/367/250
f 224/363/247 223/362/246 231/367/250 232/368/251
f 225/364/248 224/363/247 232/368/251 233/369/252
f 218/355/241 121/370/38 226/371/253
f 219/356/242 218/355/241 226/371/253 227/372/254
f 220/357/243 219/356/242 227/372/254 228/373/255
f 221/358/244 220/357/243 228/373/255 229/374/256
f 222/361/245 221/358/244 229/374/256 230/366/249
f 228/373/255 227/372/254 235/375/257 236/376/258
f 229/374/256 228/373/255 236/376/258 237/377/259
f 230/366/249 229/374/256 237/377/259 238/378/260
f 230/366/249 238/378/260 239/112/261 231/367/250
f 231/367/250 239/112/261 240/112/262 232/368/251
f 233/369/252 232/368/251 240/379/262 241/380/263
f 226/371/253 121/381/38 234/382/264
f 227/372/254 226/371/253 234/382/264 235/375/257
f 241/380/263 240/112/262 248/383/265 249/384/266
f 234/382/264 121/385/38 242/386/267
f 235/375/257 234/382/264 242/386/267 243/387/268
f 236/376/258 235/375/257 243/387/268 244/388/269
f 254/112/270 246/112/271 245/112/272 253/389/273
f 237/377/259 245/112/272 246/112/271 238/378/260
f 255/112/274 247/112/275 246/112/271 254/112/270
f 249/384/266 248/112/265 256/390/276 257/391/277
f 242/386/267 121/392/38 250/393/278
f 243/387/268 242/386/267 250/393/278 251/394/279
f 256/390/276 255/395/274 263/396/280 613/397/281 573/398/281 593/399/281 264/400/282
f 257/391/277 256/390/276 264/400/282 265/401/283
f 250/393/278 121/402/38 258/403/284
f 251/394/279 250/393/278 258/403/284 259/404/285
f 252/405/286 251/394/279 259/404/285 260/406/287
f 253/389/273 252/405/286 260/406/287 610/407/288 570/408/289 590/409/290 261/410/291
f 262/411/292 254/412/270 253/389/273 261/410/291 611/413/293 571/414/294 591/415/294
f 263/396/280 255/395/274 254/112/270 262/411/292 612/416/295 572/417/295 592/418/295
f 677/419/296 618/420/297 269/421/298 615/422/299
f 676/423/300 619/424/301 270/425/302 616/426/303
f 675/427/304 620/428/305 271/429/306 617/430/307
f 265/401/283 264/400/282 601/431/308 579/432/309 621/433/308 272/434/310 273/435/311
f 258/403/284 121/436/38 266/437/312
f 259/404/285 258/403/284 266/437/312 267/438/313
f 405/439/314 417/440/315 324/110/42 77/112/44
f 273/441/311 272/442/310 626/443/316 584/444/317 606/445/316 280/446/318 281/447/319
f 266/448/312 121/449/38 274/450/320
f 267/451/313 266/448/312 274/450/320 275/452/321
f 268/112/322 267/451/313 275/452/321 276/112/323
f 674/453/324 627/454/325 277/455/326 623/456/327
f 673/457/328 628/458/329 278/459/330 624/460/331
f 672/461/332 629/462/333 279/463/334 625/464/335
f 278/459/330 603/465/327 581/466/327 623/456/327 277/455/326 285/467/336 286/468/337
f 279/463/334 604/469/331 582/470/331 624/460/331 278/459/330 286/468/337 287/471/338
f 280/446/318 605/472/335 583/473/335 625/464/335 279/463/334 287/471/338 288/474/339
f 281/447/319 280/446/318 288/474/339 289/475/340
f 274/450/320 121/476/38 282/477/341
f 275/452/321 274/450/320 282/477/341 283/478/342
f 276/479/323 275/452/321 283/478/342 284/480/343
f 277/455/326 602/481/344 580/482/345 622/483/346 276/479/323 284/480/343 285/467/336
f 282/477/341 121/484/38 290/485/347
f 283/478/342 282/477/341 290/485/347 291/486/348
f 284/480/343 283/478/342 291/486/348 292/487/349
f 285/467/336 284/480/343 292/487/349 293/488/350
f 286/468/337 285/467/336 293/488/350 294/489/351
f 287/471/338 286/468/337 294/489/351 295/490/352
f 288/474/339 287/471/338 295/490/352 296/491/353
f 289/475/340 288/474/339 296/491/353 297/492/354
f 294/489/351 293/488/350 301/493/355 302/112/356
f 302/112/356 301/493/355 309/494/357 310/495/358
f 207/324/217 438/321/214 445/496/223 420/497/228
f 297/492/354 296/491/353 304/498/168 305/499/359
f 290/485/347 121/500/38 298/501/360
f 291/486/348 290/485/347 298/501/360 299/502/361
f 292/487/349 291/486/348 299/502/361 300/503/362
f 293/488/350 292/487/349 300/503/362 301/493/355
f 299/502/361 298/501/360 306/504/363 307/505/364
f 300/503/362 299/502/361 307/505/364 308/506/365
f 301/493/355 300/503/362 308/506/365 309/494/357
f 302/112/356 310/495/358 311/266/170 303/112/169
f 438/321/214 437/320/214 439/319/214 206/318/213 433/507/224 445/496/223
f 423/328/219 425/322/215 340/325/218 208/329/221
f 305/499/359 304/112/168 312/265/167 313/508/366
f 298/501/360 121/509/38 306/504/363
f 318/510/367 319/112/368 311/266/170 310/495/358
f 311/266/170 319/112/368 320/511/369 312/265/167
f 313/508/366 312/265/167 320/511/369 321/512/370
f 306/504/363 121/513/38 314/514/371
f 307/505/364 306/504/363 314/514/371 315/515/372
f 308/506/365 307/505/364 315/515/372 316/516/373
f 309/494/357 308/506/365 316/516/373 317/517/374
f 310/495/358 309/494/357 317/517/374 318/510/367
f 315/515/372 314/514/371 322/518/375 323/111/43
f 316/516/373 315/515/372 323/111/43 324/110/42
f 317/517/374 316/516/373 324/110/42 417/440/315 325/519/376
f 318/510/367 317/517/374 325/519/376 398/520/377 396/521/377 397/522/377 326/523/378
f 319/112/368 318/510/367 326/523/378 327/112/379
f 321/512/370 320/511/369 328/524/380 329/525/381
f 314/514/371 121/526/38 322/518/375
f 380/527/382 373/528/383 78/529/384 348/530/385
f 350/531/386 349/532/387 333/533/388 343/534/389
f 329/525/381 328/524/380 363/535/390 344/536/391 351/537/390 79/99/32 80/98/31
f 322/518/375 121/538/38 330/105/37
f 323/111/43 322/518/375 330/105/37 331/108/40
f 411/539/392 388/540/393 332/541/394 395/542/395 393/543/395
f 191/286/190 183/287/191 182/112/189 190/285/188
f 431/544/216 448/545/211 447/316/211 421/323/216 336/546/211
f 303/112/169 304/112/168 296/491/353 295/490/352
f 303/112/169 295/490/352 294/489/351 302/112/356
f 181/112/187 173/112/171 172/112/166 180/112/180
f 256/112/276 248/112/265 247/112/275 255/112/274
f 246/112/271 247/112/275 239/112/261 238/378/260
f 240/112/262 239/112/261 247/112/275 248/112/265
f 362/547/386 350/531/386 343/534/389 360/548/389
f 358/549/28 357/94/28 345/97/28 355/550/28
f 328/524/380 320/511/369 319/112/368 327/112/379
f 356/102/33 358/549/28 355/550/28 87/103/35
f 360/548/389 343/534/389 353/551/28 361/552/28
f 343/534/389 333/533/388 354/553/29 353/551/28
f 79/99/32 360/548/389 361/552/28 352/100/33
f 351/537/390 362/547/386 360/548/389 79/99/32
f 341/554/386 327/555/379 364/556/387 365/557/386
f 328/524/380 341/554/386 365/557/386 363/535/390
f 379/558/25 378/90/25 366/93/25 369/559/25
f 385/560/382 380/527/382 348/530/385 370/561/385
f 354/553/29 377/562/25 371/563/25 347/564/25
f 359/95/29 379/558/25 369/559/25 86/96/30
f 370/561/385 348/530/385 376/565/25 377/562/25
f 348/530/385 78/529/384 375/566/26 376/565/25
f 333/533/388 370/561/385 377/562/25 354/553/29
f 347/564/25 371/563/25 379/558/25 359/95/29
f 367/567/382 326/523/378 374/568/383 381/569/382
f 382/570/382 367/567/382 381/569/382 383/571/382
f 342/572/382 384/573/382 385/560/382 349/532/387
f 364/556/387 383/571/382 384/573/382 342/572/382
f 327/555/379 382/570/382 383/571/382 364/556/387
f 349/532/387 385/560/382 370/561/385 333/533/388
f 396/521/377 398/520/377 325/519/376 386/574/393 409/575/392
f 393/543/395 395/542/395 332/541/394 387/576/46 406/577/45
f 326/523/378 397/522/377 399/578/392 374/568/383
f 373/528/383 401/579/392 394/580/395 78/529/384
f 78/529/384 394/580/395 402/581/45 375/566/26
f 372/91/26 404/582/45 391/118/48 85/92/27
f 403/583/45 407/584/45 408/113/45 404/582/45
f 402/581/45 406/577/45 407/584/45 403/583/45
f 394/580/395 393/543/395 406/577/45 402/581/45
f 404/582/45 408/113/45 390/117/48 391/118/48
f 400/585/392 410/586/392 411/539/392 401/579/392
f 399/578/392 409/575/392 410/586/392 400/585/392
f 397/522/377 396/521/377 409/575/392 399/578/392
f 401/579/392 411/539/392 393/543/395 394/580/395
f 405/439/314 419/587/396 418/588/396 417/440/315
f 389/114/46 413/589/397 412/128/58 84/115/47
f 387/576/46 332/541/394 405/439/314 414/590/398
f 413/589/397 415/591/398 368/129/59 412/128/58
f 332/541/394 388/540/393 419/587/396 405/439/314
f 325/519/376 417/440/315 418/588/396 386/574/393
f 244/388/269 243/387/268 251/394/279 252/405/286
f 245/112/272 244/388/269 252/405/286 253/389/273
f 245/112/272 237/377/259 236/376/258 244/388/269
f 165/112/155 173/112/171 181/112/187 182/112/189 183/287/191 184/112/176 176/112/162 168/112/158 167/112/157 166/254/156
f 337/297/197 199/296/196 431/544/216 430/592/215
f 200/298/198 337/297/197 430/592/215 429/326/219
f 420/497/228 445/496/223 446/332/223 427/338/228 334/593/223
f 208/329/221 340/325/218 424/594/173 422/340/172
f 340/325/218 207/324/217 420/497/228 424/594/173
f 427/338/228 446/332/223 435/337/227 215/339/229
f 421/323/216 447/316/211 438/321/214 207/324/217
f 441/295/195 440/294/195 442/293/195 198/292/194 443/595/212 448/545/211
f 199/296/196 441/295/195 448/545/211 431/544/216
f 444/317/212 459/596/210 450/597/399 206/318/213
f 432/333/224 460/598/237 453/359/240 214/334/225
f 198/292/194 456/291/193 461/599/210 443/595/212
f 206/318/213 450/597/399 462/600/237 433/507/224
f 460/598/237 463/601/237 452/360/240 453/359/240
f 450/597/399 449/602/399 464/603/237 462/600/237
f 460/598/237 462/600/237 464/603/237 463/601/237
f 463/601/237 473/351/237 454/354/240 452/360/240
f 468/604/210 485/605/210 451/606/399 449/602/399
f 469/607/210 468/604/210 459/112/210 461/112/210
f 449/602/399 451/606/399 474/608/237 464/603/237
f 451/606/399 205/609/400 465/610/238 474/608/237
f 466/352/238 477/348/236 472/347/235 213/353/239
f 205/609/400 475/310/207 478/350/236 465/610/238
f 471/611/209 483/311/208 475/310/207 205/609/400
f 455/290/193 457/289/193 486/315/210 469/607/210
f 197/288/192 480/306/203 479/305/203 484/313/208 470/314/209
f 451/606/399 485/605/210 471/611/209 205/609/400
f 449/602/399 450/597/399 459/112/210 468/604/210
f 455/290/193 469/607/210 461/112/210 456/291/193
f 527/230/138 534/612/135 513/236/143 517/235/143 152/231/140
f 526/192/107 536/613/106 489/225/136 493/614/136 144/193/109
f 513/236/143 534/612/135 533/615/134 151/238/144 521/237/143
f 136/184/102 505/183/101 501/182/101 537/189/106 524/190/107
f 489/225/136 536/613/106 530/616/105 143/227/137 497/226/136
f 144/193/109 493/614/136 489/225/136 535/224/135 525/228/138
f 135/180/100 504/179/99 548/617/121 544/618/121 546/204/121 492/209/124 143/227/137 530/616/105 528/619/121 532/188/105
f 143/227/137 492/209/124 549/620/130 545/621/130 547/217/130 516/222/133 151/238/144 533/615/134 529/622/130 531/223/134
f 552/205/122 540/623/117 491/624/120 142/206/123
f 553/218/131 541/625/126 515/250/129 150/219/132
f 492/209/124 488/208/124 496/207/124 142/206/123 551/626/131 549/620/130
f 142/206/123 491/624/120 543/627/126 551/626/131
f 504/179/99 500/178/99 508/177/99 134/176/98 550/628/122 548/617/121
f 134/176/98 503/175/97 542/629/117 550/628/122
f 491/624/120 487/203/120 558/630/126 554/631/126 556/212/126 511/216/129 515/250/129 541/625/126 539/632/126 543/627/126
f 503/175/97 499/174/97 559/633/117 555/634/117 557/199/117 487/203/120 491/624/120 540/623/117 538/635/117 542/629/117
f 563/213/127 566/636/401 510/247/116 514/246/116 149/214/128
f 562/200/118 567/637/402 467/638/113 490/639/113 141/201/119
f 487/203/120 495/202/120 141/201/119 561/640/127 558/630/126
f 141/201/119 490/639/113 467/638/113 568/641/401 561/640/127
f 499/174/97 507/173/97 133/172/96 560/642/118 559/633/117
f 133/172/96 502/171/95 498/170/95 569/643/402 560/642/118
f 671/644/332 630/645/332 583/473/335 605/472/335
f 668/646/328 632/647/328 582/470/331 604/469/331
f 665/648/324 635/649/324 581/466/327 603/465/327
f 664/650/324 636/651/324 586/652/324 637/653/324
f 662/654/403 638/655/404 580/482/345 602/481/344
f 660/656/304 640/657/304 577/658/307 597/659/307
f 657/660/300 642/661/300 576/662/303 596/663/303
f 654/664/405 645/665/405 575/666/406 595/667/406
f 653/668/405 646/669/405 588/670/405 647/671/405
f 651/672/407 648/673/408 574/674/409 594/675/410
f 261/410/291 590/409/290 650/676/411 598/677/412
f 590/409/290 570/408/289 649/678/413 650/676/411
f 618/420/297 651/672/407 594/675/410 269/421/298
f 571/414/294 611/413/293 652/679/414 646/669/405
f 611/413/293 261/410/291 598/677/412 652/679/414
f 262/411/292 591/415/294 653/668/405 599/680/301
f 591/415/294 571/414/294 646/669/405 653/668/405
f 619/424/301 654/664/405 595/667/406 270/425/302
f 647/671/405 588/670/405 645/665/405 654/664/405
f 572/417/295 612/416/295 655/681/300 643/682/300
f 612/416/295 262/411/292 599/680/301 655/681/300
f 600/683/305 656/684/300 644/685/300 578/686/300
f 263/396/280 592/418/295 656/684/300 600/683/305
f 592/418/295 572/417/295 643/682/300 656/684/300
f 620/428/305 657/660/300 596/663/303 271/429/306
f 578/686/300 644/685/300 657/660/300 620/428/305
f 573/398/281 613/397/281 658/687/304 641/688/304
f 613/397/281 263/396/280 600/683/305 658/687/304
f 264/400/282 593/399/281 659/689/304 601/431/308
f 593/399/281 573/398/281 641/688/304 659/689/304
f 621/433/308 660/656/304 597/659/307 272/434/310
f 574/112/409 570/112/289 260/112/287 268/112/322
f 269/690/298 594/691/410 661/692/415 607/693/416
f 594/691/410 574/694/409 639/695/417 661/692/415
f 627/454/325 662/654/403 602/481/344 277/455/326
f 575/696/406 615/697/299 663/698/418 636/651/324
f 615/697/299 269/690/298 607/693/416 663/698/418
f 270/699/302 595/700/406 664/650/324 608/701/329
f 595/700/406 575/696/406 636/651/324 664/650/324
f 628/458/329 665/648/324 603/465/327 278/459/330
f 637/653/324 586/652/324 635/649/324 665/648/324
f 576/702/303 616/703/303 666/704/328 633/705/328
f 616/703/303 270/699/302 608/701/329 666/704/328
f 609/706/333 667/707/328 634/708/328 585/709/328
f 271/710/306 596/711/303 667/707/328 609/706/333
f 596/711/303 576/702/303 633/705/328 667/707/328
f 629/462/333 668/646/328 604/469/331 279/463/334
f 585/709/328 634/708/328 668/646/328 629/462/333
f 577/712/307 617/713/307 669/714/332 631/715/332
f 617/713/307 271/710/306 609/706/333 669/714/332
f 272/442/310 597/716/307 670/717/332 626/443/316
f 597/716/307 577/712/307 631/715/332 670/717/332
f 606/445/316 671/644/332 605/472/335 280/446/318
f 630/645/332 672/461/332 625/464/335 583/473/335
f 632/647/328 673/457/328 624/460/331 582/470/331
f 635/649/324 674/453/324 623/456/327 581/466/327
f 640/657/304 675/427/304 617/430/307 577/658/307
f 642/661/300 676/423/300 616/426/303 576/662/303
f 645/665/405 677/419/296 615/422/299 575/666/406
f 580/112/345 574/112/409 268/112/322 276/112/323
f 260/112/287 259/404/285 267/438/313 268/112/322
f 331/112/40 82/112/41 83/112/56 77/112/44
f 405/439/314 77/112/44 83/126/56 368/129/59
f 368/129/59 415/591/398 416/112/419 414/590/398 405/439/314
f 88/104/36 96/122/53 104/139/67 112/144/72 120/156/83 129/161/87 137/185/103 145/194/110 153/232/141 161/241/147 169/256/159 177/261/163 185/272/177 193/277/182 201/299/199 209/330/222 217/342/231 225/364/248 233/369/252 241/380/263 249/384/266 257/391/277 265/401/283 273/435/311 281/447/319 289/475/340 297/492/354 305/499/359 313/508/366 321/512/370 329/525/381 80/98/31
f 86/112/30 94/112/51 95/112/52 87/112/35
l 175 174
l 174 173
l 183 175
l 182 174
l 175 167
l 175 176
l 174 166
l 461 458
l 458 459
l 494 467
l 140 494
l 568 564
l 569 565
l 564 566
l 565 567
l 614 574
l 639 587
l 649 589
l 268 614
l 587 638
l 589 648
o syningarsalur
v 0.000000 -0.020000 8.000000
v 12.010433 -0.020000 12.974885
v 12.010433 0.980000 12.974885
v 10.809105 -0.020000 15.222413
v 10.809105 0.980000 15.222413
v 9.192388 -0.020000 17.192387
v 9.192388 0.980000 17.192387
v 7.222413 -0.020000 18.809105
v 7.222413 0.980000 18.809105
v 4.974885 -0.020000 20.010433
v 4.974885 0.980000 20.010433
v 2.536174 -0.020000 20.750208
v 2.536174 0.980000 20.750208
v 0.000000 -0.020000 21.000000
v 0.000000 0.980000 21.000000
v -2.536174 -0.020000 20.750208
v -2.536174 0.980000 20.750208
v -4.974885 -0.020000 20.010433
v -4.974885 0.980000 20.010433
v -7.222413 -0.020000 18.809105
v -7.222413 0.980000 18.809105
v -9.192388 -0.020000 17.192387
v -9.192388 0.980000 17.192387
v -10.809105 -0.020000 15.222413
v -10.809105 0.980000 15.222413
v -12.010433 -0.020000 12.974885
v -12.010433 0.980000 12.974885
v 0.000000 0.980000 8.000000
vn 0.8819 -0.0000 0.4714
vn 0.7730 -0.0000 0.6344
vn 0.6344 -0.0000 0.7730
vn 0.4714 -0.0000 0.8819
vn 0.2903 -0.0000 0.9569
vn 0.0980 -0.0000 0.9952
vn -0.0980 -0.0000 0.9952
vn -0.2903 -0.0000 0.9569
vn -0.4714 -0.0000 0.8819
vn -0.6344 -0.0000 0.7730
vn -0.7730 -0.0000 0.6344
vn -0.8819 -0.0000 0.4714
vn -0.3827 -0.0000 -0.9239
vn 0.3827 -0.0000 -0.9239
vn -0.0000 1.0000 -0.0000
vn -0.0000 -1.0000 -0.0000
vt 0.687500 0.500000
vt 0.687500 1.000000
vt 0.656250 1.000000
vt 0.656250 0.500000
vt 0.625000 1.000000
vt 0.625000 0.500000
vt 0.593750 1.000000
vt 0.593750 0.500000
vt 0.562500 1.000000
vt 0.562500 0.500000
vt 0.531250 1.000000
vt 0.531250 0.500000
vt 0.500000 1.000000
vt 0.500000 0.500000
vt 0.468750 1.000000
vt 0.468750 0.500000
vt 0.437500 1.000000
vt 0.437500 0.500000
vt 0.406250 1.000000
vt 0.406250 0.500000
vt 0.375000 1.000000
vt 0.375000 0.500000
vt 0.343750 1.000000
vt 0.343750 0.500000
vt 0.312500 1.000000
vt 0.312500 0.500000
vt 0.000000 0.000000
s 0
usemtl Material.013
f 679/718/420 680/719/420 682/720/420 681/721/420
f 681/721/421 682/720/421 684/722/421 683/723/421
f 683/723/422 684/722/422 686/724/422 685/725/422
f 685/725/423 686/724/423 688/726/423 687/727/423
f 687/727/424 688/726/424 690/728/424 689/729/424
f 689/729/425 690/728/425 692/730/425 691/731/425
f 691/731/426 692/730/426 694/732/426 693/733/426
f 693/733/427 694/732/427 696/734/427 695/735/427
f 695/735/428 696/734/428 698/736/428 697/737/428
f 697/737/429 698/736/429 700/738/429 699/739/429
f 699/739/430 700/738/430 702/740/430 701/741/430
f 701/741/431 702/740/431 704/742/431 703/743/431
f 704/742/432 705/744/432 678/744/432 703/743/432
f 680/719/433 679/718/433 678/744/433 705/744/433
f 682/720/434 680/719/434 705/744/434 692/730/434 690/728/434 688/726/434 686/724/434 684/722/434
f 692/730/434 705/744/434 704/742/434 702/740/434 700/738/434 698/736/434 696/734/434 694/732/434
f 679/718/435 681/721/435 683/723/435 685/725/435 687/727/435 689/729/435 691/731/435 693/733/435 695/735/435 697/737/435 699/739/435 701/741/435 703/743/435 678/744/435
o dyr
v -0.481908 1.425380 -1.425713
v -0.481908 1.425380 -1.299999
v 0.582861 -0.001031 -1.425713
v 0.582861 -0.001031 -1.299999
v -0.481908 -0.001031 -1.425713
v -0.481908 -0.001031 -1.299999
v 0.582861 1.425380 -1.425713
v 0.582861 1.425380 -1.299999
v 0.050477 -0.001031 -1.425713
v -0.481908 0.712174 -1.425713
v 0.050477 1.425380 -1.425713
v 0.582861 0.712174 -1.425713
v 0.050477 0.712174 -1.425713
vn -0.0000 -0.0000 -1.0000
vn -0.0000 -0.0000 1.0000
vn -1.0000 -0.0000 -0.0000
vn -0.0000 1.0000 -0.0000
vn 1.0000 -0.0000 -0.0000
vn -0.0000 -1.0000 -0.0000
vt 0.500000 0.125000
vt 0.625000 0.125000
vt 0.625000 0.250000
vt 0.500000 0.250000
vt 0.375000 0.250000
vt 0.625000 0.500000
vt 0.375000 0.500000
vt 0.625000 0.625000
vt 0.625000 0.750000
vt 0.375000 0.750000
vt 0.125000 0.750000
vt 0.375000 0.125000
vt 0.125000 0.500000
vt 0.375000 0.625000
vt 0.875000 0.500000
vt 0.875000 0.625000
vt 0.875000 0.750000
vt 0.375000 0.000000
vt 0.500000 0.000000
vt 0.625000 0.000000
s 0
usemtl Material.001
f 718/745/436 714/746/436 710/747/436 715/748/436
f 709/749/437 713/747/437 707/750/437 711/751/437
f 707/751/438 706/750/438 715/752/438 710/753/438 711/754/438
f 713/755/439 712/754/439 716/756/439 706/749/439 707/751/439
f 709/757/440 708/751/440 717/758/440 712/754/440 713/755/440
f 711/750/441 710/759/441 714/760/441 708/761/441 709/753/441
f 716/756/436 718/745/436 715/748/436 706/749/436
f 712/762/436 717/763/436 718/745/436 716/756/436
f 717/763/436 708/764/436 714/746/436 718/745/436
o gluggi_1
v 1.826531 1.589419 -1.261336
v 1.826531 1.589419 -1.338664
v 2.173469 1.589419 -1.261336
v 2.173469 1.589419 -1.338664
v 1.826531 2.010581 -1.261336
v 1.826531 2.010581 -1.338664
v 2.173469 2.010581 -1.261336
v 2.173469 2.010581 -1.338664
vn -0.0000 -1.0000 -0.0000
vn 1.0000 -0.0000 -0.0000
vn -0.0000 1.0000 -0.0000
vn -1.0000 -0.0000 -0.0000
vn -0.0000 -0.0000 1.0000
vn -0.0000 -0.0000 -1.0000
vt 0.375000 0.000000
vt 0.625000 0.000000
vt 0.625000 0.250000
vt 0.375000 0.250000
vt 0.625000 0.500000
vt 0.375000 0.500000
vt 0.625000 0.750000
vt 0.375000 0.750000
vt 0.625000 1.000000
vt 0.375000 1.000000
vt 0.125000 0.500000
vt 0.125000 0.750000
vt 0.875000 0.500000
vt 0.875000 0.750000
s 0
usemtl Material.005
f 719/765/442 720/766/442 722/767/442 721/768/442
f 721/768/443 722/767/443 726/769/443 725/770/443
f 725/770/444 726/769/444 724/771/444 723/772/444
f 723/772/445 724/771/445 720/773/445 719/774/445
f 721/775/446 725/770/446 723/772/446 719/776/446
f 726/769/447 722/777/447 720/778/447 724/771/447
o gluggi_2
v 1.326531 1.589419 -1.261336
v 1.326531 1.589419 -1.338664
v 1.673469 1.589419 -1.261336
v 1.673469 1.589419 -1.338664
v 1.326531 2.010581 -1.261336
v 1.326531 2.010581 -1.338664
v 1.673469 2.010581 -1.261336
v 1.673469 2.010581 -1.338664
vn -0.0000 -1.0000 -0.0000
vn 1.0000 -0.0000 -0.0000
vn -0.0000 1.0000 -0.0000
vn -1.0000 -0.0000 -0.0000
vn -0.0000 -0.0000 1.0000
vn -0.0000 -0.0000 -1.0000
vt 0.375000 0.000000
vt 0.625000 0.000000
vt 0.625000 0.250000
vt 0.375000 0.250000
vt 0.625000 0.500000
vt 0.375000 0.500000
vt 0.625000 0.750000
vt 0.375000 0.750000
vt 0.625000 1.000000
vt 0.375000 1.000000
vt 0.125000 0.500000
vt 0.125000 0.750000
vt 0.875000 0.500000
vt 0.875000 0.750000
s 0
usemtl Material.006
f 727/779/448 728/780/448 730/781/448 729/782/448
f 729/782/449 730/781/449 734/783/449 733/784/449
f 733/784/450 734/783/450 732/785/450 731/786/450
f 731/786/451 732/785/451 728/787/451 727/788/451
f 729/789/452 733/784/452 731/786/452 727/790/452
f 734/783/453 730/791/453 728/792/453 732/785/453
o gluggi_3
v 0.826531 1.589419 -1.261336
v 0.826531 1.589419 -1.338664
v 1.173469 1.589419 -1.261336
v 1.173469 1.589419 -1.338664
v 0.826531 2.010581 -1.261336
v 0.826531 2.010581 -1.338664
v 1.173469 2.010581 -1.261336
v 1.173469 2.010581 -1.338664
vn -0.0000 -1.0000 -0.0000
vn 1.0000 -0.0000 -0.0000
vn -0.0000 1.0000 -0.0000
vn -1.0000 -0.0000 -0.0000
vn -0.0000 -0.0000 1.0000
vn -0.0000 -0.0000 -1.0000
vt 0.375000 0.000000
vt 0.625000 0.000000
vt 0.625000 0.250000
vt 0.375000 0.250000
vt 0.625000 0.500000
vt 0.375000 0.500000
vt 0.625000 0.750000
vt 0.375000 0.750000
vt 0.625000 1.000000
vt 0.375000 1.000000
vt 0.125000 0.500000
vt 0.125000 0.750000
vt 0.875000 0.500000
vt 0.875000 0.750000
s 0
usemtl Material.007
f 735/793/454 736/794/454 738/795/454 737/796/454
f 737/796/455 738/795/455 742/797/455 741/798/455
f 741/798/456 742/797/456 740/799/456 739/800/456
f 739/800/457 740/799/457 736/801/457 735/802/457
f 737/803/458 741/798/458 739/800/458 735/804/458
f 742/797/459 738/805/459 736/806/459 740/799/459
o gluggi_4
v -1.173469 1.589419 -1.261336
v -1.173469 1.589419 -1.338664
v -0.826531 1.589419 -1.261336
v -0.826531 1.589419 -1.338664
v -1.173469 2.010581 -1.261336
v -1.173469 2.010581 -1.338664
v -0.826531 2.010581 -1.261336
v -0.826531 2.010581 -1.338664
vn -0.0000 -1.0000 -0.0000
vn 1.0000 -0.0000 -0.0000
vn -0.0000 1.0000 -0.0000
vn -1.0000 -0.0000 -0.0000
vn -0.0000 -0.0000 1.0000
vn -0.0000 -0.0000 -1.0000
vt 0.375000 0.000000
vt 0.625000 0.000000
vt 0.625000 0.250000
vt 0.375000 0.250000
vt 0.625000 0.500000
vt 0.375000 0.500000
vt 0.625000 0.750000
vt 0.375000 0.750000
vt 0.625000 1.000000
vt 0.375000 1.000000
vt 0.125000 0.500000
vt 0.125000 0.750000
vt 0.875000 0.500000
vt 0.875000 0.750000
s 0
usemtl Material.008
f 743/807/460 744/808/460 746/809/460 745/810/460
f 745/810/461 746/809/461 750/811/461 749/812/461
f 749/812/462 750/811/462 748/813/462 747/814/462
f 747/814/463 748/813/463 744/815/463 743/816/463
f 745/817/464 749/812/464 747/814/464 743/818/464
f 750/811/465 746/819/465 744/820/465 748/813/465
o gluggi_5
v -1.673469 1.589419 -1.261336
v -1.673469 1.589419 -1.338664
v -1.326531 1.589419 -1.261336
v -1.326531 1.589419 -1.338664
v -1.673469 2.010581 -1.261336
v -1.673469 2.010581 -1.338664
v -1.326531 2.010581 -1.261336
v -1.326531 2.010581 -1.338664
vn -0.0000 -1.0000 -0.0000
vn 1.0000 -0.0000 -0.0000
vn -0.0000 1.0000 -0.0000
vn -1.0000 -0.0000 -0.0000
vn -0.0000 -0.0000 1.0000
vn -0.0000 -0.0000 -1.0000
vt 0.375000 0.000000
vt 0.625000 0.000000
vt 0.625000 0.250000
vt 0.375000 0.250000
vt 0.625000 0.500000
vt 0.375000 0.500000
vt 0.625000 0.750000
vt 0.375000 0.750000
vt 0.625000 1.000000
vt 0.375000 1.000000
vt 0.125000 0.500000
vt 0.125000 0.750000
vt 0.875000 0.500000
vt 0.875000 0.750000
s 0
usemtl Material.009
f 751/821/466 752/822/466 754/823/466 753/824/466
f 753/824/467 754/823/467 758/825/467 757/826/467
f 757/826/468 758/825/468 756/827/468 755/828/468
f 755/828/469 756/827/469 752/829/469 751/830/469
f 753/831/470 757/826/470 755/828/470 751/832/470
f 758/825/471 754/833/471 752/834/471 756/827/471
o gluggi_6
v -2.173469 1.589419 -1.261336
v -2.173469 1.589419 -1.338664
v -1.826531 1.589419 -1.261336
v -1.826531 1.589419 -1.338664
v -2.173469 2.010581 -1.261336
v -2.173469 2.010581 -1.338664
v -1.826531 2.010581 -1.261336
v -1.826531 2.010581 -1.338664
vn -0.0000 -1.0000 -0.0000
vn 1.0000 -0.0000 -0.0000
vn -0.0000 1.0000 -0.0000
vn -1.0000 -0.0000 -0.0000
vn -0.0000 -0.0000 1.0000
vn -0.0000 -0.0000 -1.0000
vt 0.375000 0.000000
vt 0.625000 0.000000
vt 0.625000 0.250000
vt 0.375000 0.250000
vt 0.625000 0.500000
vt 0.375000 0.500000
vt 0.625000 0.750000
vt 0.375000 0.750000
vt 0.625000 1.000000
vt 0.375000 1.000000
vt 0.125000 0.500000
vt 0.125000 0.750000
vt 0.875000 0.500000
vt 0.875000 0.750000
s 0
usemtl Material.010
f 759/835/472 760/836/472 762/837/472 761/838/472
f 761/838/473 762/837/473 766/839/473 765/840/473
f 765/840/474 766/839/474 764/841/474 763/842/474
f 763/842/475 764/841/475 760/843/475 759/844/475
f 761/845/476 765/840/476 763/842/476 759/846/476
f 766/839/477 762/847/477 760/848/477 764/841/477
