{
  "accessors": [
    {
      "bufferView": 2,
      "componentType": 5126,
      "count": 65532,
      "max": [
        -0.3127090036869049,
        1.4397039413452148,
        5.1296820640563965
      ],
      "min": [
        -0.8737710118293762,
        -1.5209100246429443,
        4.472365856170654
      ],
      "type": "VEC3"
    },
    {
      "bufferView": 2,
      "byteOffset": 786384,
      "componentType": 5126,
      "count": 65532,
      "max": [
        0.9998592138290405,
        0.9999955296516418,
        0.9999796152114868
      ],
      "min": [
        -0.9999823570251465,
        -0.9999479055404663,
        -0.9999933242797852
      ],
      "type": "VEC3"
    },
    {
      "bufferView": 1,
      "componentType": 5126,
      "count": 65532,
      "max": [
        0.9620450139045715,
        0.9943869709968567
      ],
      "min": [
        0.0036609999369829893,
        0.0038219999987632036
      ],
      "type": "VEC2"
    },
    {
      "bufferView": 0,
      "componentType": 5125,
      "count": 337416,
      "type": "SCALAR"
    },
    {
      "bufferView": 2,
      "byteOffset": 1572768,
      "componentType": 5126,
      "count": 65532,
      "max": [
        -0.18774600327014923,
        1.0426260232925415,
        5.1296820640563965
      ],
      "min": [
        -0.8563200235366821,
        -1.1694949865341187,
        4.4664387702941895
      ],
      "type": "VEC3"
    },
    {
      "bufferView": 2,
      "byteOffset": 2359152,
      "componentType": 5126,
      "count": 65532,
      "max": [
        0.9999799728393555,
        0.9997380375862122,
        0.9999956488609314
      ],
      "min": [
        -0.9999777674674988,
        -0.9993895888328552,
        -0.9999913573265076
      ],
      "type": "VEC3"
    },
    {
      "bufferView": 1,
      "byteOffset": 524256,
      "componentType": 5126,
      "count": 65532,
      "max": [
        0.8248109817504883,
        0.9929620027542114
      ],
      "min": [
        0.02307800017297268,
        0.010522999800741673
      ],
      "type": "VEC2"
    },
    {
      "bufferView": 0,
      "byteOffset": 1349664,
      "componentType": 5125,
      "count": 327264,
      "type": "SCALAR"
    },
    {
      "bufferView": 2,
      "byteOffset": 3145536,
      "componentType": 5126,
      "count": 65532,
      "max": [
        0.14362500607967377,
        0.025704000145196915,
        5.5233049392700195
      ],
      "min": [
        -1.3766499757766724,
        -1.3929589986801147,
        4.028773784637451
      ],
      "type": "VEC3"
    },
    {
      "bufferView": 2,
      "byteOffset": 3931920,
      "componentType": 5126,
      "count": 65532,
      "max": [
        0.9999918341636658,
        0.9994693398475647,
        0.9999984502792358
      ],
      "min": [
        -0.99994295835495,
        -0.9999955296516418,
        -0.9999255537986755
      ],
      "type": "VEC3"
    },
    {
      "bufferView": 1,
      "byteOffset": 1048512,
      "componentType": 5126,
      "count": 65532,
      "max": [
        0.9943249821662903,
        0.9974889755249023
      ],
      "min": [
        0.0051009999588131905,
        0.05354499816894531
      ],
      "type": "VEC2"
    },
    {
      "bufferView": 0,
      "byteOffset": 2658720,
      "componentType": 5125,
      "count": 322386,
      "type": "SCALAR"
    },
    {
      "bufferView": 2,
      "byteOffset": 4718304,
      "componentType": 5126,
      "count": 65532,
      "max": [
        0.041234999895095825,
        -0.9316229820251465,
        5.5334978103637695
      ],
      "min": [
        -1.3570950031280518,
        -1.3811089992523193,
        4.0326151847839355
      ],
      "type": "VEC3"
    },
    {
      "bufferView": 2,
      "byteOffset": 5504688,
      "componentType": 5126,
      "count": 65532,
      "max": [
        0.9999842643737793,
        0.9999663829803467,
        0.9998518228530884
      ],
      "min": [
        -0.9999823570251465,
        -0.999995768070221,
        -0.9999956488609314
      ],
      "type": "VEC3"
    },
    {
      "bufferView": 1,
      "byteOffset": 1572768,
      "componentType": 5126,
      "count": 65532,
      "max": [
        0.9944679737091064,
        0.9993460178375244
      ],
      "min": [
        0.006000999826937914,
        0.026897000148892403
      ],
      "type": "VEC2"
    },
    {
      "bufferView": 0,
      "byteOffset": 3948264,
      "componentType": 5125,
      "count": 324354,
      "type": "SCALAR"
    },
    {
      "bufferView": 2,
      "byteOffset": 6291072,
      "componentType": 5126,
      "count": 65534,
      "max": [
        0.10579399764537811,
        -1.0457979440689087,
        5.365911960601807
      ],
      "min": [
        -1.2074300050735474,
        -1.5208740234375,
        4.1371989250183105
      ],
      "type": "VEC3"
    },
    {
      "bufferView": 2,
      "byteOffset": 7077480,
      "componentType": 5126,
      "count": 65534,
      "max": [
        0.999893844127655,
        0.9999922513961792,
        0.9996787905693054
      ],
      "min": [
        -0.9999132752418518,
        -0.9999955296516418,
        -0.9999961853027344
      ],
      "type": "VEC3"
    },
    {
      "bufferView": 1,
      "byteOffset": 2097024,
      "componentType": 5126,
      "count": 65534,
      "max": [
        0.9949989914894104,
        0.9992730021476746
      ],
      "min": [
        0.0046640001237392426,
        0.00419399980455637
      ],
      "type": "VEC2"
    },
    {
      "bufferView": 0,
      "byteOffset": 5245680,
      "componentType": 5125,
      "count": 298137,
      "type": "SCALAR"
    },
    {
      "bufferView": 2,
      "byteOffset": 7863888,
      "componentType": 5126,
      "count": 65532,
      "max": [
        0.1527249962091446,
        -0.5232210159301758,
        5.532793045043945
      ],
      "min": [
        -1.3766059875488281,
        -1.282791018486023,
        4.010933876037598
      ],
      "type": "VEC3"
    },
    {
      "bufferView": 2,
      "byteOffset": 8650272,
      "componentType": 5126,
      "count": 65532,
      "max": [
        0.9998874068260193,
        0.9999992847442627,
        0.9987674355506897
      ],
      "min": [
        -0.99994295835495,
        -0.999999463558197,
        -0.9999956488609314
      ],
      "type": "VEC3"
    },
    {
      "bufferView": 1,
      "byteOffset": 2621296,
      "componentType": 5126,
      "count": 65532,
      "max": [
        0.9934970140457153,
        0.9998840093612671
      ],
      "min": [
        0.004586999770253897,
        0.00761700002476573
      ],
      "type": "VEC2"
    },
    {
      "bufferView": 0,
      "byteOffset": 6438228,
      "componentType": 5125,
      "count": 295500,
      "type": "SCALAR"
    },
    {
      "bufferView": 2,
      "byteOffset": 9436656,
      "componentType": 5126,
      "count": 43957,
      "max": [
        0.1527249962091446,
        -0.18979600071907043,
        5.528103828430176
      ],
      "min": [
        -1.3715670108795166,
        -1.020913004875183,
        4.012025833129883
      ],
      "type": "VEC3"
    },
    {
      "bufferView": 2,
      "byteOffset": 9964140,
      "componentType": 5126,
      "count": 43957,
      "max": [
        0.9999337792396545,
        0.9999992847442627,
        0.9999662637710571
      ],
      "min": [
        -0.9999932646751404,
        -0.9999306797981262,
        -0.9999954700469971
      ],
      "type": "VEC3"
    },
    {
      "bufferView": 1,
      "byteOffset": 3145552,
      "componentType": 5126,
      "count": 43957,
      "max": [
        0.9207720160484314,
        0.9681879878044128
      ],
      "min": [
        0.0523499995470047,
        0.0036929999478161335
      ],
      "type": "VEC2"
    },
    {
      "bufferView": 0,
      "byteOffset": 7620228,
      "componentType": 5125,
      "count": 194940,
      "type": "SCALAR"
    }
  ],
  "asset": {
    "extras": {
      "author": "aeroactif (https://sketchfab.com/aeroactif)",
      "license": "CC-BY-NC-4.0 (http://creativecommons.org/licenses/by-nc/4.0/)",
      "source": "https://sketchfab.com/3d-models/fountain-statue-v1-a2995c11359e4d0e846487452dbc5e84",
      "title": "Fountain statue v1"
    },
    "generator": "Sketchfab-12.68.0",
    "version": "2.0"
  },
  "bufferViews": [
    {
      "buffer": 0,
      "byteLength": 8399988,
      "name": "floatBufferViews",
      "target": 34963
    },
    {
      "buffer": 0,
      "byteLength": 3497208,
      "byteOffset": 8399988,
      "byteStride": 8,
      "name": "floatBufferViews",
      "target": 34962
    },
    {
      "buffer": 0,
      "byteLength": 10491624,
      "byteOffset": 11897196,
      "byteStride": 12,
      "name": "floatBufferViews",
      "target": 34962
    }
  ],
  "buffers": [
    {
      "byteLength": 22388820,
      "uri": "scene.bin"
    }
  ],
  "extensionsUsed": [
    "KHR_materials_unlit"
  ],
  "images": [
    {
      "uri": "textures/mat-0_baseColor.jpeg"
    }
  ],
  "materials": [
    {
      "doubleSided": true,
      "extensions": {
        "KHR_materials_unlit": {}
      },
      "name": "mat-0",
      "pbrMetallicRoughness": {
        "baseColorTexture": {
          "index": 0
        },
        "metallicFactor": 0.0
      }
    }
  ],
  "meshes": [
    {
      "name": "mat-0",
      "primitives": [
        {
          "attributes": {
            "NORMAL": 1,
            "POSITION": 0,
            "TEXCOORD_0": 2
          },
          "indices": 3,
          "material": 0,
          "mode": 4
        }
      ]
    },
    {
      "name": "mat-0",
      "primitives": [
        {
          "attributes": {
            "NORMAL": 5,
            "POSITION": 4,
            "TEXCOORD_0": 6
          },
          "indices": 7,
          "material": 0,
          "mode": 4
        }
      ]
    },
    {
      "name": "mat-0",
      "primitives": [
        {
          "attributes": {
            "NORMAL": 9,
            "POSITION": 8,
            "TEXCOORD_0": 10
          },
          "indices": 11,
          "material": 0,
          "mode": 4
        }
      ]
    },
    {
      "name": "mat-0",
      "primitives": [
        {
          "attributes": {
            "NORMAL": 13,
            "POSITION": 12,
            "TEXCOORD_0": 14
          },
          "indices": 15,
          "material": 0,
          "mode": 4
        }
      ]
    },
    {
      "name": "mat-0",
      "primitives": [
        {
          "attributes": {
            "NORMAL": 17,
            "POSITION": 16,
            "TEXCOORD_0": 18
          },
          "indices": 19,
          "material": 0,
          "mode": 4
        }
      ]
    },
    {
      "name": "mat-0",
      "primitives": [
        {
          "attributes": {
            "NORMAL": 21,
            "POSITION": 20,
            "TEXCOORD_0": 22
          },
          "indices": 23,
          "material": 0,
          "mode": 4
        }
      ]
    },
    {
      "name": "mat-0",
      "primitives": [
        {
          "attributes": {
            "NORMAL": 25,
            "POSITION": 24,
            "TEXCOORD_0": 26
          },
          "indices": 27,
          "material": 0,
          "mode": 4
        }
      ]
    }
  ],
  "nodes": [
    {
      "children": [
        1
      ],
      "matrix": [
        0.9860207438468933,
        0.0,
        0.0,
        0.0,
        0.0,
        0.9860207438468933,
        4.3788117303073784e-16,
        0.0,
        0.0,
        -4.3788117303073784e-16,
        0.9860207438468933,
        0.0,
        0.0,
        4.812815666198731,
        -4.731608867645263,
        1.0
      ],
      "name": "Sketchfab_model"
    },
    {
      "children": [
        2
      ],
      "name": "Collada visual scene group"
    },
    {
      "children": [
        3,
        4,
        5,
        6,
        7,
        8,
        9
      ],
      "name": "mesh1"
    },
    {
      "mesh": 0,
      "name": "mat-0"
    },
    {
      "mesh": 1,
      "name": "mat-0"
    },
    {
      "mesh": 2,
      "name": "mat-0"
    },
    {
      "mesh": 3,
      "name": "mat-0"
    },
    {
      "mesh": 4,
      "name": "mat-0"
    },
    {
      "mesh": 5,
      "name": "mat-0"
    },
    {
      "mesh": 6,
      "name": "mat-0"
    }
  ],
  "samplers": [
    {
      "magFilter": 9729,
      "minFilter": 9987,
      "wrapS": 10497,
      "wrapT": 10497
    }
  ],
  "scene": 0,
  "scenes": [
    {
      "name": "Sketchfab_Scene",
      "nodes": [
        0
      ]
    }
  ],
  "textures": [
    {
      "sampler": 0,
      "source": 0
    }
  ]
}
