{
  "accessors": [
    {
      "bufferView": 2,
      "componentType": 5126,
      "count": 17109,
      "max": [
        -11.038921356201172,
        108.35104370117188,
        91.65215301513672
      ],
      "min": [
        -75.70169067382813,
        18.205963134765625,
        -0.20448699593544006
      ],
      "type": "VEC3"
    },
    {
      "bufferView": 2,
      "byteOffset": 205308,
      "componentType": 5126,
      "count": 17109,
      "max": [
        0.9989854693412781,
        0.9999502301216125,
        0.9999998807907104
      ],
      "min": [
        -0.9999977350234985,
        -0.9999502301216125,
        -1.0
      ],
      "type": "VEC3"
    },
    {
      "bufferView": 1,
      "componentType": 5126,
      "count": 17109,
      "max": [
        0.9999989867210388,
        0.8385180234909058
      ],
      "min": [
        0.0,
        0.0
      ],
      "type": "VEC2"
    },
    {
      "bufferView": 0,
      "componentType": 5125,
      "count": 96870,
      "type": "SCALAR"
    }
  ],
  "asset": {
    "extras": {
      "author": "jedairusz (https://sketchfab.com/jedairusz)",
      "license": "CC-BY-4.0 (http://creativecommons.org/licenses/by/4.0/)",
      "source": "https://sketchfab.com/3d-models/frog-statue-e82c1d0b80c84dc3b04e134a2325b8f3",
      "title": "Frog statue"
    },
    "generator": "Sketchfab-12.66.0",
    "version": "2.0"
  },
  "bufferViews": [
    {
      "buffer": 0,
      "byteLength": 387480,
      "name": "floatBufferViews",
      "target": 34963
    },
    {
      "buffer": 0,
      "byteLength": 136872,
      "byteOffset": 387480,
      "byteStride": 8,
      "name": "floatBufferViews",
      "target": 34962
    },
    {
      "buffer": 0,
      "byteLength": 410616,
      "byteOffset": 524352,
      "byteStride": 12,
      "name": "floatBufferViews",
      "target": 34962
    }
  ],
  "buffers": [
    {
      "byteLength": 934968,
      "uri": "scene.bin"
    }
  ],
  "extensionsUsed": [
    "KHR_materials_unlit"
  ],
  "images": [
    {
      "uri": "textures/default_baseColor.png"
    }
  ],
  "materials": [
    {
      "doubleSided": true,
      "extensions": {
        "KHR_materials_unlit": {}
      },
      "name": "default",
      "pbrMetallicRoughness": {
        "baseColorTexture": {
          "index": 0
        },
        "metallicFactor": 0.0
      }
    }
  ],
  "meshes": [
    {
      "name": "Object_0",
      "primitives": [
        {
          "attributes": {
            "NORMAL": 1,
            "POSITION": 0,
            "TEXCOORD_0": 2
          },
          "indices": 3,
          "material": 0,
          "mode": 4
        }
      ]
    }
  ],
  "nodes": [
    {
      "children": [
        1
      ],
      "matrix": [
        0.04202829673886299,
        0.0,
        0.0,
        0.0,
        0.0,
        9.332156545052815e-18,
        -0.04202829673886299,
        0.0,
        0.0,
        0.04202829673886299,
        9.332156545052815e-18,
        0.0,
        0.0,
        0.0,
        0.0,
        1.0
      ],
      "name": "Sketchfab_model"
    },
    {
      "children": [
        2
      ],
      "name": "froggo_export.obj.cleaner.materialmerger.gles"
    },
    {
      "mesh": 0,
      "name": "Object_2"
    }
  ],
  "samplers": [
    {
      "magFilter": 9729,
      "minFilter": 9987,
      "wrapS": 10497,
      "wrapT": 10497
    }
  ],
  "scene": 0,
  "scenes": [
    {
      "name": "Sketchfab_Scene",
      "nodes": [
        0
      ]
    }
  ],
  "textures": [
    {
      "sampler": 0,
      "source": 0
    }
  ]
}
